<svg
  xmlns="http://www.w3.org/2000/svg"
  xmlns:xlink="http://www.w3.org/1999/xlink"
  viewBox="0 0 1200 400"
>
  <title>Frontend Applications</title>
  <style>
    :root { color: #fe2ff7; background-color: currentcolor; max-width: 100% }
    body { margin: 0 }
    path { fill: none; stroke: hsl(302, 99%, 67%); stroke-width: 5px; stroke-linecap: round }
    path:nth-child(odd) { stroke: hsl(302, 99%, 52%) }
  </style>
  <rect width="100%" height="100%" fill="currentcolor"/>
  <defs>
  <path id="t1" d="M7.76,10.89c-1.5,2.18-2.77,4.5-4.27,6.68-1.12,1.63-2.22,4-.86,5.41a4.34,4.34,0,0,0,2.25,1,130.06,130.06,0,0,0,24.85,3.36,2.65,2.65,0,0,0,2-.45,2.5,2.5,0,0,0,.51-2c-.43-7.43-5.32-13.76-10-19.55C21.15,4,20,2.67,18.4,2.18a5.71,5.71,0,0,0-5,1.19,16.87,16.87,0,0,0-3.43,4c-1.43,2.11-.79,1.36-2.23,3.47">
    <animate
      attributeName="opacity"
      repeatCount="indefinite"
      dur="20s"
      values="1;1;1;0;0;0;0;0;1"
    />
    <animateTransform
      attributeName="transform"
      type="rotate"
      repeatCount="indefinite"
      dur="80s"
      from="360 150 150"
      to="0 150 150"
    />
  </path>
  <path id="c1" d="M12.36,11.18a1.16,1.16,0,0,0-1.63-.11,3,3,0,0,0-.87,1.58c-.61,2.11-.78,4.58.55,6.32,1.71,2.23,5.36,2.21,7.57.46s3.15-4.69,3.26-7.5a13.18,13.18,0,0,0-1.89-7.67A9.12,9.12,0,0,0,12.85,0,9.93,9.93,0,0,0,4.51,3.82,20.08,20.08,0,0,0,.67,12.45c-.86,3.8-1.14,8,.63,11.44,2.31,4.55,7.64,6.85,12.72,7.3a13.12,13.12,0,0,0,7.81-1.32,15.12,15.12,0,0,0,5-5.68c2.11-3.59,3.87-7.56,3.88-11.73S28.64,3.9,24.84,2.21">
    <animate
      attributeName="opacity"
      repeatCount="indefinite"
      dur="20s"
      values="0;1;1;1;0;0;0;0;0"
    />
    <animateTransform
      attributeName="transform"
      type="rotate"
      repeatCount="indefinite"
      dur="80s"
      from="360 150 150"
      to="0 150 150"
    />
  </path>
  <path id="l1" d="M2.07,10.63a6,6,0,0,0,2.89,6A6,6,0,0,0,11.59,16c3.64-3.14,2.84-10.08,7.21-12.06,2.83-1.29,6.15.49,8.31,2.72s3.86,5,6.55,6.59a9.31,9.31,0,0,0,10.47-1A9.31,9.31,0,0,0,46.62,2">
    <animate
      attributeName="opacity"
      repeatCount="indefinite"
      dur="20s"
      values="0;0;1;1;1;0;0;0;0"
    />
    <animateTransform
      attributeName="transform"
      type="rotate"
      repeatCount="indefinite"
      dur="80s"
      from="360 150 150"
      to="0 150 150"
    />
  </path>
  <path id="t2" d="M23.42,19c-1.93-6-2.36-7.18-4.09-13.2-.54-1.88-1.82-4.21-3.71-3.74a3.78,3.78,0,0,0-1.45.88,120.75,120.75,0,0,0-9.68,9.15c-1.38,1.45-2.82,3.27-2.41,5.23a6.22,6.22,0,0,0,2.63,3.34,73,73,0,0,0,15.38,9.16c2,.87,4.64,1.5,6-.18s.26-4-1-5.75S24.06,21,23.42,19Z">
    <animate
      attributeName="opacity"
      repeatCount="indefinite"
      dur="20s"
      values="0;0;0;1;1;1;0;0;0"
    />
    <animateTransform
      attributeName="transform"
      type="rotate"
      repeatCount="indefinite"
      dur="80s"
      from="360 150 150"
      to="0 150 150"
    />
  </path>
  <path id="c2" d="M13.44,10.08a2.92,2.92,0,0,0-4.15-.66C7.93,10.56,8,12.75,8.79,14.32a6.86,6.86,0,0,0,8.38,3,7.23,7.23,0,0,0,4.17-8A11.85,11.85,0,0,0,18.15,4,11.42,11.42,0,0,0,12.33.14a9.79,9.79,0,0,0-7.4,2C1.72,4.41-.71,8.37.19,12.21a13.84,13.84,0,0,0,1.85,4,30.12,30.12,0,0,0,5,6.55A11.53,11.53,0,0,0,14.33,26,12.35,12.35,0,0,0,22,23.15c4.33-3.33,7.31-9,5.86-14.3">
    <animate
      attributeName="opacity"
      repeatCount="indefinite"
      dur="20s"
      values="0;0;0;0;1;1;1;0;0"
    />
    <animateTransform
      attributeName="transform"
      type="rotate"
      repeatCount="indefinite"
      dur="80s"
      from="360 150 150"
      to="0 150 150"
    />
  </path>
  <path id="l2" d="M85.7,8.9c.33-3.32-2.7-6.31-6-6.81s-6.62,1-9.21,3.12S65.89,10,63.64,12.49a9.41,9.41,0,0,1-4.58,3.19c-3.47.78-6.65-2.08-8.76-4.94s-4.2-6.21-7.64-7.11c-3.79-1-7.67,1.51-10.15,4.54s-4.16,6.7-6.93,9.47S18.31,22.12,15,20.06a12.07,12.07,0,0,1-3.69-4.46L7.93,9.85A7.14,7.14,0,0,0,5.39,6.91C4.22,6.3,2.5,6.56,2,7.78">
    <animate
      attributeName="opacity"
      repeatCount="indefinite"
      dur="20s"
      values="0;0;0;0;0;1;1;1;0"
    />
    <animateTransform
      attributeName="transform"
      type="rotate"
      repeatCount="indefinite"
      dur="80s"
      from="360 150 150"
      to="0 150 150"
    />
  </path>
  <path id="t3" d="M16.58,2.36A68.52,68.52,0,0,0,5.33,2.14,4.14,4.14,0,0,0,2.7,3C1.38,4.23,2.18,6.42,3,8l8.1,14.87c.65,1.2,1.43,2.5,2.75,2.87a4.89,4.89,0,0,0,3.37-.69A42.36,42.36,0,0,0,32.45,12.46a8.56,8.56,0,0,0,1.79-3.54,3.37,3.37,0,0,0-1.38-3.5A5,5,0,0,0,31,4.92C25.13,4.1,22.51,2.9,16.58,2.36Z">
    <animate
      attributeName="opacity"
      repeatCount="indefinite"
      dur="20s"
      values="1;0;0;0;0;0;1;1;1"
    />
    <animateTransform
      attributeName="transform"
      type="rotate"
      repeatCount="indefinite"
      dur="80s"
      from="360 150 150"
      to="0 150 150"
    />
  </path>
  <path id="c3" d="M16.66,19.31c0-2.1-2.84-3.38-4.68-2.35s-2.46,3.52-1.85,5.54c1.12,3.7,5.8,5.64,9.41,4.27s5.81-5.44,5.52-9.3a12.82,12.82,0,0,0-6-9.46A12.7,12.7,0,0,0,8,6.38,12.65,12.65,0,0,0,.54,15.12a20.73,20.73,0,0,0,.75,11.75,17.2,17.2,0,0,0,2.43,4.92c3.94,5.26,11.55,6.36,18,5a17.51,17.51,0,0,0,7.55-3.24,15.27,15.27,0,0,0,4.9-8.16A20.76,20.76,0,0,0,18.61,0">
    <animate
      attributeName="opacity"
      repeatCount="indefinite"
      dur="20s"
      values="1;0;0;0;0;0;0;1;1"
    />
    <animateTransform
      attributeName="transform"
      type="rotate"
      repeatCount="indefinite"
      dur="80s"
      from="360 150 150"
      to="0 150 150"
    />
  </path>
  <path id="l3" d="M2,19.86c2.37-3.51,2.92-9.08,7-10,2.51-.58,5,1.1,6.65,3.1s2.78,4.4,4.69,6.14a10.34,10.34,0,0,0,13.12.34c3.4-2.8,4.55-7.42,6.65-11.29S46.72.68,50.74,2.48c5.2,2.33,4.63,11.25,9.95,13.29a8.22,8.22,0,0,0,6.09-.56,18.15,18.15,0,0,0,9.57-9.86">
    <animate
      attributeName="opacity"
      repeatCount="indefinite"
      dur="20s"
      values="1;1;0;0;0;0;0;0;1"
    />
    <animateTransform
      attributeName="transform"
      type="rotate"
      repeatCount="indefinite"
      dur="80s"
      from="360 150 150"
      to="0 150 150"
    />
  </path>
  </defs>
  <use
    xlink:href="#t1"
    transform="translate(927.18 278.5) rotate(134.14) scale(0.89)"
  />
  <use
    xlink:href="#t1"
    transform="translate(646.57 284.05) rotate(26.06) scale(0.88)"
  />
  <use
    xlink:href="#t1"
    transform="translate(454.85 199.05) rotate(190.5) scale(1.08)"
  />
  <use
    xlink:href="#t1"
    transform="translate(1119.94 86.25) rotate(265.8) scale(0.95)"
  />
  <use
    xlink:href="#t1"
    transform="translate(1038.01 148.45) rotate(248.16) scale(0.88)"
  />
  <use
    xlink:href="#t1"
    transform="translate(162.2 48.88) rotate(167.28) scale(0.85)"
  />
  <use
    xlink:href="#t1"
    transform="translate(892.65 356.14) rotate(50.84) scale(0.81)"
  />
  <use
    xlink:href="#t1"
    transform="translate(838.78 305.35) rotate(108.56) scale(0.98)"
  />
  <use
    xlink:href="#t1"
    transform="translate(310.76 56.99) rotate(260.17) scale(0.81)"
  />
  <use
    xlink:href="#t1"
    transform="translate(36.21 332.62) rotate(241.39) scale(1.13)"
  />
  <use
    xlink:href="#t1"
    transform="translate(977.94 335.98) rotate(16.85) scale(0.99)"
  />
  <use
    xlink:href="#t1"
    transform="translate(549.57 41.92) rotate(25.06) scale(0.94)"
  />
  <use
    xlink:href="#t1"
    transform="translate(277.57 299.8) rotate(42.97) scale(1.11)"
  />
  <use
    xlink:href="#t1"
    transform="translate(1195.8 89.92) rotate(154.78) scale(1)"
  />
  <use
    xlink:href="#t1"
    transform="translate(962.3 115.01) rotate(136.91) scale(0.85)"
  />
  <use
    xlink:href="#t1"
    transform="translate(1061.42 120) rotate(349.9) scale(1.12)"
  />
  <use
    xlink:href="#t1"
    transform="translate(96.06 207.84) rotate(257.76) scale(0.82)"
  />
  <use
    xlink:href="#t1"
    transform="translate(1168.59 334.61) rotate(136.59) scale(1.07)"
  />
  <use
    xlink:href="#t1"
    transform="translate(152.29 42.65) rotate(281.87) scale(1.11)"
  />
  <use
    xlink:href="#t1"
    transform="translate(107.03 344.97) rotate(166.57) scale(0.91)"
  />
  <use
    xlink:href="#c1"
    transform="translate(391.33 291.63) rotate(268.68) scale(0.84)"
  />
  <use
    xlink:href="#c1"
    transform="translate(775.54 5.83) rotate(172.21) scale(0.81)"
  />
  <use
    xlink:href="#c1"
    transform="translate(680.14 86.45) rotate(224.88) scale(1.13)"
  />
  <use
    xlink:href="#c1"
    transform="translate(1040.2 73.85) rotate(225.63) scale(0.97)"
  />
  <use
    xlink:href="#c1"
    transform="translate(900.54 97.74) rotate(233.89) scale(1.05)"
  />
  <use
    xlink:href="#c1"
    transform="translate(381.51 118.5) rotate(139.09) scale(0.81)"
  />
  <use
    xlink:href="#c1"
    transform="translate(135.13 345.37) rotate(297.92) scale(0.96)"
  />
  <use
    xlink:href="#c1"
    transform="translate(317.04 245.32) rotate(115.51) scale(0.82)"
  />
  <use
    xlink:href="#c1"
    transform="translate(74.21 9.24) rotate(6.01) scale(0.8)"
  />
  <use
    xlink:href="#c1"
    transform="translate(191.98 102.72) rotate(47.33) scale(0.83)"
  />
  <use
    xlink:href="#c1"
    transform="translate(761.37 16.71) rotate(296.52) scale(0.83)"
  />
  <use
    xlink:href="#c1"
    transform="translate(1095.06 276.85) rotate(195.87) scale(1.12)"
  />
  <use
    xlink:href="#c1"
    transform="translate(501.15 395.01) rotate(151.84) scale(1.12)"
  />
  <use
    xlink:href="#c1"
    transform="translate(891 124.5) rotate(230.89) scale(0.91)"
  />
  <use
    xlink:href="#c1"
    transform="translate(745.15 41.84) rotate(246.1) scale(0.91)"
  />
  <use
    xlink:href="#c1"
    transform="translate(786.3 256.63) rotate(196.55) scale(0.88)"
  />
  <use
    xlink:href="#c1"
    transform="translate(505.05 283.17) rotate(230.47) scale(0.98)"
  />
  <use
    xlink:href="#c1"
    transform="translate(806.78 23.18) rotate(15.22) scale(0.98)"
  />
  <use
    xlink:href="#c1"
    transform="translate(1199.81 89.2) rotate(220.4) scale(0.8)"
  />
  <use
    xlink:href="#c1"
    transform="translate(454.95 275.01) rotate(105.7) scale(0.9)"
  />
  <use
    xlink:href="#l1"
    transform="translate(932.37 68.11) rotate(129.75) scale(0.96)"
  />
  <use
    xlink:href="#l1"
    transform="translate(1114.6 385.65) rotate(260.6) scale(1.16)"
  />
  <use
    xlink:href="#l1"
    transform="translate(264.79 233.74) rotate(0.25) scale(1.13)"
  />
  <use
    xlink:href="#l1"
    transform="translate(759.24 142.97) rotate(169.22) scale(0.88)"
  />
  <use
    xlink:href="#l1"
    transform="translate(1028.32 135.31) rotate(309.19) scale(1.11)"
  />
  <use
    xlink:href="#l1"
    transform="translate(894.24 268.05) rotate(112.08) scale(0.91)"
  />
  <use
    xlink:href="#l1"
    transform="translate(879.07 223.92) rotate(128.52) scale(1.17)"
  />
  <use
    xlink:href="#l1"
    transform="translate(404.03 335.86) rotate(9.38) scale(0.84)"
  />
  <use
    xlink:href="#l1"
    transform="translate(444.49 286.63) rotate(201.94) scale(1)"
  />
  <use
    xlink:href="#l1"
    transform="translate(446.81 388.73) rotate(225.55) scale(1.02)"
  />
  <use
    xlink:href="#l1"
    transform="translate(784.67 116.54) rotate(36.66) scale(0.89)"
  />
  <use
    xlink:href="#l1"
    transform="translate(738.64 179.41) rotate(69.14) scale(1.13)"
  />
  <use
    xlink:href="#l1"
    transform="translate(101.89 188.51) rotate(1.28) scale(0.99)"
  />
  <use
    xlink:href="#l1"
    transform="translate(66.55 218.73) rotate(82.26) scale(1.1)"
  />
  <use
    xlink:href="#l1"
    transform="translate(352.98 124.38) rotate(4.96) scale(0.93)"
  />
  <use
    xlink:href="#l1"
    transform="translate(64.2 322.3) rotate(224.18) scale(0.91)"
  />
  <use
    xlink:href="#l1"
    transform="translate(1051.46 47.3) rotate(49.19) scale(1.13)"
  />
  <use
    xlink:href="#l1"
    transform="translate(1095.49 96.66) rotate(137.03) scale(1.12)"
  />
  <use
    xlink:href="#l1"
    transform="translate(357.25 73.81) rotate(306.51) scale(1.04)"
  />
  <use
    xlink:href="#l1"
    transform="translate(333.21 271.93) rotate(224.46) scale(0.87)"
  />
  <use
    xlink:href="#t2"
    transform="translate(731.79 61.83) rotate(334.63) scale(0.95)"
  />
  <use
    xlink:href="#t2"
    transform="translate(579.12 336.73) rotate(266.25) scale(0.86)"
  />
  <use
    xlink:href="#t2"
    transform="translate(980.97 3.6) rotate(332.73) scale(1.08)"
  />
  <use
    xlink:href="#t2"
    transform="translate(524.09 174.01) rotate(23.04) scale(0.97)"
  />
  <use
    xlink:href="#t2"
    transform="translate(475.46 241.82) rotate(267.2) scale(1.16)"
  />
  <use
    xlink:href="#t2"
    transform="translate(446.49 63.17) rotate(144.42) scale(0.94)"
  />
  <use
    xlink:href="#t2"
    transform="translate(114.73 331.75) rotate(351.67) scale(1.02)"
  />
  <use
    xlink:href="#t2"
    transform="translate(257.24 351.41) rotate(144.76) scale(0.97)"
  />
  <use
    xlink:href="#t2"
    transform="translate(328.24 45.75) rotate(311.93) scale(1.17)"
  />
  <use
    xlink:href="#t2"
    transform="translate(572.39 9.47) rotate(156.72) scale(0.89)"
  />
  <use
    xlink:href="#t2"
    transform="translate(485.9 207.47) rotate(220.3) scale(1.1)"
  />
  <use
    xlink:href="#t2"
    transform="translate(442.49 20.11) rotate(109.86) scale(1.07)"
  />
  <use
    xlink:href="#t2"
    transform="translate(1100.25 83.73) rotate(246.85) scale(0.97)"
  />
  <use
    xlink:href="#t2"
    transform="translate(875.1 218.72) rotate(270.6) scale(1.11)"
  />
  <use
    xlink:href="#t2"
    transform="translate(243.41 324.86) rotate(307.94) scale(1.09)"
  />
  <use
    xlink:href="#t2"
    transform="translate(624.28 21.49) rotate(303.2) scale(0.8)"
  />
  <use
    xlink:href="#t2"
    transform="translate(44.98 12.28) rotate(254.46) scale(1.03)"
  />
  <use
    xlink:href="#t2"
    transform="translate(832.27 301.03) rotate(47.67) scale(1.09)"
  />
  <use
    xlink:href="#t2"
    transform="translate(39.64 135.39) rotate(359.61) scale(1.01)"
  />
  <use
    xlink:href="#t2"
    transform="translate(1112.23 65.11) rotate(75.81) scale(1.06)"
  />
  <use
    xlink:href="#c2"
    transform="translate(383.17 311.88) rotate(341.74) scale(0.91)"
  />
  <use
    xlink:href="#c2"
    transform="translate(1175.42 328.1) rotate(44.54) scale(0.98)"
  />
  <use
    xlink:href="#c2"
    transform="translate(1178.67 137.37) rotate(5.61) scale(0.8)"
  />
  <use
    xlink:href="#c2"
    transform="translate(115.07 244.79) rotate(79.3) scale(0.85)"
  />
  <use
    xlink:href="#c2"
    transform="translate(693.32 129.03) rotate(255.63) scale(0.97)"
  />
  <use
    xlink:href="#c2"
    transform="translate(1135.39 179.39) rotate(311) scale(0.86)"
  />
  <use
    xlink:href="#c2"
    transform="translate(469.74 285.43) rotate(105.79) scale(0.86)"
  />
  <use
    xlink:href="#c2"
    transform="translate(366.96 280.09) rotate(335.07) scale(0.82)"
  />
  <use
    xlink:href="#c2"
    transform="translate(1157.28 10.9) rotate(191.14) scale(1.19)"
  />
  <use
    xlink:href="#c2"
    transform="translate(997.3 282.29) rotate(24.25) scale(1.08)"
  />
  <use
    xlink:href="#c2"
    transform="translate(406.69 395.66) rotate(331.43) scale(0.91)"
  />
  <use
    xlink:href="#c2"
    transform="translate(223.11 304.25) rotate(285.44) scale(1.07)"
  />
  <use
    xlink:href="#c2"
    transform="translate(101.92 127.58) rotate(137.35) scale(1.03)"
  />
  <use
    xlink:href="#c2"
    transform="translate(198.09 344.37) rotate(107.63) scale(1.18)"
  />
  <use
    xlink:href="#c2"
    transform="translate(295.12 343.46) rotate(262.93) scale(0.99)"
  />
  <use
    xlink:href="#c2"
    transform="translate(232.65 126.54) rotate(340.69) scale(1.03)"
  />
  <use
    xlink:href="#c2"
    transform="translate(1137.9 148.52) rotate(20.69) scale(0.87)"
  />
  <use
    xlink:href="#c2"
    transform="translate(414.92 360.59) rotate(164.72) scale(0.96)"
  />
  <use
    xlink:href="#c2"
    transform="translate(627.94 56.51) rotate(335.8) scale(1.07)"
  />
  <use
    xlink:href="#c2"
    transform="translate(237.05 358.19) rotate(322.74) scale(0.94)"
  />
  <use
    xlink:href="#l2"
    transform="translate(445.29 195.55) rotate(170.09) scale(1.12)"
  />
  <use
    xlink:href="#l2"
    transform="translate(1167.15 19.09) rotate(94.65) scale(1.14)"
  />
  <use
    xlink:href="#l2"
    transform="translate(1035.21 294.68) rotate(172.8) scale(0.93)"
  />
  <use
    xlink:href="#l2"
    transform="translate(1017.34 128.1) rotate(175.6) scale(1.11)"
  />
  <use
    xlink:href="#l2"
    transform="translate(1126.46 137.84) rotate(320.53) scale(1.06)"
  />
  <use
    xlink:href="#l2"
    transform="translate(988.54 175.53) rotate(284.24) scale(0.99)"
  />
  <use
    xlink:href="#l2"
    transform="translate(947.72 209.35) rotate(120.09) scale(0.84)"
  />
  <use
    xlink:href="#l2"
    transform="translate(217.19 356.01) rotate(107.35) scale(1.13)"
  />
  <use
    xlink:href="#l2"
    transform="translate(574.93 49.25) rotate(28.69) scale(0.95)"
  />
  <use
    xlink:href="#l2"
    transform="translate(884.28 228.89) rotate(49.1) scale(1.16)"
  />
  <use
    xlink:href="#l2"
    transform="translate(860.82 285.36) rotate(212.18) scale(1.04)"
  />
  <use
    xlink:href="#l2"
    transform="translate(1131.5 391.56) rotate(146.86) scale(1.15)"
  />
  <use
    xlink:href="#l2"
    transform="translate(902.65 140.39) rotate(5.7) scale(1.1)"
  />
  <use
    xlink:href="#l2"
    transform="translate(547.44 395.33) rotate(8.94) scale(1.17)"
  />
  <use
    xlink:href="#l2"
    transform="translate(673.24 99.49) rotate(236.87) scale(0.95)"
  />
  <use
    xlink:href="#l2"
    transform="translate(671.32 295.92) rotate(155.52) scale(1.1)"
  />
  <use
    xlink:href="#l2"
    transform="translate(788.89 137.56) rotate(303.35) scale(1.04)"
  />
  <use
    xlink:href="#l2"
    transform="translate(353.87 185.16) rotate(173.66) scale(0.87)"
  />
  <use
    xlink:href="#l2"
    transform="translate(992.95 79.61) rotate(80.38) scale(1.08)"
  />
  <use
    xlink:href="#l2"
    transform="translate(585.87 227.5) rotate(349.42) scale(0.94)"
  />
  <use
    xlink:href="#t3"
    transform="translate(725.52 216.26) rotate(342.71) scale(0.83)"
  />
  <use
    xlink:href="#t3"
    transform="translate(1162.25 389.36) rotate(212.86) scale(1.17)"
  />
  <use
    xlink:href="#t3"
    transform="translate(729.09 315.53) rotate(315.15) scale(1.02)"
  />
  <use
    xlink:href="#t3"
    transform="translate(4.21 103.43) rotate(278.21) scale(0.82)"
  />
  <use
    xlink:href="#t3"
    transform="translate(1052.68 331.4) rotate(275) scale(1.04)"
  />
  <use
    xlink:href="#t3"
    transform="translate(552.46 389.33) rotate(141.24) scale(0.84)"
  />
  <use
    xlink:href="#t3"
    transform="translate(754.29 73.33) rotate(0.67) scale(0.86)"
  />
  <use
    xlink:href="#t3"
    transform="translate(123.95 362.88) rotate(306.56) scale(0.87)"
  />
  <use
    xlink:href="#t3"
    transform="translate(1027.28 20.56) rotate(314.93) scale(1.07)"
  />
  <use
    xlink:href="#t3"
    transform="translate(170.23 184.08) rotate(159.25) scale(1.03)"
  />
  <use
    xlink:href="#t3"
    transform="translate(38.93 90.62) rotate(53.3) scale(0.92)"
  />
  <use
    xlink:href="#t3"
    transform="translate(172.61 213.54) rotate(91.02) scale(1.15)"
  />
  <use
    xlink:href="#t3"
    transform="translate(869.16 354.42) rotate(110.44) scale(1.06)"
  />
  <use
    xlink:href="#t3"
    transform="translate(59.4 73.16) rotate(203.05) scale(1)"
  />
  <use
    xlink:href="#t3"
    transform="translate(7.04 36) rotate(272.51) scale(1.16)"
  />
  <use
    xlink:href="#t3"
    transform="translate(581.39 69.82) rotate(122.78) scale(1.05)"
  />
  <use
    xlink:href="#t3"
    transform="translate(919.08 241.81) rotate(91.65) scale(0.88)"
  />
  <use
    xlink:href="#t3"
    transform="translate(1010.89 317.77) rotate(82.06) scale(0.86)"
  />
  <use
    xlink:href="#t3"
    transform="translate(828.21 188.1) rotate(29.16) scale(1.18)"
  />
  <use
    xlink:href="#t3"
    transform="translate(835.51 364.94) rotate(262.45) scale(1.19)"
  />
  <use
    xlink:href="#c3"
    transform="translate(675.01 316.52) rotate(202.26) scale(0.9)"
  />
  <use
    xlink:href="#c3"
    transform="translate(1144.31 91.04) rotate(348.51) scale(0.91)"
  />
  <use
    xlink:href="#c3"
    transform="translate(101.61 138.63) rotate(147.49) scale(0.89)"
  />
  <use
    xlink:href="#c3"
    transform="translate(411.69 216.44) rotate(158.96) scale(0.89)"
  />
  <use
    xlink:href="#c3"
    transform="translate(825.02 331.98) rotate(74.18) scale(1.16)"
  />
  <use
    xlink:href="#c3"
    transform="translate(952.58 99) rotate(288.01) scale(1.12)"
  />
  <use
    xlink:href="#c3"
    transform="translate(83.38 187.57) rotate(27.54) scale(1.12)"
  />
  <use
    xlink:href="#c3"
    transform="translate(1185.21 306.42) rotate(271.9) scale(0.99)"
  />
  <use
    xlink:href="#c3"
    transform="translate(417.23 120.53) rotate(121.67) scale(1.12)"
  />
  <use
    xlink:href="#c3"
    transform="translate(1184.36 53.54) rotate(39.17) scale(1.12)"
  />
  <use
    xlink:href="#c3"
    transform="translate(609.78 169.58) rotate(89.9) scale(1.18)"
  />
  <use
    xlink:href="#c3"
    transform="translate(1066.17 210.42) rotate(25.52) scale(1.17)"
  />
  <use
    xlink:href="#c3"
    transform="translate(1152.52 143.48) rotate(80.83) scale(0.96)"
  />
  <use
    xlink:href="#c3"
    transform="translate(681.96 265.96) rotate(102.93) scale(1.02)"
  />
  <use
    xlink:href="#c3"
    transform="translate(527.66 217.1) rotate(289.27) scale(0.93)"
  />
  <use
    xlink:href="#c3"
    transform="translate(39.34 98.7) rotate(346.67) scale(1.04)"
  />
  <use
    xlink:href="#c3"
    transform="translate(572.8 39.12) rotate(17.19) scale(1.06)"
  />
  <use
    xlink:href="#c3"
    transform="translate(281.03 178.39) rotate(227.88) scale(0.81)"
  />
  <use
    xlink:href="#c3"
    transform="translate(209.45 119.23) rotate(52.12) scale(1.01)"
  />
  <use
    xlink:href="#c3"
    transform="translate(543.81 2.37) rotate(57.83) scale(0.94)"
  />
  <use
    xlink:href="#l3"
    transform="translate(987.88 84.81) rotate(289.72) scale(1.12)"
  />
  <use
    xlink:href="#l3"
    transform="translate(500.63 104.95) rotate(54.9) scale(0.95)"
  />
  <use
    xlink:href="#l3"
    transform="translate(871.52 39.76) rotate(61.83) scale(1.13)"
  />
  <use
    xlink:href="#l3"
    transform="translate(660.65 379.82) rotate(209.82) scale(1.03)"
  />
  <use
    xlink:href="#l3"
    transform="translate(144.11 381) rotate(27.78) scale(0.9)"
  />
  <use
    xlink:href="#l3"
    transform="translate(848.21 29.46) rotate(343.66) scale(1.15)"
  />
  <use
    xlink:href="#l3"
    transform="translate(474.1 35.15) rotate(211.63) scale(0.86)"
  />
  <use
    xlink:href="#l3"
    transform="translate(253.46 250.09) rotate(9.55) scale(0.82)"
  />
  <use
    xlink:href="#l3"
    transform="translate(326.88 243.65) rotate(255.75) scale(0.83)"
  />
  <use
    xlink:href="#l3"
    transform="translate(275.48 273.45) rotate(62.63) scale(1.05)"
  />
  <use
    xlink:href="#l3"
    transform="translate(281.77 339.76) rotate(190.28) scale(1.08)"
  />
  <use
    xlink:href="#l3"
    transform="translate(144.21 267.12) rotate(27.66) scale(0.9)"
  />
  <use
    xlink:href="#l3"
    transform="translate(1029.94 79.19) rotate(162.91) scale(1.06)"
  />
  <use
    xlink:href="#l3"
    transform="translate(256.87 115.95) rotate(338.13) scale(0.83)"
  />
  <use
    xlink:href="#l3"
    transform="translate(1056.24 282.74) rotate(128.06) scale(0.9)"
  />
  <use
    xlink:href="#l3"
    transform="translate(529.81 378.82) rotate(32.43) scale(1.1)"
  />
  <use
    xlink:href="#l3"
    transform="translate(650.18 140.35) rotate(48.7) scale(0.94)"
  />
  <use
    xlink:href="#l3"
    transform="translate(14.54 49.7) rotate(59.5) scale(1.03)"
  />
  <use
    xlink:href="#l3"
    transform="translate(842.95 228.79) rotate(203.21) scale(0.83)"
  />
  <use
    xlink:href="#l3"
    transform="translate(1063.93 353.37) rotate(333.86) scale(0.89)"
  />
  <text
    x="600"
    y="200"
    font-family="courier new, courier, monospace"
    font-weight="bold"
    font-size="120"
    fill="black"
    text-anchor="middle"
    alignment-baseline="middle"
  >fa()</text>
</svg>
