<svg
  xmlns="http://www.w3.org/2000/svg"
  xmlns:xlink="http://www.w3.org/1999/xlink"
  viewBox="0 0 1200 800"
>
  <title>Tech Track</title>
  <style>
    :root { color: #feca2f; background-color: currentcolor; max-width: 100% }
    body { margin: 0 }
    path { fill: none; stroke: hsl(45, 99%, 67%); stroke-width: 5px; stroke-linecap: round }
    path:nth-child(odd) { stroke: hsl(45, 99%, 52%) }
  </style>
  <rect width="100%" height="100%" fill="currentcolor"/>
  <defs>
  <path id="t1" d="M7.76,10.89c-1.5,2.18-2.77,4.5-4.27,6.68-1.12,1.63-2.22,4-.86,5.41a4.34,4.34,0,0,0,2.25,1,130.06,130.06,0,0,0,24.85,3.36,2.65,2.65,0,0,0,2-.45,2.5,2.5,0,0,0,.51-2c-.43-7.43-5.32-13.76-10-19.55C21.15,4,20,2.67,18.4,2.18a5.71,5.71,0,0,0-5,1.19,16.87,16.87,0,0,0-3.43,4c-1.43,2.11-.79,1.36-2.23,3.47">
    <animate
      attributeName="opacity"
      repeatCount="indefinite"
      dur="20s"
      values="1;1;1;0;0;0;0;0;1"
    />
    <animateTransform
      attributeName="transform"
      type="rotate"
      repeatCount="indefinite"
      dur="80s"
      from="360 150 150"
      to="0 150 150"
    />
  </path>
  <path id="c1" d="M12.36,11.18a1.16,1.16,0,0,0-1.63-.11,3,3,0,0,0-.87,1.58c-.61,2.11-.78,4.58.55,6.32,1.71,2.23,5.36,2.21,7.57.46s3.15-4.69,3.26-7.5a13.18,13.18,0,0,0-1.89-7.67A9.12,9.12,0,0,0,12.85,0,9.93,9.93,0,0,0,4.51,3.82,20.08,20.08,0,0,0,.67,12.45c-.86,3.8-1.14,8,.63,11.44,2.31,4.55,7.64,6.85,12.72,7.3a13.12,13.12,0,0,0,7.81-1.32,15.12,15.12,0,0,0,5-5.68c2.11-3.59,3.87-7.56,3.88-11.73S28.64,3.9,24.84,2.21">
    <animate
      attributeName="opacity"
      repeatCount="indefinite"
      dur="20s"
      values="0;1;1;1;0;0;0;0;0"
    />
    <animateTransform
      attributeName="transform"
      type="rotate"
      repeatCount="indefinite"
      dur="80s"
      from="360 150 150"
      to="0 150 150"
    />
  </path>
  <path id="l1" d="M2.07,10.63a6,6,0,0,0,2.89,6A6,6,0,0,0,11.59,16c3.64-3.14,2.84-10.08,7.21-12.06,2.83-1.29,6.15.49,8.31,2.72s3.86,5,6.55,6.59a9.31,9.31,0,0,0,10.47-1A9.31,9.31,0,0,0,46.62,2">
    <animate
      attributeName="opacity"
      repeatCount="indefinite"
      dur="20s"
      values="0;0;1;1;1;0;0;0;0"
    />
    <animateTransform
      attributeName="transform"
      type="rotate"
      repeatCount="indefinite"
      dur="80s"
      from="360 150 150"
      to="0 150 150"
    />
  </path>
  <path id="t2" d="M23.42,19c-1.93-6-2.36-7.18-4.09-13.2-.54-1.88-1.82-4.21-3.71-3.74a3.78,3.78,0,0,0-1.45.88,120.75,120.75,0,0,0-9.68,9.15c-1.38,1.45-2.82,3.27-2.41,5.23a6.22,6.22,0,0,0,2.63,3.34,73,73,0,0,0,15.38,9.16c2,.87,4.64,1.5,6-.18s.26-4-1-5.75S24.06,21,23.42,19Z">
    <animate
      attributeName="opacity"
      repeatCount="indefinite"
      dur="20s"
      values="0;0;0;1;1;1;0;0;0"
    />
    <animateTransform
      attributeName="transform"
      type="rotate"
      repeatCount="indefinite"
      dur="80s"
      from="360 150 150"
      to="0 150 150"
    />
  </path>
  <path id="c2" d="M13.44,10.08a2.92,2.92,0,0,0-4.15-.66C7.93,10.56,8,12.75,8.79,14.32a6.86,6.86,0,0,0,8.38,3,7.23,7.23,0,0,0,4.17-8A11.85,11.85,0,0,0,18.15,4,11.42,11.42,0,0,0,12.33.14a9.79,9.79,0,0,0-7.4,2C1.72,4.41-.71,8.37.19,12.21a13.84,13.84,0,0,0,1.85,4,30.12,30.12,0,0,0,5,6.55A11.53,11.53,0,0,0,14.33,26,12.35,12.35,0,0,0,22,23.15c4.33-3.33,7.31-9,5.86-14.3">
    <animate
      attributeName="opacity"
      repeatCount="indefinite"
      dur="20s"
      values="0;0;0;0;1;1;1;0;0"
    />
    <animateTransform
      attributeName="transform"
      type="rotate"
      repeatCount="indefinite"
      dur="80s"
      from="360 150 150"
      to="0 150 150"
    />
  </path>
  <path id="l2" d="M85.7,8.9c.33-3.32-2.7-6.31-6-6.81s-6.62,1-9.21,3.12S65.89,10,63.64,12.49a9.41,9.41,0,0,1-4.58,3.19c-3.47.78-6.65-2.08-8.76-4.94s-4.2-6.21-7.64-7.11c-3.79-1-7.67,1.51-10.15,4.54s-4.16,6.7-6.93,9.47S18.31,22.12,15,20.06a12.07,12.07,0,0,1-3.69-4.46L7.93,9.85A7.14,7.14,0,0,0,5.39,6.91C4.22,6.3,2.5,6.56,2,7.78">
    <animate
      attributeName="opacity"
      repeatCount="indefinite"
      dur="20s"
      values="0;0;0;0;0;1;1;1;0"
    />
    <animateTransform
      attributeName="transform"
      type="rotate"
      repeatCount="indefinite"
      dur="80s"
      from="360 150 150"
      to="0 150 150"
    />
  </path>
  <path id="t3" d="M16.58,2.36A68.52,68.52,0,0,0,5.33,2.14,4.14,4.14,0,0,0,2.7,3C1.38,4.23,2.18,6.42,3,8l8.1,14.87c.65,1.2,1.43,2.5,2.75,2.87a4.89,4.89,0,0,0,3.37-.69A42.36,42.36,0,0,0,32.45,12.46a8.56,8.56,0,0,0,1.79-3.54,3.37,3.37,0,0,0-1.38-3.5A5,5,0,0,0,31,4.92C25.13,4.1,22.51,2.9,16.58,2.36Z">
    <animate
      attributeName="opacity"
      repeatCount="indefinite"
      dur="20s"
      values="1;0;0;0;0;0;1;1;1"
    />
    <animateTransform
      attributeName="transform"
      type="rotate"
      repeatCount="indefinite"
      dur="80s"
      from="360 150 150"
      to="0 150 150"
    />
  </path>
  <path id="c3" d="M16.66,19.31c0-2.1-2.84-3.38-4.68-2.35s-2.46,3.52-1.85,5.54c1.12,3.7,5.8,5.64,9.41,4.27s5.81-5.44,5.52-9.3a12.82,12.82,0,0,0-6-9.46A12.7,12.7,0,0,0,8,6.38,12.65,12.65,0,0,0,.54,15.12a20.73,20.73,0,0,0,.75,11.75,17.2,17.2,0,0,0,2.43,4.92c3.94,5.26,11.55,6.36,18,5a17.51,17.51,0,0,0,7.55-3.24,15.27,15.27,0,0,0,4.9-8.16A20.76,20.76,0,0,0,18.61,0">
    <animate
      attributeName="opacity"
      repeatCount="indefinite"
      dur="20s"
      values="1;0;0;0;0;0;0;1;1"
    />
    <animateTransform
      attributeName="transform"
      type="rotate"
      repeatCount="indefinite"
      dur="80s"
      from="360 150 150"
      to="0 150 150"
    />
  </path>
  <path id="l3" d="M2,19.86c2.37-3.51,2.92-9.08,7-10,2.51-.58,5,1.1,6.65,3.1s2.78,4.4,4.69,6.14a10.34,10.34,0,0,0,13.12.34c3.4-2.8,4.55-7.42,6.65-11.29S46.72.68,50.74,2.48c5.2,2.33,4.63,11.25,9.95,13.29a8.22,8.22,0,0,0,6.09-.56,18.15,18.15,0,0,0,9.57-9.86">
    <animate
      attributeName="opacity"
      repeatCount="indefinite"
      dur="20s"
      values="1;1;0;0;0;0;0;0;1"
    />
    <animateTransform
      attributeName="transform"
      type="rotate"
      repeatCount="indefinite"
      dur="80s"
      from="360 150 150"
      to="0 150 150"
    />
  </path>
  </defs>
  <use
    xlink:href="#t1"
    transform="translate(162.36 607.94) rotate(2.4) scale(0.84)"
  />
  <use
    xlink:href="#t1"
    transform="translate(7.43 709.82) rotate(193.76) scale(1.19)"
  />
  <use
    xlink:href="#t1"
    transform="translate(256.18 793.74) rotate(110.09) scale(1.07)"
  />
  <use
    xlink:href="#t1"
    transform="translate(617.22 5.55) rotate(314.39) scale(0.83)"
  />
  <use
    xlink:href="#t1"
    transform="translate(347.77 397.61) rotate(81.32) scale(1.09)"
  />
  <use
    xlink:href="#t1"
    transform="translate(779.64 646.35) rotate(175.72) scale(0.87)"
  />
  <use
    xlink:href="#t1"
    transform="translate(459.76 261.66) rotate(233.15) scale(0.87)"
  />
  <use
    xlink:href="#t1"
    transform="translate(555.15 755.28) rotate(102.76) scale(1.18)"
  />
  <use
    xlink:href="#t1"
    transform="translate(1104.39 334.8) rotate(48.51) scale(0.87)"
  />
  <use
    xlink:href="#t1"
    transform="translate(991.59 637.03) rotate(184.69) scale(0.87)"
  />
  <use
    xlink:href="#t1"
    transform="translate(795.03 357.51) rotate(223.35) scale(1.17)"
  />
  <use
    xlink:href="#t1"
    transform="translate(982.56 23.87) rotate(270.2) scale(0.96)"
  />
  <use
    xlink:href="#t1"
    transform="translate(1074.2 180.63) rotate(303.89) scale(0.81)"
  />
  <use
    xlink:href="#t1"
    transform="translate(151.15 16.23) rotate(266.5) scale(1.17)"
  />
  <use
    xlink:href="#t1"
    transform="translate(1180.18 315.35) rotate(213.98) scale(0.87)"
  />
  <use
    xlink:href="#t1"
    transform="translate(517.32 434.3) rotate(59.57) scale(1.18)"
  />
  <use
    xlink:href="#t1"
    transform="translate(1171.81 663.09) rotate(339.31) scale(0.96)"
  />
  <use
    xlink:href="#t1"
    transform="translate(729.27 368.12) rotate(2.11) scale(0.83)"
  />
  <use
    xlink:href="#t1"
    transform="translate(704.99 115.09) rotate(38.03) scale(1.01)"
  />
  <use
    xlink:href="#t1"
    transform="translate(862.38 791.19) rotate(21.03) scale(0.95)"
  />
  <use
    xlink:href="#c1"
    transform="translate(1009.27 520.36) rotate(333.75) scale(0.99)"
  />
  <use
    xlink:href="#c1"
    transform="translate(377.41 517.3) rotate(6.26) scale(1.16)"
  />
  <use
    xlink:href="#c1"
    transform="translate(884.57 679.38) rotate(103.59) scale(0.91)"
  />
  <use
    xlink:href="#c1"
    transform="translate(22.68 716.64) rotate(204.79) scale(0.91)"
  />
  <use
    xlink:href="#c1"
    transform="translate(1043.55 401.52) rotate(239.87) scale(0.89)"
  />
  <use
    xlink:href="#c1"
    transform="translate(979.81 467.94) rotate(28.15) scale(0.85)"
  />
  <use
    xlink:href="#c1"
    transform="translate(777.36 22.33) rotate(113.74) scale(1.15)"
  />
  <use
    xlink:href="#c1"
    transform="translate(1113.32 194.66) rotate(42.5) scale(1.16)"
  />
  <use
    xlink:href="#c1"
    transform="translate(888.37 650.09) rotate(292.57) scale(0.92)"
  />
  <use
    xlink:href="#c1"
    transform="translate(767.75 392.91) rotate(92.49) scale(1.11)"
  />
  <use
    xlink:href="#c1"
    transform="translate(494.05 623.56) rotate(250.32) scale(1)"
  />
  <use
    xlink:href="#c1"
    transform="translate(179.29 7.3) rotate(38.72) scale(1.07)"
  />
  <use
    xlink:href="#c1"
    transform="translate(847 139.58) rotate(168.09) scale(1.06)"
  />
  <use
    xlink:href="#c1"
    transform="translate(12.57 248.86) rotate(170.05) scale(0.95)"
  />
  <use
    xlink:href="#c1"
    transform="translate(220.27 685.54) rotate(247.41) scale(1.18)"
  />
  <use
    xlink:href="#c1"
    transform="translate(450.47 468.3) rotate(139.52) scale(0.8)"
  />
  <use
    xlink:href="#c1"
    transform="translate(278.9 42.05) rotate(31.19) scale(0.96)"
  />
  <use
    xlink:href="#c1"
    transform="translate(3.33 247.02) rotate(96.1) scale(0.84)"
  />
  <use
    xlink:href="#c1"
    transform="translate(464.77 234.53) rotate(252.15) scale(1.06)"
  />
  <use
    xlink:href="#c1"
    transform="translate(731.13 669.19) rotate(132.8) scale(0.92)"
  />
  <use
    xlink:href="#l1"
    transform="translate(563.11 497.42) rotate(139.28) scale(0.99)"
  />
  <use
    xlink:href="#l1"
    transform="translate(884.11 62.69) rotate(308.38) scale(0.82)"
  />
  <use
    xlink:href="#l1"
    transform="translate(503.11 514.5) rotate(316.52) scale(1.01)"
  />
  <use
    xlink:href="#l1"
    transform="translate(1019.44 668.17) rotate(223.98) scale(1.05)"
  />
  <use
    xlink:href="#l1"
    transform="translate(404.55 579.76) rotate(47.2) scale(1.13)"
  />
  <use
    xlink:href="#l1"
    transform="translate(1121.08 242.57) rotate(276.68) scale(1)"
  />
  <use
    xlink:href="#l1"
    transform="translate(588.3 616.31) rotate(319.84) scale(1.1)"
  />
  <use
    xlink:href="#l1"
    transform="translate(652.47 209.29) rotate(18.52) scale(1.1)"
  />
  <use
    xlink:href="#l1"
    transform="translate(939.51 136.3) rotate(29.97) scale(1.07)"
  />
  <use
    xlink:href="#l1"
    transform="translate(316.97 11.86) rotate(329.6) scale(0.98)"
  />
  <use
    xlink:href="#l1"
    transform="translate(196.08 672.2) rotate(349.37) scale(0.95)"
  />
  <use
    xlink:href="#l1"
    transform="translate(907.74 558.85) rotate(60.37) scale(0.84)"
  />
  <use
    xlink:href="#l1"
    transform="translate(682.86 689.99) rotate(275.51) scale(1.08)"
  />
  <use
    xlink:href="#l1"
    transform="translate(1010.84 245.86) rotate(113.26) scale(1.16)"
  />
  <use
    xlink:href="#l1"
    transform="translate(892.3 205.23) rotate(274.01) scale(0.83)"
  />
  <use
    xlink:href="#l1"
    transform="translate(286.03 495.26) rotate(97.55) scale(0.83)"
  />
  <use
    xlink:href="#l1"
    transform="translate(800 35.31) rotate(76.22) scale(0.95)"
  />
  <use
    xlink:href="#l1"
    transform="translate(178.03 238.5) rotate(22.33) scale(1.14)"
  />
  <use
    xlink:href="#l1"
    transform="translate(421.07 435.44) rotate(113.78) scale(0.89)"
  />
  <use
    xlink:href="#l1"
    transform="translate(835.43 315.69) rotate(111.53) scale(1.01)"
  />
  <use
    xlink:href="#t2"
    transform="translate(549.03 579.67) rotate(162.19) scale(1.12)"
  />
  <use
    xlink:href="#t2"
    transform="translate(284.88 236.24) rotate(40.62) scale(1.18)"
  />
  <use
    xlink:href="#t2"
    transform="translate(954.36 219.34) rotate(316.48) scale(0.91)"
  />
  <use
    xlink:href="#t2"
    transform="translate(360.86 240.12) rotate(244.13) scale(1.16)"
  />
  <use
    xlink:href="#t2"
    transform="translate(364.89 361.25) rotate(134.98) scale(1.13)"
  />
  <use
    xlink:href="#t2"
    transform="translate(879.49 784.38) rotate(100.27) scale(0.9)"
  />
  <use
    xlink:href="#t2"
    transform="translate(1126.54 456.61) rotate(10.32) scale(0.97)"
  />
  <use
    xlink:href="#t2"
    transform="translate(449.42 91.01) rotate(185.5) scale(1.08)"
  />
  <use
    xlink:href="#t2"
    transform="translate(707.6 196.88) rotate(210.21) scale(1.08)"
  />
  <use
    xlink:href="#t2"
    transform="translate(488.08 70.06) rotate(291.86) scale(0.9)"
  />
  <use
    xlink:href="#t2"
    transform="translate(199.78 46.34) rotate(215.6) scale(0.89)"
  />
  <use
    xlink:href="#t2"
    transform="translate(977.3 256.39) rotate(206.8) scale(0.98)"
  />
  <use
    xlink:href="#t2"
    transform="translate(1071.83 384.9) rotate(85.77) scale(0.99)"
  />
  <use
    xlink:href="#t2"
    transform="translate(397.48 592.55) rotate(4.5) scale(0.98)"
  />
  <use
    xlink:href="#t2"
    transform="translate(786.33 151.55) rotate(186.07) scale(0.82)"
  />
  <use
    xlink:href="#t2"
    transform="translate(56.6 744.97) rotate(242.31) scale(0.91)"
  />
  <use
    xlink:href="#t2"
    transform="translate(180.24 370.57) rotate(106.61) scale(1.05)"
  />
  <use
    xlink:href="#t2"
    transform="translate(1190.11 615.97) rotate(201.56) scale(0.93)"
  />
  <use
    xlink:href="#t2"
    transform="translate(521.49 133.82) rotate(32.11) scale(1.05)"
  />
  <use
    xlink:href="#t2"
    transform="translate(144.76 282.54) rotate(345.18) scale(0.97)"
  />
  <use
    xlink:href="#c2"
    transform="translate(336.18 467.64) rotate(1.96) scale(0.99)"
  />
  <use
    xlink:href="#c2"
    transform="translate(381.03 135.89) rotate(9.87) scale(1)"
  />
  <use
    xlink:href="#c2"
    transform="translate(21.39 615.82) rotate(206.07) scale(1.11)"
  />
  <use
    xlink:href="#c2"
    transform="translate(237.74 371.6) rotate(254.53) scale(1.12)"
  />
  <use
    xlink:href="#c2"
    transform="translate(440.29 430.69) rotate(138.87) scale(1)"
  />
  <use
    xlink:href="#c2"
    transform="translate(83.58 626.18) rotate(91.26) scale(1.15)"
  />
  <use
    xlink:href="#c2"
    transform="translate(862.74 32.83) rotate(63.98) scale(0.98)"
  />
  <use
    xlink:href="#c2"
    transform="translate(860.81 172.56) rotate(55.52) scale(0.83)"
  />
  <use
    xlink:href="#c2"
    transform="translate(315.43 15.2) rotate(326.94) scale(0.95)"
  />
  <use
    xlink:href="#c2"
    transform="translate(588.93 104.59) rotate(27.94) scale(0.91)"
  />
  <use
    xlink:href="#c2"
    transform="translate(1141.38 710.41) rotate(106.98) scale(1.04)"
  />
  <use
    xlink:href="#c2"
    transform="translate(938.74 467.84) rotate(67.57) scale(1.03)"
  />
  <use
    xlink:href="#c2"
    transform="translate(505.96 734.98) rotate(54.34) scale(1.08)"
  />
  <use
    xlink:href="#c2"
    transform="translate(668.7 254.7) rotate(297.52) scale(0.94)"
  />
  <use
    xlink:href="#c2"
    transform="translate(178.11 697.96) rotate(207.62) scale(1.14)"
  />
  <use
    xlink:href="#c2"
    transform="translate(1134.3 63.18) rotate(41.94) scale(0.86)"
  />
  <use
    xlink:href="#c2"
    transform="translate(995.29 721.43) rotate(355.5) scale(0.85)"
  />
  <use
    xlink:href="#c2"
    transform="translate(246.5 234.8) rotate(218.05) scale(0.94)"
  />
  <use
    xlink:href="#c2"
    transform="translate(95.34 163.44) rotate(280.73) scale(1.06)"
  />
  <use
    xlink:href="#c2"
    transform="translate(1143.18 73.3) rotate(18.98) scale(0.92)"
  />
  <use
    xlink:href="#l2"
    transform="translate(224.68 480.87) rotate(156.39) scale(1)"
  />
  <use
    xlink:href="#l2"
    transform="translate(273.98 466.35) rotate(133.76) scale(0.85)"
  />
  <use
    xlink:href="#l2"
    transform="translate(156.55 291.96) rotate(185.6) scale(0.82)"
  />
  <use
    xlink:href="#l2"
    transform="translate(634.89 571.75) rotate(188.69) scale(1.1)"
  />
  <use
    xlink:href="#l2"
    transform="translate(386.65 362.67) rotate(158.15) scale(0.86)"
  />
  <use
    xlink:href="#l2"
    transform="translate(636.1 296.83) rotate(266.78) scale(1.17)"
  />
  <use
    xlink:href="#l2"
    transform="translate(417.03 52.53) rotate(196.44) scale(0.87)"
  />
  <use
    xlink:href="#l2"
    transform="translate(313.02 578.16) rotate(288.44) scale(0.86)"
  />
  <use
    xlink:href="#l2"
    transform="translate(1188.08 700.73) rotate(314.56) scale(1.18)"
  />
  <use
    xlink:href="#l2"
    transform="translate(808.74 88.53) rotate(51.24) scale(1.17)"
  />
  <use
    xlink:href="#l2"
    transform="translate(255.59 547.39) rotate(332.96) scale(0.86)"
  />
  <use
    xlink:href="#l2"
    transform="translate(62.63 147.14) rotate(38.53) scale(0.98)"
  />
  <use
    xlink:href="#l2"
    transform="translate(937.79 667.8) rotate(98.44) scale(1)"
  />
  <use
    xlink:href="#l2"
    transform="translate(688.72 626.4) rotate(263.63) scale(0.88)"
  />
  <use
    xlink:href="#l2"
    transform="translate(314.21 400.29) rotate(46.89) scale(0.95)"
  />
  <use
    xlink:href="#l2"
    transform="translate(195.83 799.43) rotate(221.42) scale(0.9)"
  />
  <use
    xlink:href="#l2"
    transform="translate(1179.05 171.4) rotate(313.35) scale(1.03)"
  />
  <use
    xlink:href="#l2"
    transform="translate(583.62 47.5) rotate(336.06) scale(1.07)"
  />
  <use
    xlink:href="#l2"
    transform="translate(213.2 351.65) rotate(114.42) scale(1.19)"
  />
  <use
    xlink:href="#l2"
    transform="translate(685.69 161.54) rotate(218.14) scale(0.84)"
  />
  <use
    xlink:href="#t3"
    transform="translate(280.46 297.22) rotate(180.58) scale(0.85)"
  />
  <use
    xlink:href="#t3"
    transform="translate(1004.77 694.19) rotate(229.95) scale(1)"
  />
  <use
    xlink:href="#t3"
    transform="translate(189.94 223.29) rotate(318.79) scale(0.82)"
  />
  <use
    xlink:href="#t3"
    transform="translate(329.24 684.41) rotate(212.14) scale(0.8)"
  />
  <use
    xlink:href="#t3"
    transform="translate(689.09 121.49) rotate(336.87) scale(0.8)"
  />
  <use
    xlink:href="#t3"
    transform="translate(1136.47 542.02) rotate(202.68) scale(1.08)"
  />
  <use
    xlink:href="#t3"
    transform="translate(12.63 497.08) rotate(191.91) scale(0.88)"
  />
  <use
    xlink:href="#t3"
    transform="translate(1158.29 211.72) rotate(266.13) scale(0.88)"
  />
  <use
    xlink:href="#t3"
    transform="translate(456.99 415.99) rotate(195.3) scale(1.02)"
  />
  <use
    xlink:href="#t3"
    transform="translate(912.86 99.85) rotate(121.4) scale(0.93)"
  />
  <use
    xlink:href="#t3"
    transform="translate(1089.23 274.38) rotate(231.89) scale(0.97)"
  />
  <use
    xlink:href="#t3"
    transform="translate(381.19 754.72) rotate(82.88) scale(0.88)"
  />
  <use
    xlink:href="#t3"
    transform="translate(647.44 135.39) rotate(118.98) scale(1.03)"
  />
  <use
    xlink:href="#t3"
    transform="translate(195.81 260.89) rotate(280.28) scale(1.02)"
  />
  <use
    xlink:href="#t3"
    transform="translate(219.14 246.99) rotate(64.35) scale(1.05)"
  />
  <use
    xlink:href="#t3"
    transform="translate(145.75 228.13) rotate(137.56) scale(1.19)"
  />
  <use
    xlink:href="#t3"
    transform="translate(376.32 33.68) rotate(153.88) scale(1.1)"
  />
  <use
    xlink:href="#t3"
    transform="translate(907.66 532.57) rotate(347.31) scale(1.16)"
  />
  <use
    xlink:href="#t3"
    transform="translate(380.09 408.56) rotate(204.12) scale(0.87)"
  />
  <use
    xlink:href="#t3"
    transform="translate(56.88 519.82) rotate(355.88) scale(0.88)"
  />
  <use
    xlink:href="#c3"
    transform="translate(252.88 585.13) rotate(117.12) scale(1.16)"
  />
  <use
    xlink:href="#c3"
    transform="translate(807.32 642.85) rotate(322.84) scale(1.08)"
  />
  <use
    xlink:href="#c3"
    transform="translate(371.8 150.41) rotate(114.19) scale(0.92)"
  />
  <use
    xlink:href="#c3"
    transform="translate(86.26 168.89) rotate(18.3) scale(0.82)"
  />
  <use
    xlink:href="#c3"
    transform="translate(375.88 426.71) rotate(331.51) scale(0.92)"
  />
  <use
    xlink:href="#c3"
    transform="translate(537.62 150.54) rotate(309.13) scale(1.16)"
  />
  <use
    xlink:href="#c3"
    transform="translate(146.23 352.57) rotate(10.32) scale(0.93)"
  />
  <use
    xlink:href="#c3"
    transform="translate(593.44 607.16) rotate(104.25) scale(1.06)"
  />
  <use
    xlink:href="#c3"
    transform="translate(867.6 729.95) rotate(78.77) scale(1.08)"
  />
  <use
    xlink:href="#c3"
    transform="translate(455.47 742.13) rotate(239.51) scale(1.14)"
  />
  <use
    xlink:href="#c3"
    transform="translate(1002.68 506.71) rotate(247.52) scale(0.96)"
  />
  <use
    xlink:href="#c3"
    transform="translate(489.74 10.34) rotate(250.98) scale(0.84)"
  />
  <use
    xlink:href="#c3"
    transform="translate(66.6 587.96) rotate(275.8) scale(1.01)"
  />
  <use
    xlink:href="#c3"
    transform="translate(534.5 687.76) rotate(10.8) scale(1.03)"
  />
  <use
    xlink:href="#c3"
    transform="translate(770.51 650.72) rotate(161.39) scale(0.85)"
  />
  <use
    xlink:href="#c3"
    transform="translate(998.64 419.04) rotate(113.62) scale(0.84)"
  />
  <use
    xlink:href="#c3"
    transform="translate(1129.83 285.37) rotate(276.97) scale(0.93)"
  />
  <use
    xlink:href="#c3"
    transform="translate(930.28 393.04) rotate(296.15) scale(0.89)"
  />
  <use
    xlink:href="#c3"
    transform="translate(199.76 625.8) rotate(57.84) scale(0.92)"
  />
  <use
    xlink:href="#c3"
    transform="translate(841.56 303.26) rotate(72.08) scale(0.98)"
  />
  <use
    xlink:href="#l3"
    transform="translate(124.73 435.16) rotate(318.5) scale(0.99)"
  />
  <use
    xlink:href="#l3"
    transform="translate(191.39 784.44) rotate(280.97) scale(1)"
  />
  <use
    xlink:href="#l3"
    transform="translate(492.83 645.99) rotate(325.04) scale(1.12)"
  />
  <use
    xlink:href="#l3"
    transform="translate(803.44 570.77) rotate(346.19) scale(0.81)"
  />
  <use
    xlink:href="#l3"
    transform="translate(1087.49 251.3) rotate(48.98) scale(0.88)"
  />
  <use
    xlink:href="#l3"
    transform="translate(192.09 153.97) rotate(299.93) scale(1.18)"
  />
  <use
    xlink:href="#l3"
    transform="translate(60.45 768.85) rotate(167.33) scale(0.88)"
  />
  <use
    xlink:href="#l3"
    transform="translate(879.39 46.12) rotate(267.05) scale(0.88)"
  />
  <use
    xlink:href="#l3"
    transform="translate(219.61 702.15) rotate(331.17) scale(1.11)"
  />
  <use
    xlink:href="#l3"
    transform="translate(97.16 492.61) rotate(153.63) scale(1.15)"
  />
  <use
    xlink:href="#l3"
    transform="translate(369.26 349.89) rotate(289.31) scale(1.16)"
  />
  <use
    xlink:href="#l3"
    transform="translate(1094.22 551.1) rotate(99.37) scale(0.95)"
  />
  <use
    xlink:href="#l3"
    transform="translate(914.34 50.53) rotate(136.2) scale(1.05)"
  />
  <use
    xlink:href="#l3"
    transform="translate(1091.54 788.77) rotate(280.73) scale(0.95)"
  />
  <use
    xlink:href="#l3"
    transform="translate(934.53 649.31) rotate(101.61) scale(1.14)"
  />
  <use
    xlink:href="#l3"
    transform="translate(601.81 661) rotate(172.23) scale(1.06)"
  />
  <use
    xlink:href="#l3"
    transform="translate(805.42 422.25) rotate(309.39) scale(0.89)"
  />
  <use
    xlink:href="#l3"
    transform="translate(944.21 328.24) rotate(93.37) scale(1.19)"
  />
  <use
    xlink:href="#l3"
    transform="translate(330.06 664.9) rotate(266.57) scale(0.82)"
  />
  <use
    xlink:href="#l3"
    transform="translate(484.47 69.97) rotate(81.37) scale(1.08)"
  />
  <text
    x="600"
    y="400"
    font-family="courier new, courier, monospace"
    font-weight="bold"
    font-size="120"
    fill="black"
    text-anchor="middle"
    alignment-baseline="middle"
  >tt()×1</text>
</svg>
