<svg
  xmlns="http://www.w3.org/2000/svg"
  xmlns:xlink="http://www.w3.org/1999/xlink"
  viewBox="0 0 1200 800"
>
  <title>Frontend 3: Assessment 1</title>
  <style>
    :root { color: #feca2f; background-color: currentcolor; max-width: 100% }
    body { margin: 0 }
    path { fill: none; stroke: hsl(45, 99%, 67%);; stroke-width: 5px; stroke-linecap: round }
    path:nth-child(odd) { stroke: hsl(45, 99%, 52%) }
  </style>
  <rect width="100%" height="100%" fill="currentcolor"/>
  <defs>
  <path id="t1" d="M7.76,10.89c-1.5,2.18-2.77,4.5-4.27,6.68-1.12,1.63-2.22,4-.86,5.41a4.34,4.34,0,0,0,2.25,1,130.06,130.06,0,0,0,24.85,3.36,2.65,2.65,0,0,0,2-.45,2.5,2.5,0,0,0,.51-2c-.43-7.43-5.32-13.76-10-19.55C21.15,4,20,2.67,18.4,2.18a5.71,5.71,0,0,0-5,1.19,16.87,16.87,0,0,0-3.43,4c-1.43,2.11-.79,1.36-2.23,3.47">
    <animate
      attributeName="opacity"
      repeatCount="indefinite"
      dur="20s"
      values="1;1;1;0;0;0;0;0;1"
    />
    <animateTransform
      attributeName="transform"
      type="rotate"
      repeatCount="indefinite"
      dur="80s"
      from="360 150 150"
      to="0 150 150"
    />
  </path>,  <path id="c1" d="M12.36,11.18a1.16,1.16,0,0,0-1.63-.11,3,3,0,0,0-.87,1.58c-.61,2.11-.78,4.58.55,6.32,1.71,2.23,5.36,2.21,7.57.46s3.15-4.69,3.26-7.5a13.18,13.18,0,0,0-1.89-7.67A9.12,9.12,0,0,0,12.85,0,9.93,9.93,0,0,0,4.51,3.82,20.08,20.08,0,0,0,.67,12.45c-.86,3.8-1.14,8,.63,11.44,2.31,4.55,7.64,6.85,12.72,7.3a13.12,13.12,0,0,0,7.81-1.32,15.12,15.12,0,0,0,5-5.68c2.11-3.59,3.87-7.56,3.88-11.73S28.64,3.9,24.84,2.21">
    <animate
      attributeName="opacity"
      repeatCount="indefinite"
      dur="20s"
      values="0;1;1;1;0;0;0;0;0"
    />
    <animateTransform
      attributeName="transform"
      type="rotate"
      repeatCount="indefinite"
      dur="80s"
      from="360 150 150"
      to="0 150 150"
    />
  </path>,  <path id="l1" d="M2.07,10.63a6,6,0,0,0,2.89,6A6,6,0,0,0,11.59,16c3.64-3.14,2.84-10.08,7.21-12.06,2.83-1.29,6.15.49,8.31,2.72s3.86,5,6.55,6.59a9.31,9.31,0,0,0,10.47-1A9.31,9.31,0,0,0,46.62,2">
    <animate
      attributeName="opacity"
      repeatCount="indefinite"
      dur="20s"
      values="0;0;1;1;1;0;0;0;0"
    />
    <animateTransform
      attributeName="transform"
      type="rotate"
      repeatCount="indefinite"
      dur="80s"
      from="360 150 150"
      to="0 150 150"
    />
  </path>,  <path id="t2" d="M23.42,19c-1.93-6-2.36-7.18-4.09-13.2-.54-1.88-1.82-4.21-3.71-3.74a3.78,3.78,0,0,0-1.45.88,120.75,120.75,0,0,0-9.68,9.15c-1.38,1.45-2.82,3.27-2.41,5.23a6.22,6.22,0,0,0,2.63,3.34,73,73,0,0,0,15.38,9.16c2,.87,4.64,1.5,6-.18s.26-4-1-5.75S24.06,21,23.42,19Z">
    <animate
      attributeName="opacity"
      repeatCount="indefinite"
      dur="20s"
      values="0;0;0;1;1;1;0;0;0"
    />
    <animateTransform
      attributeName="transform"
      type="rotate"
      repeatCount="indefinite"
      dur="80s"
      from="360 150 150"
      to="0 150 150"
    />
  </path>,  <path id="c2" d="M13.44,10.08a2.92,2.92,0,0,0-4.15-.66C7.93,10.56,8,12.75,8.79,14.32a6.86,6.86,0,0,0,8.38,3,7.23,7.23,0,0,0,4.17-8A11.85,11.85,0,0,0,18.15,4,11.42,11.42,0,0,0,12.33.14a9.79,9.79,0,0,0-7.4,2C1.72,4.41-.71,8.37.19,12.21a13.84,13.84,0,0,0,1.85,4,30.12,30.12,0,0,0,5,6.55A11.53,11.53,0,0,0,14.33,26,12.35,12.35,0,0,0,22,23.15c4.33-3.33,7.31-9,5.86-14.3">
    <animate
      attributeName="opacity"
      repeatCount="indefinite"
      dur="20s"
      values="0;0;0;0;1;1;1;0;0"
    />
    <animateTransform
      attributeName="transform"
      type="rotate"
      repeatCount="indefinite"
      dur="80s"
      from="360 150 150"
      to="0 150 150"
    />
  </path>,  <path id="l2" d="M85.7,8.9c.33-3.32-2.7-6.31-6-6.81s-6.62,1-9.21,3.12S65.89,10,63.64,12.49a9.41,9.41,0,0,1-4.58,3.19c-3.47.78-6.65-2.08-8.76-4.94s-4.2-6.21-7.64-7.11c-3.79-1-7.67,1.51-10.15,4.54s-4.16,6.7-6.93,9.47S18.31,22.12,15,20.06a12.07,12.07,0,0,1-3.69-4.46L7.93,9.85A7.14,7.14,0,0,0,5.39,6.91C4.22,6.3,2.5,6.56,2,7.78">
    <animate
      attributeName="opacity"
      repeatCount="indefinite"
      dur="20s"
      values="0;0;0;0;0;1;1;1;0"
    />
    <animateTransform
      attributeName="transform"
      type="rotate"
      repeatCount="indefinite"
      dur="80s"
      from="360 150 150"
      to="0 150 150"
    />
  </path>,  <path id="t3" d="M16.58,2.36A68.52,68.52,0,0,0,5.33,2.14,4.14,4.14,0,0,0,2.7,3C1.38,4.23,2.18,6.42,3,8l8.1,14.87c.65,1.2,1.43,2.5,2.75,2.87a4.89,4.89,0,0,0,3.37-.69A42.36,42.36,0,0,0,32.45,12.46a8.56,8.56,0,0,0,1.79-3.54,3.37,3.37,0,0,0-1.38-3.5A5,5,0,0,0,31,4.92C25.13,4.1,22.51,2.9,16.58,2.36Z">
    <animate
      attributeName="opacity"
      repeatCount="indefinite"
      dur="20s"
      values="1;0;0;0;0;0;1;1;1"
    />
    <animateTransform
      attributeName="transform"
      type="rotate"
      repeatCount="indefinite"
      dur="80s"
      from="360 150 150"
      to="0 150 150"
    />
  </path>,  <path id="c3" d="M16.66,19.31c0-2.1-2.84-3.38-4.68-2.35s-2.46,3.52-1.85,5.54c1.12,3.7,5.8,5.64,9.41,4.27s5.81-5.44,5.52-9.3a12.82,12.82,0,0,0-6-9.46A12.7,12.7,0,0,0,8,6.38,12.65,12.65,0,0,0,.54,15.12a20.73,20.73,0,0,0,.75,11.75,17.2,17.2,0,0,0,2.43,4.92c3.94,5.26,11.55,6.36,18,5a17.51,17.51,0,0,0,7.55-3.24,15.27,15.27,0,0,0,4.9-8.16A20.76,20.76,0,0,0,18.61,0">
    <animate
      attributeName="opacity"
      repeatCount="indefinite"
      dur="20s"
      values="1;0;0;0;0;0;0;1;1"
    />
    <animateTransform
      attributeName="transform"
      type="rotate"
      repeatCount="indefinite"
      dur="80s"
      from="360 150 150"
      to="0 150 150"
    />
  </path>,  <path id="l3" d="M2,19.86c2.37-3.51,2.92-9.08,7-10,2.51-.58,5,1.1,6.65,3.1s2.78,4.4,4.69,6.14a10.34,10.34,0,0,0,13.12.34c3.4-2.8,4.55-7.42,6.65-11.29S46.72.68,50.74,2.48c5.2,2.33,4.63,11.25,9.95,13.29a8.22,8.22,0,0,0,6.09-.56,18.15,18.15,0,0,0,9.57-9.86">
    <animate
      attributeName="opacity"
      repeatCount="indefinite"
      dur="20s"
      values="1;1;0;0;0;0;0;0;1"
    />
    <animateTransform
      attributeName="transform"
      type="rotate"
      repeatCount="indefinite"
      dur="80s"
      from="360 150 150"
      to="0 150 150"
    />
  </path>
  </defs>
  <use
    xlink:href="#t1"
    transform="translate(142.96 385.65) rotate(15.92) scale(0.91)"
  />
  <use
    xlink:href="#t1"
    transform="translate(384.16 561.46) rotate(229.94) scale(0.95)"
  />
  <use
    xlink:href="#t1"
    transform="translate(994.13 730.15) rotate(290.25) scale(1.11)"
  />
  <use
    xlink:href="#t1"
    transform="translate(862.09 760.39) rotate(336.9) scale(0.84)"
  />
  <use
    xlink:href="#t1"
    transform="translate(269.48 21.87) rotate(36.24) scale(0.89)"
  />
  <use
    xlink:href="#t1"
    transform="translate(409.4 779.92) rotate(97.2) scale(0.92)"
  />
  <use
    xlink:href="#t1"
    transform="translate(710.76 243.04) rotate(246.48) scale(0.85)"
  />
  <use
    xlink:href="#t1"
    transform="translate(153.17 229.03) rotate(10.81) scale(0.88)"
  />
  <use
    xlink:href="#t1"
    transform="translate(437.16 489.87) rotate(136.7) scale(0.95)"
  />
  <use
    xlink:href="#t1"
    transform="translate(287.31 213.01) rotate(28.9) scale(0.92)"
  />
  <use
    xlink:href="#t1"
    transform="translate(506.61 234.49) rotate(346.57) scale(0.98)"
  />
  <use
    xlink:href="#t1"
    transform="translate(1192.82 749.86) rotate(135.53) scale(1.13)"
  />
  <use
    xlink:href="#t1"
    transform="translate(14.29 376.14) rotate(124.24) scale(1.12)"
  />
  <use
    xlink:href="#t1"
    transform="translate(513.77 75.54) rotate(321.21) scale(0.91)"
  />
  <use
    xlink:href="#t1"
    transform="translate(156.77 674.84) rotate(337.42) scale(0.84)"
  />
  <use
    xlink:href="#t1"
    transform="translate(1085.4 171.32) rotate(153.94) scale(1.17)"
  />
  <use
    xlink:href="#t1"
    transform="translate(447.39 655.37) rotate(115.63) scale(1.04)"
  />
  <use
    xlink:href="#t1"
    transform="translate(1163.48 25.01) rotate(77.06) scale(1.12)"
  />
  <use
    xlink:href="#t1"
    transform="translate(943.64 86.71) rotate(141.27) scale(1.12)"
  />
  <use
    xlink:href="#t1"
    transform="translate(992.71 609.42) rotate(95.82) scale(0.81)"
  />,  <use
    xlink:href="#c1"
    transform="translate(2.91 759.78) rotate(80.54) scale(0.83)"
  />
  <use
    xlink:href="#c1"
    transform="translate(202.22 453.44) rotate(233.56) scale(0.91)"
  />
  <use
    xlink:href="#c1"
    transform="translate(483.99 530.84) rotate(238.55) scale(0.92)"
  />
  <use
    xlink:href="#c1"
    transform="translate(366.63 31.49) rotate(201.63) scale(0.82)"
  />
  <use
    xlink:href="#c1"
    transform="translate(693.2 353.64) rotate(194.4) scale(0.81)"
  />
  <use
    xlink:href="#c1"
    transform="translate(671.26 700.61) rotate(51.86) scale(1.03)"
  />
  <use
    xlink:href="#c1"
    transform="translate(138.63 762.74) rotate(341.99) scale(0.85)"
  />
  <use
    xlink:href="#c1"
    transform="translate(473.39 148.55) rotate(351.89) scale(0.93)"
  />
  <use
    xlink:href="#c1"
    transform="translate(671.37 606.1) rotate(310.53) scale(0.91)"
  />
  <use
    xlink:href="#c1"
    transform="translate(488.38 712.93) rotate(285.36) scale(1.08)"
  />
  <use
    xlink:href="#c1"
    transform="translate(770.78 160.23) rotate(139.8) scale(0.81)"
  />
  <use
    xlink:href="#c1"
    transform="translate(975.23 718.43) rotate(92.1) scale(1.12)"
  />
  <use
    xlink:href="#c1"
    transform="translate(578.67 289.18) rotate(333.15) scale(1.12)"
  />
  <use
    xlink:href="#c1"
    transform="translate(32.92 213.8) rotate(192) scale(0.87)"
  />
  <use
    xlink:href="#c1"
    transform="translate(276.77 595.32) rotate(293.29) scale(1.04)"
  />
  <use
    xlink:href="#c1"
    transform="translate(460.04 309.99) rotate(0.41) scale(1.07)"
  />
  <use
    xlink:href="#c1"
    transform="translate(225.05 550.44) rotate(265.37) scale(0.87)"
  />
  <use
    xlink:href="#c1"
    transform="translate(65.09 675.33) rotate(212.25) scale(0.95)"
  />
  <use
    xlink:href="#c1"
    transform="translate(235.83 2.41) rotate(250.52) scale(0.97)"
  />
  <use
    xlink:href="#c1"
    transform="translate(156.14 207.77) rotate(198.53) scale(0.92)"
  />,  <use
    xlink:href="#l1"
    transform="translate(307.86 240.78) rotate(153.19) scale(0.9)"
  />
  <use
    xlink:href="#l1"
    transform="translate(820.33 80.45) rotate(280.71) scale(0.89)"
  />
  <use
    xlink:href="#l1"
    transform="translate(454.55 656.75) rotate(332.87) scale(0.94)"
  />
  <use
    xlink:href="#l1"
    transform="translate(676.62 289) rotate(290.7) scale(1.04)"
  />
  <use
    xlink:href="#l1"
    transform="translate(953.44 406.86) rotate(18.51) scale(1.06)"
  />
  <use
    xlink:href="#l1"
    transform="translate(1178 602.55) rotate(78.15) scale(1.05)"
  />
  <use
    xlink:href="#l1"
    transform="translate(563.01 234.58) rotate(76.3) scale(0.83)"
  />
  <use
    xlink:href="#l1"
    transform="translate(1069.16 379.98) rotate(76.31) scale(0.84)"
  />
  <use
    xlink:href="#l1"
    transform="translate(679.82 680.22) rotate(9.89) scale(0.84)"
  />
  <use
    xlink:href="#l1"
    transform="translate(657.12 625.54) rotate(347.4) scale(1.11)"
  />
  <use
    xlink:href="#l1"
    transform="translate(168.39 12.15) rotate(163.93) scale(1.07)"
  />
  <use
    xlink:href="#l1"
    transform="translate(625.57 627.56) rotate(280.39) scale(0.84)"
  />
  <use
    xlink:href="#l1"
    transform="translate(610.13 82.38) rotate(243.41) scale(1.04)"
  />
  <use
    xlink:href="#l1"
    transform="translate(301.25 123.34) rotate(5.98) scale(1.1)"
  />
  <use
    xlink:href="#l1"
    transform="translate(533.22 457.9) rotate(58.54) scale(1.08)"
  />
  <use
    xlink:href="#l1"
    transform="translate(429.38 702.31) rotate(336.86) scale(0.82)"
  />
  <use
    xlink:href="#l1"
    transform="translate(293.59 155.31) rotate(183.08) scale(1.06)"
  />
  <use
    xlink:href="#l1"
    transform="translate(306.03 660.66) rotate(242.21) scale(0.91)"
  />
  <use
    xlink:href="#l1"
    transform="translate(16.12 10.99) rotate(214.61) scale(1)"
  />
  <use
    xlink:href="#l1"
    transform="translate(964.76 494.47) rotate(211.16) scale(0.98)"
  />,  <use
    xlink:href="#t2"
    transform="translate(1142.27 51.17) rotate(1.61) scale(1.07)"
  />
  <use
    xlink:href="#t2"
    transform="translate(1050.7 264.78) rotate(43.76) scale(0.94)"
  />
  <use
    xlink:href="#t2"
    transform="translate(97.26 396.29) rotate(243.65) scale(0.91)"
  />
  <use
    xlink:href="#t2"
    transform="translate(799.97 228.38) rotate(156.8) scale(0.85)"
  />
  <use
    xlink:href="#t2"
    transform="translate(184.3 187.56) rotate(314.9) scale(0.85)"
  />
  <use
    xlink:href="#t2"
    transform="translate(574.29 590.53) rotate(186.89) scale(1.02)"
  />
  <use
    xlink:href="#t2"
    transform="translate(478.73 691.42) rotate(347.51) scale(0.89)"
  />
  <use
    xlink:href="#t2"
    transform="translate(1029.56 254.84) rotate(206.26) scale(1.13)"
  />
  <use
    xlink:href="#t2"
    transform="translate(335.38 306.97) rotate(158.69) scale(0.94)"
  />
  <use
    xlink:href="#t2"
    transform="translate(339.29 429.08) rotate(344.72) scale(0.82)"
  />
  <use
    xlink:href="#t2"
    transform="translate(522.4 686.13) rotate(121.02) scale(0.95)"
  />
  <use
    xlink:href="#t2"
    transform="translate(86.16 452.99) rotate(192.99) scale(1.09)"
  />
  <use
    xlink:href="#t2"
    transform="translate(739.34 358.11) rotate(93.47) scale(1.04)"
  />
  <use
    xlink:href="#t2"
    transform="translate(492.07 796.66) rotate(131.5) scale(1.12)"
  />
  <use
    xlink:href="#t2"
    transform="translate(48.58 334.32) rotate(349.47) scale(0.98)"
  />
  <use
    xlink:href="#t2"
    transform="translate(1095.9 219.29) rotate(263.93) scale(0.98)"
  />
  <use
    xlink:href="#t2"
    transform="translate(199.13 283.6) rotate(110.82) scale(0.94)"
  />
  <use
    xlink:href="#t2"
    transform="translate(505.5 157.64) rotate(315.46) scale(1)"
  />
  <use
    xlink:href="#t2"
    transform="translate(558.44 152.79) rotate(61.41) scale(1.05)"
  />
  <use
    xlink:href="#t2"
    transform="translate(348.12 742.06) rotate(258.01) scale(1.04)"
  />,  <use
    xlink:href="#c2"
    transform="translate(535.65 745.96) rotate(92.95) scale(1.07)"
  />
  <use
    xlink:href="#c2"
    transform="translate(192.68 211.86) rotate(199) scale(1.03)"
  />
  <use
    xlink:href="#c2"
    transform="translate(853.07 245.38) rotate(168.22) scale(1.11)"
  />
  <use
    xlink:href="#c2"
    transform="translate(73.93 446.38) rotate(358.33) scale(1.01)"
  />
  <use
    xlink:href="#c2"
    transform="translate(1087.82 305.91) rotate(282.2) scale(1.13)"
  />
  <use
    xlink:href="#c2"
    transform="translate(228.5 105.68) rotate(79.25) scale(0.91)"
  />
  <use
    xlink:href="#c2"
    transform="translate(727.41 394.39) rotate(189.18) scale(1.13)"
  />
  <use
    xlink:href="#c2"
    transform="translate(15.08 372.72) rotate(73.53) scale(0.84)"
  />
  <use
    xlink:href="#c2"
    transform="translate(366.59 527.41) rotate(141.94) scale(1.07)"
  />
  <use
    xlink:href="#c2"
    transform="translate(860.96 553.82) rotate(173.35) scale(1.1)"
  />
  <use
    xlink:href="#c2"
    transform="translate(730.61 287.24) rotate(294.32) scale(0.91)"
  />
  <use
    xlink:href="#c2"
    transform="translate(372.47 31.94) rotate(57.77) scale(1.01)"
  />
  <use
    xlink:href="#c2"
    transform="translate(946.04 752.06) rotate(138.4) scale(1)"
  />
  <use
    xlink:href="#c2"
    transform="translate(832.74 34.24) rotate(164.9) scale(0.96)"
  />
  <use
    xlink:href="#c2"
    transform="translate(518.72 705.04) rotate(266.58) scale(1.07)"
  />
  <use
    xlink:href="#c2"
    transform="translate(477.7 430.96) rotate(126.78) scale(1.19)"
  />
  <use
    xlink:href="#c2"
    transform="translate(902.79 476.73) rotate(266.59) scale(1.19)"
  />
  <use
    xlink:href="#c2"
    transform="translate(671.61 518.97) rotate(51.42) scale(1.18)"
  />
  <use
    xlink:href="#c2"
    transform="translate(258.54 218.56) rotate(246.37) scale(0.87)"
  />
  <use
    xlink:href="#c2"
    transform="translate(653.46 594.8) rotate(68.47) scale(0.92)"
  />,  <use
    xlink:href="#l2"
    transform="translate(1033.8 144.92) rotate(27.47) scale(0.84)"
  />
  <use
    xlink:href="#l2"
    transform="translate(966.97 381.13) rotate(242.87) scale(0.97)"
  />
  <use
    xlink:href="#l2"
    transform="translate(923.02 796.3) rotate(27.58) scale(0.97)"
  />
  <use
    xlink:href="#l2"
    transform="translate(982.03 758.98) rotate(104.37) scale(1.04)"
  />
  <use
    xlink:href="#l2"
    transform="translate(691.36 594.66) rotate(59.82) scale(0.91)"
  />
  <use
    xlink:href="#l2"
    transform="translate(743.08 85.67) rotate(307.8) scale(0.94)"
  />
  <use
    xlink:href="#l2"
    transform="translate(335.51 406.48) rotate(344.77) scale(1)"
  />
  <use
    xlink:href="#l2"
    transform="translate(972.44 352.63) rotate(142.85) scale(0.8)"
  />
  <use
    xlink:href="#l2"
    transform="translate(841.2 499.02) rotate(162.93) scale(1.16)"
  />
  <use
    xlink:href="#l2"
    transform="translate(115.56 686.11) rotate(139.91) scale(1.09)"
  />
  <use
    xlink:href="#l2"
    transform="translate(1170.32 725.08) rotate(274.3) scale(0.87)"
  />
  <use
    xlink:href="#l2"
    transform="translate(895.86 575.4) rotate(316.22) scale(1.03)"
  />
  <use
    xlink:href="#l2"
    transform="translate(4.52 761.27) rotate(272.75) scale(1.16)"
  />
  <use
    xlink:href="#l2"
    transform="translate(958.01 599.9) rotate(245.71) scale(1.13)"
  />
  <use
    xlink:href="#l2"
    transform="translate(724.86 131.95) rotate(327.59) scale(1.14)"
  />
  <use
    xlink:href="#l2"
    transform="translate(421.77 690.01) rotate(335.41) scale(1.07)"
  />
  <use
    xlink:href="#l2"
    transform="translate(89.83 741.83) rotate(144.31) scale(1.06)"
  />
  <use
    xlink:href="#l2"
    transform="translate(1102.39 704.69) rotate(267.9) scale(0.86)"
  />
  <use
    xlink:href="#l2"
    transform="translate(181.28 47.35) rotate(253.57) scale(1.05)"
  />
  <use
    xlink:href="#l2"
    transform="translate(888.94 725.5) rotate(63.32) scale(0.99)"
  />,  <use
    xlink:href="#t3"
    transform="translate(108.92 38.65) rotate(197.97) scale(1.11)"
  />
  <use
    xlink:href="#t3"
    transform="translate(571.05 267.84) rotate(205.22) scale(1.19)"
  />
  <use
    xlink:href="#t3"
    transform="translate(279.42 201.99) rotate(109.95) scale(0.83)"
  />
  <use
    xlink:href="#t3"
    transform="translate(337.5 561.93) rotate(186.05) scale(0.91)"
  />
  <use
    xlink:href="#t3"
    transform="translate(201.42 295.75) rotate(197.01) scale(0.92)"
  />
  <use
    xlink:href="#t3"
    transform="translate(1082.4 756.02) rotate(22.82) scale(0.92)"
  />
  <use
    xlink:href="#t3"
    transform="translate(1033.14 446.42) rotate(48.72) scale(1.1)"
  />
  <use
    xlink:href="#t3"
    transform="translate(796.16 156.75) rotate(59.38) scale(1.15)"
  />
  <use
    xlink:href="#t3"
    transform="translate(1089.02 450.05) rotate(84.84) scale(1.08)"
  />
  <use
    xlink:href="#t3"
    transform="translate(725.4 792.43) rotate(135.84) scale(1.04)"
  />
  <use
    xlink:href="#t3"
    transform="translate(1150.33 545.54) rotate(89.61) scale(0.94)"
  />
  <use
    xlink:href="#t3"
    transform="translate(556.22 479.53) rotate(13.36) scale(1.18)"
  />
  <use
    xlink:href="#t3"
    transform="translate(369.54 499.82) rotate(224.95) scale(0.86)"
  />
  <use
    xlink:href="#t3"
    transform="translate(962.21 667.19) rotate(66.82) scale(0.92)"
  />
  <use
    xlink:href="#t3"
    transform="translate(432.38 141.94) rotate(314.58) scale(1.19)"
  />
  <use
    xlink:href="#t3"
    transform="translate(105.92 790.06) rotate(146.57) scale(1.04)"
  />
  <use
    xlink:href="#t3"
    transform="translate(263.43 75.61) rotate(288.51) scale(0.91)"
  />
  <use
    xlink:href="#t3"
    transform="translate(196.79 230.65) rotate(176.3) scale(1.13)"
  />
  <use
    xlink:href="#t3"
    transform="translate(459.17 333.05) rotate(345.12) scale(0.83)"
  />
  <use
    xlink:href="#t3"
    transform="translate(53.27 386.52) rotate(214.84) scale(0.83)"
  />,  <use
    xlink:href="#c3"
    transform="translate(891.3 282.75) rotate(0.96) scale(0.83)"
  />
  <use
    xlink:href="#c3"
    transform="translate(288.85 242.96) rotate(230.46) scale(0.92)"
  />
  <use
    xlink:href="#c3"
    transform="translate(1175.98 350.12) rotate(203.88) scale(0.98)"
  />
  <use
    xlink:href="#c3"
    transform="translate(1096.51 63.6) rotate(342.94) scale(0.81)"
  />
  <use
    xlink:href="#c3"
    transform="translate(308.71 480.39) rotate(239.59) scale(1.01)"
  />
  <use
    xlink:href="#c3"
    transform="translate(190.26 562.28) rotate(221.57) scale(1.05)"
  />
  <use
    xlink:href="#c3"
    transform="translate(1105.29 28.35) rotate(318.52) scale(0.87)"
  />
  <use
    xlink:href="#c3"
    transform="translate(766.5 62.72) rotate(356) scale(0.8)"
  />
  <use
    xlink:href="#c3"
    transform="translate(63.18 408.07) rotate(73.62) scale(1.14)"
  />
  <use
    xlink:href="#c3"
    transform="translate(1183.81 24.28) rotate(217.24) scale(1.01)"
  />
  <use
    xlink:href="#c3"
    transform="translate(1109.97 624.55) rotate(300.93) scale(1.07)"
  />
  <use
    xlink:href="#c3"
    transform="translate(9.92 137.01) rotate(116.88) scale(0.85)"
  />
  <use
    xlink:href="#c3"
    transform="translate(354.42 197.99) rotate(57.43) scale(0.86)"
  />
  <use
    xlink:href="#c3"
    transform="translate(320.02 171.88) rotate(338.1) scale(1.07)"
  />
  <use
    xlink:href="#c3"
    transform="translate(392.04 795.07) rotate(161.62) scale(0.98)"
  />
  <use
    xlink:href="#c3"
    transform="translate(103.02 416.5) rotate(355.7) scale(0.8)"
  />
  <use
    xlink:href="#c3"
    transform="translate(395.61 545.74) rotate(230.23) scale(0.98)"
  />
  <use
    xlink:href="#c3"
    transform="translate(269.74 85.97) rotate(186.02) scale(0.83)"
  />
  <use
    xlink:href="#c3"
    transform="translate(692.28 640.14) rotate(2.4) scale(0.96)"
  />
  <use
    xlink:href="#c3"
    transform="translate(684.28 235.55) rotate(278.87) scale(0.94)"
  />,  <use
    xlink:href="#l3"
    transform="translate(752.65 311.54) rotate(353.25) scale(1.19)"
  />
  <use
    xlink:href="#l3"
    transform="translate(89.98 117.3) rotate(133.9) scale(1.12)"
  />
  <use
    xlink:href="#l3"
    transform="translate(134.34 490.79) rotate(246.53) scale(0.99)"
  />
  <use
    xlink:href="#l3"
    transform="translate(954.29 796.65) rotate(36.38) scale(0.97)"
  />
  <use
    xlink:href="#l3"
    transform="translate(612.17 444.48) rotate(63.82) scale(0.83)"
  />
  <use
    xlink:href="#l3"
    transform="translate(992.84 249.6) rotate(259.94) scale(0.9)"
  />
  <use
    xlink:href="#l3"
    transform="translate(739.99 617.7) rotate(195.57) scale(0.81)"
  />
  <use
    xlink:href="#l3"
    transform="translate(603.01 177.56) rotate(98.53) scale(0.95)"
  />
  <use
    xlink:href="#l3"
    transform="translate(525.55 89.94) rotate(216.17) scale(1.13)"
  />
  <use
    xlink:href="#l3"
    transform="translate(277.83 389.68) rotate(296.05) scale(0.97)"
  />
  <use
    xlink:href="#l3"
    transform="translate(798.17 265.99) rotate(230.05) scale(1.01)"
  />
  <use
    xlink:href="#l3"
    transform="translate(599.29 732.93) rotate(235.83) scale(0.99)"
  />
  <use
    xlink:href="#l3"
    transform="translate(1172.49 183.22) rotate(330.27) scale(0.99)"
  />
  <use
    xlink:href="#l3"
    transform="translate(838.62 435.22) rotate(262.59) scale(1.08)"
  />
  <use
    xlink:href="#l3"
    transform="translate(601.9 66.88) rotate(355.12) scale(1.02)"
  />
  <use
    xlink:href="#l3"
    transform="translate(1106.89 658.1) rotate(15.83) scale(1.08)"
  />
  <use
    xlink:href="#l3"
    transform="translate(226.39 374.04) rotate(197.07) scale(1.17)"
  />
  <use
    xlink:href="#l3"
    transform="translate(292.08 731.36) rotate(53.77) scale(0.92)"
  />
  <use
    xlink:href="#l3"
    transform="translate(701.67 276.29) rotate(65.48) scale(0.81)"
  />
  <use
    xlink:href="#l3"
    transform="translate(263.62 731.06) rotate(330.97) scale(0.99)"
  />
  <text
    x="600"
    y="400"
    font-family="courier new, courier, monospace"
    font-weight="bold"
    font-size="120"
    fill="black"
    text-anchor="middle"
  >fe(3)×1</text>
</svg>
