<svg
  xmlns="http://www.w3.org/2000/svg"
  xmlns:xlink="http://www.w3.org/1999/xlink"
  viewBox="0 0 1200 800"
>
  <title>Tech Track</title>
  <style>
    :root { color: #feca2f; background-color: currentcolor; max-width: 100% }
    body { margin: 0 }
    path { fill: none; stroke: hsl(45, 99%, 67%); stroke-width: 5px; stroke-linecap: round }
    path:nth-child(odd) { stroke: hsl(45, 99%, 52%) }
  </style>
  <rect width="100%" height="100%" fill="currentcolor"/>
  <defs>
  <path id="t1" d="M7.76,10.89c-1.5,2.18-2.77,4.5-4.27,6.68-1.12,1.63-2.22,4-.86,5.41a4.34,4.34,0,0,0,2.25,1,130.06,130.06,0,0,0,24.85,3.36,2.65,2.65,0,0,0,2-.45,2.5,2.5,0,0,0,.51-2c-.43-7.43-5.32-13.76-10-19.55C21.15,4,20,2.67,18.4,2.18a5.71,5.71,0,0,0-5,1.19,16.87,16.87,0,0,0-3.43,4c-1.43,2.11-.79,1.36-2.23,3.47">
    <animate
      attributeName="opacity"
      repeatCount="indefinite"
      dur="20s"
      values="1;1;1;0;0;0;0;0;1"
    />
    <animateTransform
      attributeName="transform"
      type="rotate"
      repeatCount="indefinite"
      dur="80s"
      from="360 150 150"
      to="0 150 150"
    />
  </path>
  <path id="c1" d="M12.36,11.18a1.16,1.16,0,0,0-1.63-.11,3,3,0,0,0-.87,1.58c-.61,2.11-.78,4.58.55,6.32,1.71,2.23,5.36,2.21,7.57.46s3.15-4.69,3.26-7.5a13.18,13.18,0,0,0-1.89-7.67A9.12,9.12,0,0,0,12.85,0,9.93,9.93,0,0,0,4.51,3.82,20.08,20.08,0,0,0,.67,12.45c-.86,3.8-1.14,8,.63,11.44,2.31,4.55,7.64,6.85,12.72,7.3a13.12,13.12,0,0,0,7.81-1.32,15.12,15.12,0,0,0,5-5.68c2.11-3.59,3.87-7.56,3.88-11.73S28.64,3.9,24.84,2.21">
    <animate
      attributeName="opacity"
      repeatCount="indefinite"
      dur="20s"
      values="0;1;1;1;0;0;0;0;0"
    />
    <animateTransform
      attributeName="transform"
      type="rotate"
      repeatCount="indefinite"
      dur="80s"
      from="360 150 150"
      to="0 150 150"
    />
  </path>
  <path id="l1" d="M2.07,10.63a6,6,0,0,0,2.89,6A6,6,0,0,0,11.59,16c3.64-3.14,2.84-10.08,7.21-12.06,2.83-1.29,6.15.49,8.31,2.72s3.86,5,6.55,6.59a9.31,9.31,0,0,0,10.47-1A9.31,9.31,0,0,0,46.62,2">
    <animate
      attributeName="opacity"
      repeatCount="indefinite"
      dur="20s"
      values="0;0;1;1;1;0;0;0;0"
    />
    <animateTransform
      attributeName="transform"
      type="rotate"
      repeatCount="indefinite"
      dur="80s"
      from="360 150 150"
      to="0 150 150"
    />
  </path>
  <path id="t2" d="M23.42,19c-1.93-6-2.36-7.18-4.09-13.2-.54-1.88-1.82-4.21-3.71-3.74a3.78,3.78,0,0,0-1.45.88,120.75,120.75,0,0,0-9.68,9.15c-1.38,1.45-2.82,3.27-2.41,5.23a6.22,6.22,0,0,0,2.63,3.34,73,73,0,0,0,15.38,9.16c2,.87,4.64,1.5,6-.18s.26-4-1-5.75S24.06,21,23.42,19Z">
    <animate
      attributeName="opacity"
      repeatCount="indefinite"
      dur="20s"
      values="0;0;0;1;1;1;0;0;0"
    />
    <animateTransform
      attributeName="transform"
      type="rotate"
      repeatCount="indefinite"
      dur="80s"
      from="360 150 150"
      to="0 150 150"
    />
  </path>
  <path id="c2" d="M13.44,10.08a2.92,2.92,0,0,0-4.15-.66C7.93,10.56,8,12.75,8.79,14.32a6.86,6.86,0,0,0,8.38,3,7.23,7.23,0,0,0,4.17-8A11.85,11.85,0,0,0,18.15,4,11.42,11.42,0,0,0,12.33.14a9.79,9.79,0,0,0-7.4,2C1.72,4.41-.71,8.37.19,12.21a13.84,13.84,0,0,0,1.85,4,30.12,30.12,0,0,0,5,6.55A11.53,11.53,0,0,0,14.33,26,12.35,12.35,0,0,0,22,23.15c4.33-3.33,7.31-9,5.86-14.3">
    <animate
      attributeName="opacity"
      repeatCount="indefinite"
      dur="20s"
      values="0;0;0;0;1;1;1;0;0"
    />
    <animateTransform
      attributeName="transform"
      type="rotate"
      repeatCount="indefinite"
      dur="80s"
      from="360 150 150"
      to="0 150 150"
    />
  </path>
  <path id="l2" d="M85.7,8.9c.33-3.32-2.7-6.31-6-6.81s-6.62,1-9.21,3.12S65.89,10,63.64,12.49a9.41,9.41,0,0,1-4.58,3.19c-3.47.78-6.65-2.08-8.76-4.94s-4.2-6.21-7.64-7.11c-3.79-1-7.67,1.51-10.15,4.54s-4.16,6.7-6.93,9.47S18.31,22.12,15,20.06a12.07,12.07,0,0,1-3.69-4.46L7.93,9.85A7.14,7.14,0,0,0,5.39,6.91C4.22,6.3,2.5,6.56,2,7.78">
    <animate
      attributeName="opacity"
      repeatCount="indefinite"
      dur="20s"
      values="0;0;0;0;0;1;1;1;0"
    />
    <animateTransform
      attributeName="transform"
      type="rotate"
      repeatCount="indefinite"
      dur="80s"
      from="360 150 150"
      to="0 150 150"
    />
  </path>
  <path id="t3" d="M16.58,2.36A68.52,68.52,0,0,0,5.33,2.14,4.14,4.14,0,0,0,2.7,3C1.38,4.23,2.18,6.42,3,8l8.1,14.87c.65,1.2,1.43,2.5,2.75,2.87a4.89,4.89,0,0,0,3.37-.69A42.36,42.36,0,0,0,32.45,12.46a8.56,8.56,0,0,0,1.79-3.54,3.37,3.37,0,0,0-1.38-3.5A5,5,0,0,0,31,4.92C25.13,4.1,22.51,2.9,16.58,2.36Z">
    <animate
      attributeName="opacity"
      repeatCount="indefinite"
      dur="20s"
      values="1;0;0;0;0;0;1;1;1"
    />
    <animateTransform
      attributeName="transform"
      type="rotate"
      repeatCount="indefinite"
      dur="80s"
      from="360 150 150"
      to="0 150 150"
    />
  </path>
  <path id="c3" d="M16.66,19.31c0-2.1-2.84-3.38-4.68-2.35s-2.46,3.52-1.85,5.54c1.12,3.7,5.8,5.64,9.41,4.27s5.81-5.44,5.52-9.3a12.82,12.82,0,0,0-6-9.46A12.7,12.7,0,0,0,8,6.38,12.65,12.65,0,0,0,.54,15.12a20.73,20.73,0,0,0,.75,11.75,17.2,17.2,0,0,0,2.43,4.92c3.94,5.26,11.55,6.36,18,5a17.51,17.51,0,0,0,7.55-3.24,15.27,15.27,0,0,0,4.9-8.16A20.76,20.76,0,0,0,18.61,0">
    <animate
      attributeName="opacity"
      repeatCount="indefinite"
      dur="20s"
      values="1;0;0;0;0;0;0;1;1"
    />
    <animateTransform
      attributeName="transform"
      type="rotate"
      repeatCount="indefinite"
      dur="80s"
      from="360 150 150"
      to="0 150 150"
    />
  </path>
  <path id="l3" d="M2,19.86c2.37-3.51,2.92-9.08,7-10,2.51-.58,5,1.1,6.65,3.1s2.78,4.4,4.69,6.14a10.34,10.34,0,0,0,13.12.34c3.4-2.8,4.55-7.42,6.65-11.29S46.72.68,50.74,2.48c5.2,2.33,4.63,11.25,9.95,13.29a8.22,8.22,0,0,0,6.09-.56,18.15,18.15,0,0,0,9.57-9.86">
    <animate
      attributeName="opacity"
      repeatCount="indefinite"
      dur="20s"
      values="1;1;0;0;0;0;0;0;1"
    />
    <animateTransform
      attributeName="transform"
      type="rotate"
      repeatCount="indefinite"
      dur="80s"
      from="360 150 150"
      to="0 150 150"
    />
  </path>
  </defs>
  <use
    xlink:href="#t1"
    transform="translate(258.08 87.23) rotate(102.38) scale(1.15)"
  />
  <use
    xlink:href="#t1"
    transform="translate(57.28 714.77) rotate(341.93) scale(0.95)"
  />
  <use
    xlink:href="#t1"
    transform="translate(1113.9 369.2) rotate(46.23) scale(0.89)"
  />
  <use
    xlink:href="#t1"
    transform="translate(1054.09 718.46) rotate(28.26) scale(1.01)"
  />
  <use
    xlink:href="#t1"
    transform="translate(959.42 795.85) rotate(322.47) scale(0.83)"
  />
  <use
    xlink:href="#t1"
    transform="translate(611.32 147.98) rotate(251.34) scale(0.89)"
  />
  <use
    xlink:href="#t1"
    transform="translate(875.29 707.73) rotate(68.52) scale(0.82)"
  />
  <use
    xlink:href="#t1"
    transform="translate(1065 579.41) rotate(69.28) scale(1.19)"
  />
  <use
    xlink:href="#t1"
    transform="translate(674.65 241.72) rotate(176.77) scale(1)"
  />
  <use
    xlink:href="#t1"
    transform="translate(226.09 578.46) rotate(68.52) scale(0.88)"
  />
  <use
    xlink:href="#t1"
    transform="translate(521.18 788.44) rotate(56.41) scale(0.94)"
  />
  <use
    xlink:href="#t1"
    transform="translate(296.05 263.59) rotate(126.27) scale(0.85)"
  />
  <use
    xlink:href="#t1"
    transform="translate(406.52 189.05) rotate(319.7) scale(1.08)"
  />
  <use
    xlink:href="#t1"
    transform="translate(223.18 485.18) rotate(182.32) scale(1.05)"
  />
  <use
    xlink:href="#t1"
    transform="translate(1041.24 167.07) rotate(21.39) scale(1.12)"
  />
  <use
    xlink:href="#t1"
    transform="translate(1199.29 39.6) rotate(36.23) scale(0.91)"
  />
  <use
    xlink:href="#t1"
    transform="translate(821.76 14.27) rotate(228.05) scale(1)"
  />
  <use
    xlink:href="#t1"
    transform="translate(345.98 80.05) rotate(356.93) scale(1.12)"
  />
  <use
    xlink:href="#t1"
    transform="translate(526.78 460.27) rotate(107.52) scale(0.9)"
  />
  <use
    xlink:href="#t1"
    transform="translate(303.28 29) rotate(245.11) scale(0.87)"
  />
  <use
    xlink:href="#c1"
    transform="translate(767.7 11.38) rotate(100.99) scale(0.98)"
  />
  <use
    xlink:href="#c1"
    transform="translate(1084.54 365.83) rotate(189.82) scale(0.95)"
  />
  <use
    xlink:href="#c1"
    transform="translate(942.13 564.46) rotate(204.78) scale(0.87)"
  />
  <use
    xlink:href="#c1"
    transform="translate(125.94 425.82) rotate(148.26) scale(0.86)"
  />
  <use
    xlink:href="#c1"
    transform="translate(365.3 50.84) rotate(7.04) scale(0.86)"
  />
  <use
    xlink:href="#c1"
    transform="translate(497.51 487.33) rotate(352.1) scale(0.8)"
  />
  <use
    xlink:href="#c1"
    transform="translate(245.85 231.33) rotate(298.58) scale(1.15)"
  />
  <use
    xlink:href="#c1"
    transform="translate(669.24 445.25) rotate(51.53) scale(0.99)"
  />
  <use
    xlink:href="#c1"
    transform="translate(1056.97 127.53) rotate(49.76) scale(0.85)"
  />
  <use
    xlink:href="#c1"
    transform="translate(67.79 539.35) rotate(18.33) scale(1.14)"
  />
  <use
    xlink:href="#c1"
    transform="translate(1091.5 183.46) rotate(33.6) scale(0.97)"
  />
  <use
    xlink:href="#c1"
    transform="translate(234.53 571.4) rotate(143.44) scale(1.04)"
  />
  <use
    xlink:href="#c1"
    transform="translate(173.38 768.73) rotate(170.95) scale(0.82)"
  />
  <use
    xlink:href="#c1"
    transform="translate(328.42 636.74) rotate(10.1) scale(1.14)"
  />
  <use
    xlink:href="#c1"
    transform="translate(471.2 769.17) rotate(231.85) scale(0.87)"
  />
  <use
    xlink:href="#c1"
    transform="translate(937.96 556.05) rotate(117.49) scale(1.15)"
  />
  <use
    xlink:href="#c1"
    transform="translate(269.65 785.87) rotate(39.08) scale(1.19)"
  />
  <use
    xlink:href="#c1"
    transform="translate(241.93 754.15) rotate(61.16) scale(1.05)"
  />
  <use
    xlink:href="#c1"
    transform="translate(199.7 6.31) rotate(298.49) scale(0.83)"
  />
  <use
    xlink:href="#c1"
    transform="translate(5.72 9.18) rotate(181.19) scale(1)"
  />
  <use
    xlink:href="#l1"
    transform="translate(175.06 55.52) rotate(19.92) scale(1)"
  />
  <use
    xlink:href="#l1"
    transform="translate(609.7 78) rotate(334.55) scale(0.97)"
  />
  <use
    xlink:href="#l1"
    transform="translate(119.24 313.55) rotate(358.25) scale(1.08)"
  />
  <use
    xlink:href="#l1"
    transform="translate(764.24 754.78) rotate(71.71) scale(1.02)"
  />
  <use
    xlink:href="#l1"
    transform="translate(156.39 402.94) rotate(345.3) scale(1.15)"
  />
  <use
    xlink:href="#l1"
    transform="translate(1126.28 611.18) rotate(296) scale(0.89)"
  />
  <use
    xlink:href="#l1"
    transform="translate(676.24 384.5) rotate(240.08) scale(1.04)"
  />
  <use
    xlink:href="#l1"
    transform="translate(397.32 436.31) rotate(129.58) scale(0.8)"
  />
  <use
    xlink:href="#l1"
    transform="translate(934.67 741.29) rotate(322.04) scale(0.98)"
  />
  <use
    xlink:href="#l1"
    transform="translate(1136.19 618.48) rotate(172.71) scale(1.11)"
  />
  <use
    xlink:href="#l1"
    transform="translate(680.97 104) rotate(209.96) scale(1.19)"
  />
  <use
    xlink:href="#l1"
    transform="translate(690.06 744.08) rotate(332.54) scale(1.11)"
  />
  <use
    xlink:href="#l1"
    transform="translate(454.62 384.97) rotate(25.88) scale(0.9)"
  />
  <use
    xlink:href="#l1"
    transform="translate(377.14 143.98) rotate(141.43) scale(1.12)"
  />
  <use
    xlink:href="#l1"
    transform="translate(14.71 168.35) rotate(277.43) scale(1.02)"
  />
  <use
    xlink:href="#l1"
    transform="translate(745.36 375.95) rotate(212.32) scale(1.16)"
  />
  <use
    xlink:href="#l1"
    transform="translate(4.63 21.48) rotate(286.8) scale(1.16)"
  />
  <use
    xlink:href="#l1"
    transform="translate(664.82 625.31) rotate(45.81) scale(1.07)"
  />
  <use
    xlink:href="#l1"
    transform="translate(678.59 770) rotate(272.33) scale(0.9)"
  />
  <use
    xlink:href="#l1"
    transform="translate(196.18 214.4) rotate(300.59) scale(0.81)"
  />
  <use
    xlink:href="#t2"
    transform="translate(985.01 606.61) rotate(286.27) scale(1.11)"
  />
  <use
    xlink:href="#t2"
    transform="translate(489.92 343.05) rotate(26.05) scale(0.89)"
  />
  <use
    xlink:href="#t2"
    transform="translate(704.57 273.06) rotate(53.54) scale(0.87)"
  />
  <use
    xlink:href="#t2"
    transform="translate(113.08 14.87) rotate(317.1) scale(1.08)"
  />
  <use
    xlink:href="#t2"
    transform="translate(96.73 327.37) rotate(286.34) scale(0.99)"
  />
  <use
    xlink:href="#t2"
    transform="translate(1090.58 363.12) rotate(97.68) scale(1.16)"
  />
  <use
    xlink:href="#t2"
    transform="translate(506.18 310.75) rotate(119.32) scale(0.99)"
  />
  <use
    xlink:href="#t2"
    transform="translate(535.41 355.04) rotate(54.33) scale(0.93)"
  />
  <use
    xlink:href="#t2"
    transform="translate(249.12 698.97) rotate(113.18) scale(1.06)"
  />
  <use
    xlink:href="#t2"
    transform="translate(529.72 273.08) rotate(247.74) scale(0.93)"
  />
  <use
    xlink:href="#t2"
    transform="translate(199.01 204.9) rotate(189.64) scale(0.92)"
  />
  <use
    xlink:href="#t2"
    transform="translate(81.35 221.38) rotate(304.2) scale(0.8)"
  />
  <use
    xlink:href="#t2"
    transform="translate(684.68 85.93) rotate(13.49) scale(0.88)"
  />
  <use
    xlink:href="#t2"
    transform="translate(72.3 134.96) rotate(131.4) scale(0.89)"
  />
  <use
    xlink:href="#t2"
    transform="translate(275.54 764.18) rotate(26.46) scale(0.91)"
  />
  <use
    xlink:href="#t2"
    transform="translate(898.39 778.19) rotate(78.14) scale(1.19)"
  />
  <use
    xlink:href="#t2"
    transform="translate(434.63 441.8) rotate(262.56) scale(0.85)"
  />
  <use
    xlink:href="#t2"
    transform="translate(365.16 77.3) rotate(292.43) scale(1.08)"
  />
  <use
    xlink:href="#t2"
    transform="translate(547.18 727.19) rotate(278.91) scale(0.86)"
  />
  <use
    xlink:href="#t2"
    transform="translate(1139.1 166.49) rotate(327.2) scale(1.02)"
  />
  <use
    xlink:href="#c2"
    transform="translate(807.63 88.39) rotate(124.78) scale(0.92)"
  />
  <use
    xlink:href="#c2"
    transform="translate(605.43 673.6) rotate(19.73) scale(0.82)"
  />
  <use
    xlink:href="#c2"
    transform="translate(307.49 361.73) rotate(333.9) scale(1.01)"
  />
  <use
    xlink:href="#c2"
    transform="translate(14.64 158.96) rotate(208.08) scale(1.15)"
  />
  <use
    xlink:href="#c2"
    transform="translate(403.54 277.96) rotate(232.34) scale(0.9)"
  />
  <use
    xlink:href="#c2"
    transform="translate(536.63 550.54) rotate(23.73) scale(1.18)"
  />
  <use
    xlink:href="#c2"
    transform="translate(1012.41 747.13) rotate(194.12) scale(1.04)"
  />
  <use
    xlink:href="#c2"
    transform="translate(740.01 469.33) rotate(136.61) scale(1.04)"
  />
  <use
    xlink:href="#c2"
    transform="translate(993.55 791.71) rotate(256.76) scale(1.12)"
  />
  <use
    xlink:href="#c2"
    transform="translate(1101.99 171.29) rotate(254.59) scale(0.87)"
  />
  <use
    xlink:href="#c2"
    transform="translate(1168.53 435.58) rotate(99.42) scale(1.13)"
  />
  <use
    xlink:href="#c2"
    transform="translate(1054.92 585.21) rotate(198.61) scale(1.19)"
  />
  <use
    xlink:href="#c2"
    transform="translate(127.49 760.65) rotate(293.19) scale(0.8)"
  />
  <use
    xlink:href="#c2"
    transform="translate(653.6 682.79) rotate(329.12) scale(0.88)"
  />
  <use
    xlink:href="#c2"
    transform="translate(564.24 708.35) rotate(113.34) scale(1.07)"
  />
  <use
    xlink:href="#c2"
    transform="translate(749.98 340.44) rotate(130.29) scale(0.85)"
  />
  <use
    xlink:href="#c2"
    transform="translate(0.47 460.81) rotate(153.39) scale(0.83)"
  />
  <use
    xlink:href="#c2"
    transform="translate(1018.78 46.86) rotate(111.16) scale(0.99)"
  />
  <use
    xlink:href="#c2"
    transform="translate(667.67 525.76) rotate(17.81) scale(1.08)"
  />
  <use
    xlink:href="#c2"
    transform="translate(501.28 393.74) rotate(173.86) scale(1.06)"
  />
  <use
    xlink:href="#l2"
    transform="translate(278.99 757.86) rotate(322.85) scale(1.03)"
  />
  <use
    xlink:href="#l2"
    transform="translate(1069.82 758.88) rotate(315.33) scale(1.01)"
  />
  <use
    xlink:href="#l2"
    transform="translate(62.41 363.62) rotate(57.1) scale(1.17)"
  />
  <use
    xlink:href="#l2"
    transform="translate(873.11 791.88) rotate(123.27) scale(0.92)"
  />
  <use
    xlink:href="#l2"
    transform="translate(9.86 38.3) rotate(281.52) scale(1.07)"
  />
  <use
    xlink:href="#l2"
    transform="translate(1053.68 511.26) rotate(329.41) scale(0.9)"
  />
  <use
    xlink:href="#l2"
    transform="translate(332.04 590.59) rotate(296.02) scale(0.8)"
  />
  <use
    xlink:href="#l2"
    transform="translate(928.16 721.79) rotate(343.48) scale(0.8)"
  />
  <use
    xlink:href="#l2"
    transform="translate(191 514.87) rotate(171.89) scale(0.86)"
  />
  <use
    xlink:href="#l2"
    transform="translate(812.35 377.71) rotate(230.09) scale(1.11)"
  />
  <use
    xlink:href="#l2"
    transform="translate(536.85 215.61) rotate(151.9) scale(1.13)"
  />
  <use
    xlink:href="#l2"
    transform="translate(799.29 473.26) rotate(328.3) scale(1.04)"
  />
  <use
    xlink:href="#l2"
    transform="translate(832.73 614.85) rotate(183.11) scale(1.13)"
  />
  <use
    xlink:href="#l2"
    transform="translate(862.96 128.99) rotate(213.24) scale(0.99)"
  />
  <use
    xlink:href="#l2"
    transform="translate(752.93 462.13) rotate(116.65) scale(0.94)"
  />
  <use
    xlink:href="#l2"
    transform="translate(834.9 698.4) rotate(34.37) scale(1.05)"
  />
  <use
    xlink:href="#l2"
    transform="translate(185 439.26) rotate(245.97) scale(1.05)"
  />
  <use
    xlink:href="#l2"
    transform="translate(625.18 169.34) rotate(307.74) scale(0.88)"
  />
  <use
    xlink:href="#l2"
    transform="translate(26.34 24.55) rotate(328.69) scale(0.85)"
  />
  <use
    xlink:href="#l2"
    transform="translate(722.21 56.25) rotate(208.72) scale(0.85)"
  />
  <use
    xlink:href="#t3"
    transform="translate(515.4 196.17) rotate(107.45) scale(1.18)"
  />
  <use
    xlink:href="#t3"
    transform="translate(653.1 5.16) rotate(27.8) scale(0.9)"
  />
  <use
    xlink:href="#t3"
    transform="translate(112.85 742.86) rotate(230.75) scale(0.84)"
  />
  <use
    xlink:href="#t3"
    transform="translate(736.81 714.3) rotate(53.35) scale(1.09)"
  />
  <use
    xlink:href="#t3"
    transform="translate(102.61 605.63) rotate(335.76) scale(1.15)"
  />
  <use
    xlink:href="#t3"
    transform="translate(363.44 84.72) rotate(201.7) scale(1.09)"
  />
  <use
    xlink:href="#t3"
    transform="translate(918.98 152.71) rotate(245.89) scale(0.9)"
  />
  <use
    xlink:href="#t3"
    transform="translate(157.1 26.44) rotate(229.9) scale(1.13)"
  />
  <use
    xlink:href="#t3"
    transform="translate(665.08 407.48) rotate(32.63) scale(1.06)"
  />
  <use
    xlink:href="#t3"
    transform="translate(781.4 29.43) rotate(312.51) scale(1.06)"
  />
  <use
    xlink:href="#t3"
    transform="translate(850.6 174.47) rotate(149.5) scale(0.85)"
  />
  <use
    xlink:href="#t3"
    transform="translate(1119.47 495.41) rotate(343.02) scale(1.15)"
  />
  <use
    xlink:href="#t3"
    transform="translate(212.44 28.93) rotate(42.67) scale(0.85)"
  />
  <use
    xlink:href="#t3"
    transform="translate(13.38 314.59) rotate(358.57) scale(1.03)"
  />
  <use
    xlink:href="#t3"
    transform="translate(1118.43 269.61) rotate(61.15) scale(0.8)"
  />
  <use
    xlink:href="#t3"
    transform="translate(1016.34 140.08) rotate(203.54) scale(1.15)"
  />
  <use
    xlink:href="#t3"
    transform="translate(437.98 19.76) rotate(209.65) scale(0.9)"
  />
  <use
    xlink:href="#t3"
    transform="translate(640.86 365.02) rotate(338.65) scale(0.9)"
  />
  <use
    xlink:href="#t3"
    transform="translate(120.87 205.51) rotate(135.85) scale(0.84)"
  />
  <use
    xlink:href="#t3"
    transform="translate(71.26 767.83) rotate(153.8) scale(1.12)"
  />
  <use
    xlink:href="#c3"
    transform="translate(710.82 394.34) rotate(169.95) scale(1.04)"
  />
  <use
    xlink:href="#c3"
    transform="translate(826.36 194.01) rotate(70.51) scale(0.8)"
  />
  <use
    xlink:href="#c3"
    transform="translate(468.11 677.34) rotate(220.4) scale(1.05)"
  />
  <use
    xlink:href="#c3"
    transform="translate(705.3 743.89) rotate(110.15) scale(1.01)"
  />
  <use
    xlink:href="#c3"
    transform="translate(501.05 587.52) rotate(287.91) scale(0.86)"
  />
  <use
    xlink:href="#c3"
    transform="translate(1155.73 546.49) rotate(263.51) scale(0.94)"
  />
  <use
    xlink:href="#c3"
    transform="translate(846.32 73.5) rotate(91.54) scale(0.89)"
  />
  <use
    xlink:href="#c3"
    transform="translate(1158.04 781.71) rotate(49.34) scale(1.09)"
  />
  <use
    xlink:href="#c3"
    transform="translate(436.01 94.17) rotate(64.18) scale(0.84)"
  />
  <use
    xlink:href="#c3"
    transform="translate(729.37 36.53) rotate(49.21) scale(1.1)"
  />
  <use
    xlink:href="#c3"
    transform="translate(278.57 597.4) rotate(98) scale(0.91)"
  />
  <use
    xlink:href="#c3"
    transform="translate(627.52 563.4) rotate(300.59) scale(0.94)"
  />
  <use
    xlink:href="#c3"
    transform="translate(1183.58 539.69) rotate(155.94) scale(1.01)"
  />
  <use
    xlink:href="#c3"
    transform="translate(68.52 172.18) rotate(234.69) scale(1.19)"
  />
  <use
    xlink:href="#c3"
    transform="translate(65.85 628.52) rotate(343.33) scale(0.85)"
  />
  <use
    xlink:href="#c3"
    transform="translate(608.76 39.28) rotate(158.06) scale(1.16)"
  />
  <use
    xlink:href="#c3"
    transform="translate(64.17 704.72) rotate(252.4) scale(1.1)"
  />
  <use
    xlink:href="#c3"
    transform="translate(74.58 532.17) rotate(226.71) scale(1.08)"
  />
  <use
    xlink:href="#c3"
    transform="translate(725.69 442.94) rotate(247.18) scale(1.04)"
  />
  <use
    xlink:href="#c3"
    transform="translate(156.82 95.64) rotate(335.32) scale(1.04)"
  />
  <use
    xlink:href="#l3"
    transform="translate(286.35 430.21) rotate(35.98) scale(1)"
  />
  <use
    xlink:href="#l3"
    transform="translate(1114.05 39.89) rotate(221.91) scale(1.16)"
  />
  <use
    xlink:href="#l3"
    transform="translate(879.66 604.38) rotate(7.92) scale(0.88)"
  />
  <use
    xlink:href="#l3"
    transform="translate(1008.65 121.93) rotate(251.61) scale(0.84)"
  />
  <use
    xlink:href="#l3"
    transform="translate(1107.33 486.05) rotate(165.51) scale(1.11)"
  />
  <use
    xlink:href="#l3"
    transform="translate(827.41 595.22) rotate(341.13) scale(0.94)"
  />
  <use
    xlink:href="#l3"
    transform="translate(1174.94 287.43) rotate(273.48) scale(0.88)"
  />
  <use
    xlink:href="#l3"
    transform="translate(496.3 486.11) rotate(44.17) scale(0.86)"
  />
  <use
    xlink:href="#l3"
    transform="translate(724.4 427.56) rotate(115.82) scale(1.16)"
  />
  <use
    xlink:href="#l3"
    transform="translate(182.09 458.6) rotate(304.54) scale(0.9)"
  />
  <use
    xlink:href="#l3"
    transform="translate(195.22 305.05) rotate(278.16) scale(0.93)"
  />
  <use
    xlink:href="#l3"
    transform="translate(835.76 39.46) rotate(215.31) scale(1.1)"
  />
  <use
    xlink:href="#l3"
    transform="translate(675.14 669.58) rotate(145.77) scale(0.98)"
  />
  <use
    xlink:href="#l3"
    transform="translate(760.15 265.1) rotate(146.72) scale(0.98)"
  />
  <use
    xlink:href="#l3"
    transform="translate(1196.9 649.03) rotate(230.2) scale(1.15)"
  />
  <use
    xlink:href="#l3"
    transform="translate(1058.46 142.56) rotate(169.67) scale(1.05)"
  />
  <use
    xlink:href="#l3"
    transform="translate(956.15 391.28) rotate(352.29) scale(1.13)"
  />
  <use
    xlink:href="#l3"
    transform="translate(373.37 530.6) rotate(141.86) scale(1.13)"
  />
  <use
    xlink:href="#l3"
    transform="translate(992.82 499.54) rotate(140.42) scale(0.99)"
  />
  <use
    xlink:href="#l3"
    transform="translate(454.43 328.37) rotate(345.89) scale(1.07)"
  />
  <text
    x="600"
    y="400"
    font-family="courier new, courier, monospace"
    font-weight="bold"
    font-size="120"
    fill="black"
    text-anchor="middle"
    alignment-baseline="middle"
  >tt()×2</text>
</svg>
