<svg
  xmlns="http://www.w3.org/2000/svg"
  xmlns:xlink="http://www.w3.org/1999/xlink"
  viewBox="0 0 1200 800"
>
  <title>Frontend 3: Extra Time</title>
  <style>
    :root { color: #feca2f; background-color: currentcolor; max-width: 100% }
    body { margin: 0 }
    path { fill: none; stroke: hsl(45, 99%, 67%); stroke-width: 5px; stroke-linecap: round }
    path:nth-child(odd) { stroke: hsl(45, 99%, 52%) }
  </style>
  <rect width="100%" height="100%" fill="currentcolor"/>
  <defs>
  <path id="t1" d="M7.76,10.89c-1.5,2.18-2.77,4.5-4.27,6.68-1.12,1.63-2.22,4-.86,5.41a4.34,4.34,0,0,0,2.25,1,130.06,130.06,0,0,0,24.85,3.36,2.65,2.65,0,0,0,2-.45,2.5,2.5,0,0,0,.51-2c-.43-7.43-5.32-13.76-10-19.55C21.15,4,20,2.67,18.4,2.18a5.71,5.71,0,0,0-5,1.19,16.87,16.87,0,0,0-3.43,4c-1.43,2.11-.79,1.36-2.23,3.47">
    <animate
      attributeName="opacity"
      repeatCount="indefinite"
      dur="20s"
      values="1;1;1;0;0;0;0;0;1"
    />
    <animateTransform
      attributeName="transform"
      type="rotate"
      repeatCount="indefinite"
      dur="80s"
      from="360 150 150"
      to="0 150 150"
    />
  </path>
  <path id="c1" d="M12.36,11.18a1.16,1.16,0,0,0-1.63-.11,3,3,0,0,0-.87,1.58c-.61,2.11-.78,4.58.55,6.32,1.71,2.23,5.36,2.21,7.57.46s3.15-4.69,3.26-7.5a13.18,13.18,0,0,0-1.89-7.67A9.12,9.12,0,0,0,12.85,0,9.93,9.93,0,0,0,4.51,3.82,20.08,20.08,0,0,0,.67,12.45c-.86,3.8-1.14,8,.63,11.44,2.31,4.55,7.64,6.85,12.72,7.3a13.12,13.12,0,0,0,7.81-1.32,15.12,15.12,0,0,0,5-5.68c2.11-3.59,3.87-7.56,3.88-11.73S28.64,3.9,24.84,2.21">
    <animate
      attributeName="opacity"
      repeatCount="indefinite"
      dur="20s"
      values="0;1;1;1;0;0;0;0;0"
    />
    <animateTransform
      attributeName="transform"
      type="rotate"
      repeatCount="indefinite"
      dur="80s"
      from="360 150 150"
      to="0 150 150"
    />
  </path>
  <path id="l1" d="M2.07,10.63a6,6,0,0,0,2.89,6A6,6,0,0,0,11.59,16c3.64-3.14,2.84-10.08,7.21-12.06,2.83-1.29,6.15.49,8.31,2.72s3.86,5,6.55,6.59a9.31,9.31,0,0,0,10.47-1A9.31,9.31,0,0,0,46.62,2">
    <animate
      attributeName="opacity"
      repeatCount="indefinite"
      dur="20s"
      values="0;0;1;1;1;0;0;0;0"
    />
    <animateTransform
      attributeName="transform"
      type="rotate"
      repeatCount="indefinite"
      dur="80s"
      from="360 150 150"
      to="0 150 150"
    />
  </path>
  <path id="t2" d="M23.42,19c-1.93-6-2.36-7.18-4.09-13.2-.54-1.88-1.82-4.21-3.71-3.74a3.78,3.78,0,0,0-1.45.88,120.75,120.75,0,0,0-9.68,9.15c-1.38,1.45-2.82,3.27-2.41,5.23a6.22,6.22,0,0,0,2.63,3.34,73,73,0,0,0,15.38,9.16c2,.87,4.64,1.5,6-.18s.26-4-1-5.75S24.06,21,23.42,19Z">
    <animate
      attributeName="opacity"
      repeatCount="indefinite"
      dur="20s"
      values="0;0;0;1;1;1;0;0;0"
    />
    <animateTransform
      attributeName="transform"
      type="rotate"
      repeatCount="indefinite"
      dur="80s"
      from="360 150 150"
      to="0 150 150"
    />
  </path>
  <path id="c2" d="M13.44,10.08a2.92,2.92,0,0,0-4.15-.66C7.93,10.56,8,12.75,8.79,14.32a6.86,6.86,0,0,0,8.38,3,7.23,7.23,0,0,0,4.17-8A11.85,11.85,0,0,0,18.15,4,11.42,11.42,0,0,0,12.33.14a9.79,9.79,0,0,0-7.4,2C1.72,4.41-.71,8.37.19,12.21a13.84,13.84,0,0,0,1.85,4,30.12,30.12,0,0,0,5,6.55A11.53,11.53,0,0,0,14.33,26,12.35,12.35,0,0,0,22,23.15c4.33-3.33,7.31-9,5.86-14.3">
    <animate
      attributeName="opacity"
      repeatCount="indefinite"
      dur="20s"
      values="0;0;0;0;1;1;1;0;0"
    />
    <animateTransform
      attributeName="transform"
      type="rotate"
      repeatCount="indefinite"
      dur="80s"
      from="360 150 150"
      to="0 150 150"
    />
  </path>
  <path id="l2" d="M85.7,8.9c.33-3.32-2.7-6.31-6-6.81s-6.62,1-9.21,3.12S65.89,10,63.64,12.49a9.41,9.41,0,0,1-4.58,3.19c-3.47.78-6.65-2.08-8.76-4.94s-4.2-6.21-7.64-7.11c-3.79-1-7.67,1.51-10.15,4.54s-4.16,6.7-6.93,9.47S18.31,22.12,15,20.06a12.07,12.07,0,0,1-3.69-4.46L7.93,9.85A7.14,7.14,0,0,0,5.39,6.91C4.22,6.3,2.5,6.56,2,7.78">
    <animate
      attributeName="opacity"
      repeatCount="indefinite"
      dur="20s"
      values="0;0;0;0;0;1;1;1;0"
    />
    <animateTransform
      attributeName="transform"
      type="rotate"
      repeatCount="indefinite"
      dur="80s"
      from="360 150 150"
      to="0 150 150"
    />
  </path>
  <path id="t3" d="M16.58,2.36A68.52,68.52,0,0,0,5.33,2.14,4.14,4.14,0,0,0,2.7,3C1.38,4.23,2.18,6.42,3,8l8.1,14.87c.65,1.2,1.43,2.5,2.75,2.87a4.89,4.89,0,0,0,3.37-.69A42.36,42.36,0,0,0,32.45,12.46a8.56,8.56,0,0,0,1.79-3.54,3.37,3.37,0,0,0-1.38-3.5A5,5,0,0,0,31,4.92C25.13,4.1,22.51,2.9,16.58,2.36Z">
    <animate
      attributeName="opacity"
      repeatCount="indefinite"
      dur="20s"
      values="1;0;0;0;0;0;1;1;1"
    />
    <animateTransform
      attributeName="transform"
      type="rotate"
      repeatCount="indefinite"
      dur="80s"
      from="360 150 150"
      to="0 150 150"
    />
  </path>
  <path id="c3" d="M16.66,19.31c0-2.1-2.84-3.38-4.68-2.35s-2.46,3.52-1.85,5.54c1.12,3.7,5.8,5.64,9.41,4.27s5.81-5.44,5.52-9.3a12.82,12.82,0,0,0-6-9.46A12.7,12.7,0,0,0,8,6.38,12.65,12.65,0,0,0,.54,15.12a20.73,20.73,0,0,0,.75,11.75,17.2,17.2,0,0,0,2.43,4.92c3.94,5.26,11.55,6.36,18,5a17.51,17.51,0,0,0,7.55-3.24,15.27,15.27,0,0,0,4.9-8.16A20.76,20.76,0,0,0,18.61,0">
    <animate
      attributeName="opacity"
      repeatCount="indefinite"
      dur="20s"
      values="1;0;0;0;0;0;0;1;1"
    />
    <animateTransform
      attributeName="transform"
      type="rotate"
      repeatCount="indefinite"
      dur="80s"
      from="360 150 150"
      to="0 150 150"
    />
  </path>
  <path id="l3" d="M2,19.86c2.37-3.51,2.92-9.08,7-10,2.51-.58,5,1.1,6.65,3.1s2.78,4.4,4.69,6.14a10.34,10.34,0,0,0,13.12.34c3.4-2.8,4.55-7.42,6.65-11.29S46.72.68,50.74,2.48c5.2,2.33,4.63,11.25,9.95,13.29a8.22,8.22,0,0,0,6.09-.56,18.15,18.15,0,0,0,9.57-9.86">
    <animate
      attributeName="opacity"
      repeatCount="indefinite"
      dur="20s"
      values="1;1;0;0;0;0;0;0;1"
    />
    <animateTransform
      attributeName="transform"
      type="rotate"
      repeatCount="indefinite"
      dur="80s"
      from="360 150 150"
      to="0 150 150"
    />
  </path>
  </defs>
  <use
    xlink:href="#t1"
    transform="translate(713.57 723.71) rotate(351.35) scale(1.03)"
  />
  <use
    xlink:href="#t1"
    transform="translate(315.83 580.89) rotate(222.9) scale(0.87)"
  />
  <use
    xlink:href="#t1"
    transform="translate(726.44 760.95) rotate(301.73) scale(0.92)"
  />
  <use
    xlink:href="#t1"
    transform="translate(230.62 143.7) rotate(5.96) scale(1.04)"
  />
  <use
    xlink:href="#t1"
    transform="translate(619.79 240.4) rotate(288.65) scale(1.14)"
  />
  <use
    xlink:href="#t1"
    transform="translate(1195.21 314.36) rotate(58.95) scale(0.92)"
  />
  <use
    xlink:href="#t1"
    transform="translate(1011.62 636.22) rotate(258.4) scale(1.18)"
  />
  <use
    xlink:href="#t1"
    transform="translate(425.89 291.37) rotate(334.34) scale(0.9)"
  />
  <use
    xlink:href="#t1"
    transform="translate(827.59 774.54) rotate(133.89) scale(0.8)"
  />
  <use
    xlink:href="#t1"
    transform="translate(364.2 546.52) rotate(232.6) scale(1.03)"
  />
  <use
    xlink:href="#t1"
    transform="translate(681.19 610.05) rotate(249.04) scale(0.83)"
  />
  <use
    xlink:href="#t1"
    transform="translate(683.53 559.94) rotate(59.27) scale(1.17)"
  />
  <use
    xlink:href="#t1"
    transform="translate(440.06 599.55) rotate(316.8) scale(0.89)"
  />
  <use
    xlink:href="#t1"
    transform="translate(724.54 678.17) rotate(12.1) scale(0.92)"
  />
  <use
    xlink:href="#t1"
    transform="translate(904.68 206.05) rotate(98.45) scale(0.96)"
  />
  <use
    xlink:href="#t1"
    transform="translate(803.31 91.48) rotate(340.87) scale(0.8)"
  />
  <use
    xlink:href="#t1"
    transform="translate(806.9 107.97) rotate(327.72) scale(1.1)"
  />
  <use
    xlink:href="#t1"
    transform="translate(925.77 537.05) rotate(104.29) scale(0.86)"
  />
  <use
    xlink:href="#t1"
    transform="translate(384.98 51.57) rotate(279.97) scale(0.82)"
  />
  <use
    xlink:href="#t1"
    transform="translate(467.81 42.59) rotate(91) scale(0.86)"
  />
  <use
    xlink:href="#c1"
    transform="translate(1078.23 156.89) rotate(307.91) scale(1.03)"
  />
  <use
    xlink:href="#c1"
    transform="translate(743.11 567.63) rotate(122.58) scale(0.82)"
  />
  <use
    xlink:href="#c1"
    transform="translate(918.59 383.95) rotate(184.31) scale(0.95)"
  />
  <use
    xlink:href="#c1"
    transform="translate(239.48 299.84) rotate(68.44) scale(1.15)"
  />
  <use
    xlink:href="#c1"
    transform="translate(254.05 570.39) rotate(61.17) scale(0.97)"
  />
  <use
    xlink:href="#c1"
    transform="translate(121.26 499.03) rotate(286.31) scale(0.9)"
  />
  <use
    xlink:href="#c1"
    transform="translate(545.12 599.66) rotate(22.24) scale(1.16)"
  />
  <use
    xlink:href="#c1"
    transform="translate(1161.21 785.72) rotate(338.19) scale(1.17)"
  />
  <use
    xlink:href="#c1"
    transform="translate(1034.29 209.76) rotate(44.69) scale(1.15)"
  />
  <use
    xlink:href="#c1"
    transform="translate(549.32 646.11) rotate(171.68) scale(0.91)"
  />
  <use
    xlink:href="#c1"
    transform="translate(195.26 275.32) rotate(199.37) scale(1.05)"
  />
  <use
    xlink:href="#c1"
    transform="translate(809.35 48.04) rotate(1.69) scale(1.04)"
  />
  <use
    xlink:href="#c1"
    transform="translate(832.45 445.87) rotate(293.48) scale(1.12)"
  />
  <use
    xlink:href="#c1"
    transform="translate(392.86 63.35) rotate(46.16) scale(0.85)"
  />
  <use
    xlink:href="#c1"
    transform="translate(458.99 26.8) rotate(107.07) scale(0.87)"
  />
  <use
    xlink:href="#c1"
    transform="translate(604.29 55.24) rotate(318.04) scale(0.88)"
  />
  <use
    xlink:href="#c1"
    transform="translate(731.28 589.25) rotate(241.54) scale(1.11)"
  />
  <use
    xlink:href="#c1"
    transform="translate(561.6 430.54) rotate(189.05) scale(1.02)"
  />
  <use
    xlink:href="#c1"
    transform="translate(597.03 699.76) rotate(175.74) scale(1)"
  />
  <use
    xlink:href="#c1"
    transform="translate(620.34 110.83) rotate(176.29) scale(1.04)"
  />
  <use
    xlink:href="#l1"
    transform="translate(734.62 343.96) rotate(283.8) scale(1.06)"
  />
  <use
    xlink:href="#l1"
    transform="translate(876.74 364.26) rotate(5.1) scale(0.89)"
  />
  <use
    xlink:href="#l1"
    transform="translate(647.89 411.79) rotate(110.67) scale(1.12)"
  />
  <use
    xlink:href="#l1"
    transform="translate(1048.87 540.57) rotate(357.14) scale(1.05)"
  />
  <use
    xlink:href="#l1"
    transform="translate(721.91 355.6) rotate(238.76) scale(0.94)"
  />
  <use
    xlink:href="#l1"
    transform="translate(479.19 273.31) rotate(336.9) scale(1.09)"
  />
  <use
    xlink:href="#l1"
    transform="translate(798.12 106.01) rotate(284.77) scale(1.11)"
  />
  <use
    xlink:href="#l1"
    transform="translate(463.73 544.72) rotate(178.35) scale(0.8)"
  />
  <use
    xlink:href="#l1"
    transform="translate(1147.82 178.12) rotate(91.49) scale(0.88)"
  />
  <use
    xlink:href="#l1"
    transform="translate(538.38 48.21) rotate(268.82) scale(0.84)"
  />
  <use
    xlink:href="#l1"
    transform="translate(955.07 272.49) rotate(93.64) scale(1.05)"
  />
  <use
    xlink:href="#l1"
    transform="translate(565.1 452.12) rotate(158.49) scale(1.15)"
  />
  <use
    xlink:href="#l1"
    transform="translate(374.1 697.92) rotate(59.1) scale(0.98)"
  />
  <use
    xlink:href="#l1"
    transform="translate(398.94 354.45) rotate(212.03) scale(1.03)"
  />
  <use
    xlink:href="#l1"
    transform="translate(641.36 73.19) rotate(250.15) scale(0.89)"
  />
  <use
    xlink:href="#l1"
    transform="translate(550.51 122.94) rotate(272.13) scale(0.83)"
  />
  <use
    xlink:href="#l1"
    transform="translate(798.06 235.3) rotate(348.23) scale(1.13)"
  />
  <use
    xlink:href="#l1"
    transform="translate(1187.86 14.35) rotate(345.26) scale(1.04)"
  />
  <use
    xlink:href="#l1"
    transform="translate(913.67 72.22) rotate(204.53) scale(1.12)"
  />
  <use
    xlink:href="#l1"
    transform="translate(72.7 522.24) rotate(283.86) scale(0.99)"
  />
  <use
    xlink:href="#t2"
    transform="translate(985.49 364.07) rotate(60.19) scale(1.07)"
  />
  <use
    xlink:href="#t2"
    transform="translate(865.64 542.3) rotate(180.74) scale(0.97)"
  />
  <use
    xlink:href="#t2"
    transform="translate(161.17 327.53) rotate(123.06) scale(0.8)"
  />
  <use
    xlink:href="#t2"
    transform="translate(172.44 786.18) rotate(343.66) scale(1.17)"
  />
  <use
    xlink:href="#t2"
    transform="translate(486.78 690.78) rotate(349.98) scale(1.06)"
  />
  <use
    xlink:href="#t2"
    transform="translate(418.47 302.94) rotate(118.26) scale(0.99)"
  />
  <use
    xlink:href="#t2"
    transform="translate(175.36 397.29) rotate(27.14) scale(1.05)"
  />
  <use
    xlink:href="#t2"
    transform="translate(1116.19 705.82) rotate(102.94) scale(1.1)"
  />
  <use
    xlink:href="#t2"
    transform="translate(998.27 484.51) rotate(17.44) scale(1.1)"
  />
  <use
    xlink:href="#t2"
    transform="translate(376.61 763.94) rotate(256.89) scale(1.19)"
  />
  <use
    xlink:href="#t2"
    transform="translate(233.12 252.55) rotate(87.8) scale(1.03)"
  />
  <use
    xlink:href="#t2"
    transform="translate(1079.25 492.58) rotate(13.84) scale(0.92)"
  />
  <use
    xlink:href="#t2"
    transform="translate(580.23 451.05) rotate(162.73) scale(1.19)"
  />
  <use
    xlink:href="#t2"
    transform="translate(745.02 82.44) rotate(241.76) scale(0.92)"
  />
  <use
    xlink:href="#t2"
    transform="translate(70.47 346.58) rotate(262.48) scale(1.19)"
  />
  <use
    xlink:href="#t2"
    transform="translate(685.02 55.39) rotate(351.21) scale(1.09)"
  />
  <use
    xlink:href="#t2"
    transform="translate(719.87 293.03) rotate(178.29) scale(1.1)"
  />
  <use
    xlink:href="#t2"
    transform="translate(672.33 649.13) rotate(299.65) scale(1.05)"
  />
  <use
    xlink:href="#t2"
    transform="translate(727.81 309.98) rotate(229.07) scale(0.81)"
  />
  <use
    xlink:href="#t2"
    transform="translate(688.2 366.56) rotate(91.38) scale(0.83)"
  />
  <use
    xlink:href="#c2"
    transform="translate(804.71 601.36) rotate(223.04) scale(0.86)"
  />
  <use
    xlink:href="#c2"
    transform="translate(1055.2 95.62) rotate(63.39) scale(1.05)"
  />
  <use
    xlink:href="#c2"
    transform="translate(894.27 693.86) rotate(183.19) scale(1.05)"
  />
  <use
    xlink:href="#c2"
    transform="translate(127.4 499.14) rotate(325.94) scale(0.9)"
  />
  <use
    xlink:href="#c2"
    transform="translate(559.32 56.39) rotate(81.13) scale(1.11)"
  />
  <use
    xlink:href="#c2"
    transform="translate(718.92 254.78) rotate(56.74) scale(1.13)"
  />
  <use
    xlink:href="#c2"
    transform="translate(137.03 383.37) rotate(236.44) scale(0.8)"
  />
  <use
    xlink:href="#c2"
    transform="translate(443.77 23.67) rotate(32.08) scale(1.19)"
  />
  <use
    xlink:href="#c2"
    transform="translate(1050.15 682.8) rotate(126.32) scale(0.92)"
  />
  <use
    xlink:href="#c2"
    transform="translate(393.04 640.27) rotate(223.52) scale(0.8)"
  />
  <use
    xlink:href="#c2"
    transform="translate(707.05 594.31) rotate(189.91) scale(1.12)"
  />
  <use
    xlink:href="#c2"
    transform="translate(967.52 247.81) rotate(227.41) scale(1.18)"
  />
  <use
    xlink:href="#c2"
    transform="translate(902.94 125.79) rotate(62.3) scale(0.95)"
  />
  <use
    xlink:href="#c2"
    transform="translate(684.75 415.46) rotate(170) scale(1.11)"
  />
  <use
    xlink:href="#c2"
    transform="translate(977.16 306.96) rotate(6.55) scale(1.02)"
  />
  <use
    xlink:href="#c2"
    transform="translate(477.19 726.96) rotate(339.96) scale(0.84)"
  />
  <use
    xlink:href="#c2"
    transform="translate(153.79 704.16) rotate(2.79) scale(0.92)"
  />
  <use
    xlink:href="#c2"
    transform="translate(1174.95 65.07) rotate(13.46) scale(1)"
  />
  <use
    xlink:href="#c2"
    transform="translate(580.42 344.65) rotate(61.5) scale(0.96)"
  />
  <use
    xlink:href="#c2"
    transform="translate(413.22 733.58) rotate(352.34) scale(0.8)"
  />
  <use
    xlink:href="#l2"
    transform="translate(363.68 701.72) rotate(76.31) scale(1.15)"
  />
  <use
    xlink:href="#l2"
    transform="translate(212.22 775.53) rotate(250.32) scale(1.12)"
  />
  <use
    xlink:href="#l2"
    transform="translate(468.95 610.65) rotate(311.16) scale(0.84)"
  />
  <use
    xlink:href="#l2"
    transform="translate(952.57 529.31) rotate(345.04) scale(0.89)"
  />
  <use
    xlink:href="#l2"
    transform="translate(902.96 537.85) rotate(174.16) scale(1.05)"
  />
  <use
    xlink:href="#l2"
    transform="translate(846.11 469.78) rotate(318.56) scale(1.08)"
  />
  <use
    xlink:href="#l2"
    transform="translate(1153.31 550.02) rotate(20.99) scale(1.19)"
  />
  <use
    xlink:href="#l2"
    transform="translate(269.53 721.03) rotate(75.29) scale(0.98)"
  />
  <use
    xlink:href="#l2"
    transform="translate(1118.62 281.96) rotate(275.18) scale(0.9)"
  />
  <use
    xlink:href="#l2"
    transform="translate(900.66 330.9) rotate(345.03) scale(1.18)"
  />
  <use
    xlink:href="#l2"
    transform="translate(499.59 210.44) rotate(352.12) scale(1.11)"
  />
  <use
    xlink:href="#l2"
    transform="translate(9.65 149.86) rotate(11.59) scale(0.96)"
  />
  <use
    xlink:href="#l2"
    transform="translate(56.72 704.34) rotate(152.86) scale(0.92)"
  />
  <use
    xlink:href="#l2"
    transform="translate(397.52 577.66) rotate(33.97) scale(0.96)"
  />
  <use
    xlink:href="#l2"
    transform="translate(553.76 207.2) rotate(267.32) scale(1.18)"
  />
  <use
    xlink:href="#l2"
    transform="translate(952.94 86.31) rotate(312.34) scale(1.09)"
  />
  <use
    xlink:href="#l2"
    transform="translate(773.25 99.75) rotate(226.43) scale(1.09)"
  />
  <use
    xlink:href="#l2"
    transform="translate(343.13 66.38) rotate(156.26) scale(0.88)"
  />
  <use
    xlink:href="#l2"
    transform="translate(1065.76 337.14) rotate(177.79) scale(0.95)"
  />
  <use
    xlink:href="#l2"
    transform="translate(707.19 395.44) rotate(101.35) scale(0.99)"
  />
  <use
    xlink:href="#t3"
    transform="translate(288.8 382.74) rotate(54.05) scale(1.04)"
  />
  <use
    xlink:href="#t3"
    transform="translate(360.36 619.06) rotate(39.8) scale(1.05)"
  />
  <use
    xlink:href="#t3"
    transform="translate(388.12 196.32) rotate(167.64) scale(0.97)"
  />
  <use
    xlink:href="#t3"
    transform="translate(507.11 28.19) rotate(220.49) scale(0.86)"
  />
  <use
    xlink:href="#t3"
    transform="translate(175.09 137.42) rotate(246.9) scale(1)"
  />
  <use
    xlink:href="#t3"
    transform="translate(126.63 210.52) rotate(258.99) scale(1.01)"
  />
  <use
    xlink:href="#t3"
    transform="translate(950.18 415.03) rotate(101.11) scale(1.08)"
  />
  <use
    xlink:href="#t3"
    transform="translate(764.53 635.68) rotate(165.59) scale(0.98)"
  />
  <use
    xlink:href="#t3"
    transform="translate(764.62 89.54) rotate(125.66) scale(1.17)"
  />
  <use
    xlink:href="#t3"
    transform="translate(1028.03 794.29) rotate(269.82) scale(0.82)"
  />
  <use
    xlink:href="#t3"
    transform="translate(844.39 608.2) rotate(212.17) scale(0.93)"
  />
  <use
    xlink:href="#t3"
    transform="translate(442.21 275.89) rotate(118.08) scale(0.91)"
  />
  <use
    xlink:href="#t3"
    transform="translate(1077.91 611.98) rotate(260.92) scale(0.96)"
  />
  <use
    xlink:href="#t3"
    transform="translate(708.53 356.83) rotate(91.92) scale(1.06)"
  />
  <use
    xlink:href="#t3"
    transform="translate(245.2 21.58) rotate(350.02) scale(0.97)"
  />
  <use
    xlink:href="#t3"
    transform="translate(870.26 490.39) rotate(294.24) scale(1)"
  />
  <use
    xlink:href="#t3"
    transform="translate(117.36 729.69) rotate(140.71) scale(1.16)"
  />
  <use
    xlink:href="#t3"
    transform="translate(66.86 116.48) rotate(109.62) scale(0.89)"
  />
  <use
    xlink:href="#t3"
    transform="translate(411.69 733.95) rotate(356.51) scale(1.1)"
  />
  <use
    xlink:href="#t3"
    transform="translate(754.13 774.5) rotate(138.45) scale(0.89)"
  />
  <use
    xlink:href="#c3"
    transform="translate(78.86 95.92) rotate(114.53) scale(0.85)"
  />
  <use
    xlink:href="#c3"
    transform="translate(529.23 543.26) rotate(321.94) scale(1.07)"
  />
  <use
    xlink:href="#c3"
    transform="translate(66.32 583.13) rotate(134.39) scale(0.96)"
  />
  <use
    xlink:href="#c3"
    transform="translate(433.09 350.32) rotate(330.22) scale(1.1)"
  />
  <use
    xlink:href="#c3"
    transform="translate(361.67 84.61) rotate(156.61) scale(1.12)"
  />
  <use
    xlink:href="#c3"
    transform="translate(126.85 281.35) rotate(22.16) scale(0.88)"
  />
  <use
    xlink:href="#c3"
    transform="translate(625.01 191.07) rotate(84.9) scale(0.96)"
  />
  <use
    xlink:href="#c3"
    transform="translate(239.38 786.5) rotate(126.19) scale(1.13)"
  />
  <use
    xlink:href="#c3"
    transform="translate(504.26 362.92) rotate(35.72) scale(0.86)"
  />
  <use
    xlink:href="#c3"
    transform="translate(1035.84 352.13) rotate(123.37) scale(0.96)"
  />
  <use
    xlink:href="#c3"
    transform="translate(643.26 464.27) rotate(66.71) scale(1.1)"
  />
  <use
    xlink:href="#c3"
    transform="translate(480.86 687.91) rotate(146.11) scale(1.19)"
  />
  <use
    xlink:href="#c3"
    transform="translate(313.28 627.79) rotate(129.14) scale(0.98)"
  />
  <use
    xlink:href="#c3"
    transform="translate(208.53 467.46) rotate(335.55) scale(1.06)"
  />
  <use
    xlink:href="#c3"
    transform="translate(2.78 684.22) rotate(100.6) scale(0.9)"
  />
  <use
    xlink:href="#c3"
    transform="translate(1046.07 157.22) rotate(72.12) scale(0.94)"
  />
  <use
    xlink:href="#c3"
    transform="translate(279.02 514.06) rotate(165.61) scale(0.85)"
  />
  <use
    xlink:href="#c3"
    transform="translate(523.57 535.26) rotate(226.14) scale(1.15)"
  />
  <use
    xlink:href="#c3"
    transform="translate(620.44 314.44) rotate(17.68) scale(0.94)"
  />
  <use
    xlink:href="#c3"
    transform="translate(1073.49 493.93) rotate(19.6) scale(0.8)"
  />
  <use
    xlink:href="#l3"
    transform="translate(543.06 212.76) rotate(0.57) scale(1.03)"
  />
  <use
    xlink:href="#l3"
    transform="translate(627 278.88) rotate(34.52) scale(0.94)"
  />
  <use
    xlink:href="#l3"
    transform="translate(606.35 627.06) rotate(109.65) scale(1.03)"
  />
  <use
    xlink:href="#l3"
    transform="translate(913.29 771.12) rotate(70.39) scale(1.18)"
  />
  <use
    xlink:href="#l3"
    transform="translate(749.7 32.44) rotate(130.62) scale(1.12)"
  />
  <use
    xlink:href="#l3"
    transform="translate(237.35 410.66) rotate(213.28) scale(1.01)"
  />
  <use
    xlink:href="#l3"
    transform="translate(995.74 657.53) rotate(55.32) scale(1)"
  />
  <use
    xlink:href="#l3"
    transform="translate(930.09 280.96) rotate(138.83) scale(0.83)"
  />
  <use
    xlink:href="#l3"
    transform="translate(1139.44 191.44) rotate(334.53) scale(1.18)"
  />
  <use
    xlink:href="#l3"
    transform="translate(806.11 28.85) rotate(219.08) scale(0.91)"
  />
  <use
    xlink:href="#l3"
    transform="translate(18.49 187.83) rotate(358.15) scale(1.03)"
  />
  <use
    xlink:href="#l3"
    transform="translate(935.04 666.63) rotate(320.26) scale(0.9)"
  />
  <use
    xlink:href="#l3"
    transform="translate(499.79 490.7) rotate(275.86) scale(1.07)"
  />
  <use
    xlink:href="#l3"
    transform="translate(1068.96 48.74) rotate(240.82) scale(1.05)"
  />
  <use
    xlink:href="#l3"
    transform="translate(39.38 437.36) rotate(154.42) scale(0.83)"
  />
  <use
    xlink:href="#l3"
    transform="translate(1187.86 73.23) rotate(310.55) scale(0.94)"
  />
  <use
    xlink:href="#l3"
    transform="translate(1085.72 363.91) rotate(20.55) scale(1.1)"
  />
  <use
    xlink:href="#l3"
    transform="translate(559.58 423.22) rotate(23.13) scale(0.85)"
  />
  <use
    xlink:href="#l3"
    transform="translate(1110.94 637.12) rotate(318.62) scale(0.97)"
  />
  <use
    xlink:href="#l3"
    transform="translate(687.11 23.06) rotate(10.95) scale(1.18)"
  />
  <text
    x="600"
    y="400"
    font-family="courier new, courier, monospace"
    font-weight="bold"
    font-size="120"
    fill="black"
    text-anchor="middle"
    alignment-baseline="middle"
  >fe(3)×et</text>
</svg>
