<svg
  xmlns="http://www.w3.org/2000/svg"
  xmlns:xlink="http://www.w3.org/1999/xlink"
  viewBox="0 0 1200 800"
>
  <title>Frontend 3</title>
  <style>
    :root { color: #feca2f; background-color: currentcolor; max-width: 100% }
    body { margin: 0 }
    path { fill: none; stroke: hsl(45, 99%, 67%);; stroke-width: 5px; stroke-linecap: round }
    path:nth-child(odd) { stroke: hsl(45, 99%, 52%) }
  </style>
  <rect width="100%" height="100%" fill="currentcolor"/>
  <defs>
  <path id="t1" d="M7.76,10.89c-1.5,2.18-2.77,4.5-4.27,6.68-1.12,1.63-2.22,4-.86,5.41a4.34,4.34,0,0,0,2.25,1,130.06,130.06,0,0,0,24.85,3.36,2.65,2.65,0,0,0,2-.45,2.5,2.5,0,0,0,.51-2c-.43-7.43-5.32-13.76-10-19.55C21.15,4,20,2.67,18.4,2.18a5.71,5.71,0,0,0-5,1.19,16.87,16.87,0,0,0-3.43,4c-1.43,2.11-.79,1.36-2.23,3.47">
    <animate
      attributeName="opacity"
      repeatCount="indefinite"
      dur="20s"
      values="1;1;1;0;0;0;0;0;1"
    />
    <animateTransform
      attributeName="transform"
      type="rotate"
      repeatCount="indefinite"
      dur="80s"
      from="360 150 150"
      to="0 150 150"
    />
  </path>,  <path id="c1" d="M12.36,11.18a1.16,1.16,0,0,0-1.63-.11,3,3,0,0,0-.87,1.58c-.61,2.11-.78,4.58.55,6.32,1.71,2.23,5.36,2.21,7.57.46s3.15-4.69,3.26-7.5a13.18,13.18,0,0,0-1.89-7.67A9.12,9.12,0,0,0,12.85,0,9.93,9.93,0,0,0,4.51,3.82,20.08,20.08,0,0,0,.67,12.45c-.86,3.8-1.14,8,.63,11.44,2.31,4.55,7.64,6.85,12.72,7.3a13.12,13.12,0,0,0,7.81-1.32,15.12,15.12,0,0,0,5-5.68c2.11-3.59,3.87-7.56,3.88-11.73S28.64,3.9,24.84,2.21">
    <animate
      attributeName="opacity"
      repeatCount="indefinite"
      dur="20s"
      values="0;1;1;1;0;0;0;0;0"
    />
    <animateTransform
      attributeName="transform"
      type="rotate"
      repeatCount="indefinite"
      dur="80s"
      from="360 150 150"
      to="0 150 150"
    />
  </path>,  <path id="l1" d="M2.07,10.63a6,6,0,0,0,2.89,6A6,6,0,0,0,11.59,16c3.64-3.14,2.84-10.08,7.21-12.06,2.83-1.29,6.15.49,8.31,2.72s3.86,5,6.55,6.59a9.31,9.31,0,0,0,10.47-1A9.31,9.31,0,0,0,46.62,2">
    <animate
      attributeName="opacity"
      repeatCount="indefinite"
      dur="20s"
      values="0;0;1;1;1;0;0;0;0"
    />
    <animateTransform
      attributeName="transform"
      type="rotate"
      repeatCount="indefinite"
      dur="80s"
      from="360 150 150"
      to="0 150 150"
    />
  </path>,  <path id="t2" d="M23.42,19c-1.93-6-2.36-7.18-4.09-13.2-.54-1.88-1.82-4.21-3.71-3.74a3.78,3.78,0,0,0-1.45.88,120.75,120.75,0,0,0-9.68,9.15c-1.38,1.45-2.82,3.27-2.41,5.23a6.22,6.22,0,0,0,2.63,3.34,73,73,0,0,0,15.38,9.16c2,.87,4.64,1.5,6-.18s.26-4-1-5.75S24.06,21,23.42,19Z">
    <animate
      attributeName="opacity"
      repeatCount="indefinite"
      dur="20s"
      values="0;0;0;1;1;1;0;0;0"
    />
    <animateTransform
      attributeName="transform"
      type="rotate"
      repeatCount="indefinite"
      dur="80s"
      from="360 150 150"
      to="0 150 150"
    />
  </path>,  <path id="c2" d="M13.44,10.08a2.92,2.92,0,0,0-4.15-.66C7.93,10.56,8,12.75,8.79,14.32a6.86,6.86,0,0,0,8.38,3,7.23,7.23,0,0,0,4.17-8A11.85,11.85,0,0,0,18.15,4,11.42,11.42,0,0,0,12.33.14a9.79,9.79,0,0,0-7.4,2C1.72,4.41-.71,8.37.19,12.21a13.84,13.84,0,0,0,1.85,4,30.12,30.12,0,0,0,5,6.55A11.53,11.53,0,0,0,14.33,26,12.35,12.35,0,0,0,22,23.15c4.33-3.33,7.31-9,5.86-14.3">
    <animate
      attributeName="opacity"
      repeatCount="indefinite"
      dur="20s"
      values="0;0;0;0;1;1;1;0;0"
    />
    <animateTransform
      attributeName="transform"
      type="rotate"
      repeatCount="indefinite"
      dur="80s"
      from="360 150 150"
      to="0 150 150"
    />
  </path>,  <path id="l2" d="M85.7,8.9c.33-3.32-2.7-6.31-6-6.81s-6.62,1-9.21,3.12S65.89,10,63.64,12.49a9.41,9.41,0,0,1-4.58,3.19c-3.47.78-6.65-2.08-8.76-4.94s-4.2-6.21-7.64-7.11c-3.79-1-7.67,1.51-10.15,4.54s-4.16,6.7-6.93,9.47S18.31,22.12,15,20.06a12.07,12.07,0,0,1-3.69-4.46L7.93,9.85A7.14,7.14,0,0,0,5.39,6.91C4.22,6.3,2.5,6.56,2,7.78">
    <animate
      attributeName="opacity"
      repeatCount="indefinite"
      dur="20s"
      values="0;0;0;0;0;1;1;1;0"
    />
    <animateTransform
      attributeName="transform"
      type="rotate"
      repeatCount="indefinite"
      dur="80s"
      from="360 150 150"
      to="0 150 150"
    />
  </path>,  <path id="t3" d="M16.58,2.36A68.52,68.52,0,0,0,5.33,2.14,4.14,4.14,0,0,0,2.7,3C1.38,4.23,2.18,6.42,3,8l8.1,14.87c.65,1.2,1.43,2.5,2.75,2.87a4.89,4.89,0,0,0,3.37-.69A42.36,42.36,0,0,0,32.45,12.46a8.56,8.56,0,0,0,1.79-3.54,3.37,3.37,0,0,0-1.38-3.5A5,5,0,0,0,31,4.92C25.13,4.1,22.51,2.9,16.58,2.36Z">
    <animate
      attributeName="opacity"
      repeatCount="indefinite"
      dur="20s"
      values="1;0;0;0;0;0;1;1;1"
    />
    <animateTransform
      attributeName="transform"
      type="rotate"
      repeatCount="indefinite"
      dur="80s"
      from="360 150 150"
      to="0 150 150"
    />
  </path>,  <path id="c3" d="M16.66,19.31c0-2.1-2.84-3.38-4.68-2.35s-2.46,3.52-1.85,5.54c1.12,3.7,5.8,5.64,9.41,4.27s5.81-5.44,5.52-9.3a12.82,12.82,0,0,0-6-9.46A12.7,12.7,0,0,0,8,6.38,12.65,12.65,0,0,0,.54,15.12a20.73,20.73,0,0,0,.75,11.75,17.2,17.2,0,0,0,2.43,4.92c3.94,5.26,11.55,6.36,18,5a17.51,17.51,0,0,0,7.55-3.24,15.27,15.27,0,0,0,4.9-8.16A20.76,20.76,0,0,0,18.61,0">
    <animate
      attributeName="opacity"
      repeatCount="indefinite"
      dur="20s"
      values="1;0;0;0;0;0;0;1;1"
    />
    <animateTransform
      attributeName="transform"
      type="rotate"
      repeatCount="indefinite"
      dur="80s"
      from="360 150 150"
      to="0 150 150"
    />
  </path>,  <path id="l3" d="M2,19.86c2.37-3.51,2.92-9.08,7-10,2.51-.58,5,1.1,6.65,3.1s2.78,4.4,4.69,6.14a10.34,10.34,0,0,0,13.12.34c3.4-2.8,4.55-7.42,6.65-11.29S46.72.68,50.74,2.48c5.2,2.33,4.63,11.25,9.95,13.29a8.22,8.22,0,0,0,6.09-.56,18.15,18.15,0,0,0,9.57-9.86">
    <animate
      attributeName="opacity"
      repeatCount="indefinite"
      dur="20s"
      values="1;1;0;0;0;0;0;0;1"
    />
    <animateTransform
      attributeName="transform"
      type="rotate"
      repeatCount="indefinite"
      dur="80s"
      from="360 150 150"
      to="0 150 150"
    />
  </path>
  </defs>
  <use
    xlink:href="#t1"
    transform="translate(246.45 82.6) rotate(338.43) scale(1.1)"
  />
  <use
    xlink:href="#t1"
    transform="translate(844.17 375.12) rotate(4.82) scale(1.01)"
  />
  <use
    xlink:href="#t1"
    transform="translate(364.5 409.95) rotate(339.07) scale(0.97)"
  />
  <use
    xlink:href="#t1"
    transform="translate(496.82 769.44) rotate(100.8) scale(0.99)"
  />
  <use
    xlink:href="#t1"
    transform="translate(486.95 422.06) rotate(93.22) scale(1.13)"
  />
  <use
    xlink:href="#t1"
    transform="translate(789.07 70.4) rotate(106.61) scale(1.16)"
  />
  <use
    xlink:href="#t1"
    transform="translate(40.49 594.01) rotate(246.77) scale(1.18)"
  />
  <use
    xlink:href="#t1"
    transform="translate(160.43 234.97) rotate(174.56) scale(0.81)"
  />
  <use
    xlink:href="#t1"
    transform="translate(900.6 125.05) rotate(103.7) scale(0.91)"
  />
  <use
    xlink:href="#t1"
    transform="translate(460.45 607.46) rotate(265.86) scale(0.89)"
  />
  <use
    xlink:href="#t1"
    transform="translate(165.84 270.76) rotate(275.68) scale(0.84)"
  />
  <use
    xlink:href="#t1"
    transform="translate(902.41 176.16) rotate(166.25) scale(1.15)"
  />
  <use
    xlink:href="#t1"
    transform="translate(426.1 773.99) rotate(141.57) scale(0.91)"
  />
  <use
    xlink:href="#t1"
    transform="translate(447.32 381.01) rotate(63.27) scale(1.06)"
  />
  <use
    xlink:href="#t1"
    transform="translate(730.11 340.39) rotate(252.56) scale(0.87)"
  />
  <use
    xlink:href="#t1"
    transform="translate(820.83 735.12) rotate(17.3) scale(1.03)"
  />
  <use
    xlink:href="#t1"
    transform="translate(623.83 162.62) rotate(343.2) scale(1.18)"
  />
  <use
    xlink:href="#t1"
    transform="translate(516.09 73.79) rotate(174.77) scale(1.01)"
  />
  <use
    xlink:href="#t1"
    transform="translate(615.21 515.86) rotate(212.39) scale(0.88)"
  />
  <use
    xlink:href="#t1"
    transform="translate(752.05 2.16) rotate(110.1) scale(0.86)"
  />,  <use
    xlink:href="#c1"
    transform="translate(1178.88 640.73) rotate(358.83) scale(1.19)"
  />
  <use
    xlink:href="#c1"
    transform="translate(1022.94 571.71) rotate(113.75) scale(0.84)"
  />
  <use
    xlink:href="#c1"
    transform="translate(0.74 352.89) rotate(333.52) scale(0.84)"
  />
  <use
    xlink:href="#c1"
    transform="translate(373.04 323.33) rotate(64.77) scale(0.81)"
  />
  <use
    xlink:href="#c1"
    transform="translate(1056.31 622.86) rotate(108.54) scale(0.98)"
  />
  <use
    xlink:href="#c1"
    transform="translate(332.12 317.32) rotate(119.68) scale(0.82)"
  />
  <use
    xlink:href="#c1"
    transform="translate(299.83 128.07) rotate(110.75) scale(0.8)"
  />
  <use
    xlink:href="#c1"
    transform="translate(51.73 27.91) rotate(251.58) scale(0.95)"
  />
  <use
    xlink:href="#c1"
    transform="translate(1151.92 17.31) rotate(263.46) scale(1.05)"
  />
  <use
    xlink:href="#c1"
    transform="translate(127.75 541.46) rotate(350.21) scale(1.05)"
  />
  <use
    xlink:href="#c1"
    transform="translate(305.96 349.28) rotate(45.71) scale(0.89)"
  />
  <use
    xlink:href="#c1"
    transform="translate(118.1 112.38) rotate(148.02) scale(1.03)"
  />
  <use
    xlink:href="#c1"
    transform="translate(207.86 485.98) rotate(332.75) scale(0.81)"
  />
  <use
    xlink:href="#c1"
    transform="translate(344.77 725.32) rotate(168.18) scale(0.91)"
  />
  <use
    xlink:href="#c1"
    transform="translate(513.83 153.63) rotate(201.5) scale(0.93)"
  />
  <use
    xlink:href="#c1"
    transform="translate(880.18 672.95) rotate(74.39) scale(1)"
  />
  <use
    xlink:href="#c1"
    transform="translate(1083.65 504.85) rotate(299.68) scale(1.06)"
  />
  <use
    xlink:href="#c1"
    transform="translate(1135.58 514.32) rotate(159.54) scale(1.16)"
  />
  <use
    xlink:href="#c1"
    transform="translate(1042.53 266.79) rotate(173.47) scale(1.1)"
  />
  <use
    xlink:href="#c1"
    transform="translate(1025.53 136.78) rotate(24.99) scale(1.01)"
  />,  <use
    xlink:href="#l1"
    transform="translate(389.13 763.24) rotate(282.09) scale(0.92)"
  />
  <use
    xlink:href="#l1"
    transform="translate(906.61 540.7) rotate(4.96) scale(0.84)"
  />
  <use
    xlink:href="#l1"
    transform="translate(947.45 750.38) rotate(252.89) scale(1.03)"
  />
  <use
    xlink:href="#l1"
    transform="translate(21.81 688.71) rotate(169.24) scale(1.1)"
  />
  <use
    xlink:href="#l1"
    transform="translate(1111.59 338.21) rotate(125.03) scale(1.13)"
  />
  <use
    xlink:href="#l1"
    transform="translate(1023.63 700.86) rotate(187.58) scale(1.05)"
  />
  <use
    xlink:href="#l1"
    transform="translate(224.74 104.87) rotate(334.45) scale(1.13)"
  />
  <use
    xlink:href="#l1"
    transform="translate(866.55 34.1) rotate(308.3) scale(1)"
  />
  <use
    xlink:href="#l1"
    transform="translate(192.46 303.4) rotate(249.66) scale(1.08)"
  />
  <use
    xlink:href="#l1"
    transform="translate(1190.38 796.49) rotate(61.77) scale(0.91)"
  />
  <use
    xlink:href="#l1"
    transform="translate(579.35 98.33) rotate(283.66) scale(0.82)"
  />
  <use
    xlink:href="#l1"
    transform="translate(1179.96 149.51) rotate(53.98) scale(0.86)"
  />
  <use
    xlink:href="#l1"
    transform="translate(283.04 367.48) rotate(246.67) scale(1.11)"
  />
  <use
    xlink:href="#l1"
    transform="translate(436.14 89.94) rotate(147) scale(0.82)"
  />
  <use
    xlink:href="#l1"
    transform="translate(23.86 547.07) rotate(120.51) scale(0.94)"
  />
  <use
    xlink:href="#l1"
    transform="translate(114.64 290.71) rotate(174.85) scale(0.85)"
  />
  <use
    xlink:href="#l1"
    transform="translate(589.29 413.44) rotate(116.59) scale(1.15)"
  />
  <use
    xlink:href="#l1"
    transform="translate(788.05 516.79) rotate(263.29) scale(0.98)"
  />
  <use
    xlink:href="#l1"
    transform="translate(410.88 712.52) rotate(105.24) scale(1.02)"
  />
  <use
    xlink:href="#l1"
    transform="translate(466.7 794.65) rotate(18.54) scale(1.14)"
  />,  <use
    xlink:href="#t2"
    transform="translate(602.6 512.57) rotate(13.64) scale(1.07)"
  />
  <use
    xlink:href="#t2"
    transform="translate(936.21 15.55) rotate(247.99) scale(1.14)"
  />
  <use
    xlink:href="#t2"
    transform="translate(953.25 741.02) rotate(253.72) scale(0.87)"
  />
  <use
    xlink:href="#t2"
    transform="translate(1178.05 675.56) rotate(203.86) scale(0.96)"
  />
  <use
    xlink:href="#t2"
    transform="translate(920.76 766.28) rotate(196.75) scale(1.13)"
  />
  <use
    xlink:href="#t2"
    transform="translate(151.2 277.48) rotate(282.93) scale(1.15)"
  />
  <use
    xlink:href="#t2"
    transform="translate(253.11 590.79) rotate(34.54) scale(1.03)"
  />
  <use
    xlink:href="#t2"
    transform="translate(531.77 737.88) rotate(107.15) scale(0.81)"
  />
  <use
    xlink:href="#t2"
    transform="translate(1074.3 711.14) rotate(272.37) scale(1.09)"
  />
  <use
    xlink:href="#t2"
    transform="translate(596.28 477.68) rotate(182.78) scale(1.06)"
  />
  <use
    xlink:href="#t2"
    transform="translate(298.01 409.7) rotate(242.59) scale(0.88)"
  />
  <use
    xlink:href="#t2"
    transform="translate(718.98 698.97) rotate(301.52) scale(1.08)"
  />
  <use
    xlink:href="#t2"
    transform="translate(1161.5 233.75) rotate(119.55) scale(1.01)"
  />
  <use
    xlink:href="#t2"
    transform="translate(875.79 693.98) rotate(209.45) scale(1.19)"
  />
  <use
    xlink:href="#t2"
    transform="translate(617.58 404.68) rotate(208.42) scale(1.15)"
  />
  <use
    xlink:href="#t2"
    transform="translate(79.47 672.19) rotate(322.58) scale(1.08)"
  />
  <use
    xlink:href="#t2"
    transform="translate(72.36 97.82) rotate(307.66) scale(1.17)"
  />
  <use
    xlink:href="#t2"
    transform="translate(135.5 13.52) rotate(260.3) scale(1.17)"
  />
  <use
    xlink:href="#t2"
    transform="translate(656.91 429.54) rotate(3.45) scale(1.19)"
  />
  <use
    xlink:href="#t2"
    transform="translate(840.85 131.61) rotate(160.24) scale(0.8)"
  />,  <use
    xlink:href="#c2"
    transform="translate(569.33 465.57) rotate(207.95) scale(0.99)"
  />
  <use
    xlink:href="#c2"
    transform="translate(320.91 356.37) rotate(116.94) scale(1.16)"
  />
  <use
    xlink:href="#c2"
    transform="translate(668.72 774.48) rotate(131.69) scale(0.87)"
  />
  <use
    xlink:href="#c2"
    transform="translate(550.78 63.18) rotate(55.69) scale(0.92)"
  />
  <use
    xlink:href="#c2"
    transform="translate(183.28 150.51) rotate(332.12) scale(1.06)"
  />
  <use
    xlink:href="#c2"
    transform="translate(367.19 298.55) rotate(235.65) scale(0.91)"
  />
  <use
    xlink:href="#c2"
    transform="translate(416.07 327.68) rotate(343.6) scale(0.88)"
  />
  <use
    xlink:href="#c2"
    transform="translate(652.23 79.75) rotate(212.12) scale(0.8)"
  />
  <use
    xlink:href="#c2"
    transform="translate(439.94 559.75) rotate(300.46) scale(0.82)"
  />
  <use
    xlink:href="#c2"
    transform="translate(995.72 661.29) rotate(347.43) scale(0.94)"
  />
  <use
    xlink:href="#c2"
    transform="translate(858.87 235.63) rotate(299.02) scale(0.83)"
  />
  <use
    xlink:href="#c2"
    transform="translate(13.18 46.25) rotate(318.51) scale(1.18)"
  />
  <use
    xlink:href="#c2"
    transform="translate(841.9 172.48) rotate(180.28) scale(0.81)"
  />
  <use
    xlink:href="#c2"
    transform="translate(289.18 262.1) rotate(140.39) scale(0.88)"
  />
  <use
    xlink:href="#c2"
    transform="translate(280.79 540.9) rotate(122.77) scale(0.81)"
  />
  <use
    xlink:href="#c2"
    transform="translate(502.68 721.92) rotate(26.87) scale(1.06)"
  />
  <use
    xlink:href="#c2"
    transform="translate(375.7 57.85) rotate(338.63) scale(1.07)"
  />
  <use
    xlink:href="#c2"
    transform="translate(522.81 185.09) rotate(29.29) scale(1.15)"
  />
  <use
    xlink:href="#c2"
    transform="translate(510.78 236.08) rotate(182.6) scale(1.13)"
  />
  <use
    xlink:href="#c2"
    transform="translate(385.16 370.57) rotate(183.72) scale(0.97)"
  />,  <use
    xlink:href="#l2"
    transform="translate(650.88 356.58) rotate(71.51) scale(0.96)"
  />
  <use
    xlink:href="#l2"
    transform="translate(690.64 411.08) rotate(64.81) scale(1.17)"
  />
  <use
    xlink:href="#l2"
    transform="translate(807.43 488.58) rotate(312.86) scale(1.15)"
  />
  <use
    xlink:href="#l2"
    transform="translate(313.36 748.31) rotate(245.22) scale(1.14)"
  />
  <use
    xlink:href="#l2"
    transform="translate(403.09 454.44) rotate(240.98) scale(1.03)"
  />
  <use
    xlink:href="#l2"
    transform="translate(707.9 420.69) rotate(156.21) scale(1.07)"
  />
  <use
    xlink:href="#l2"
    transform="translate(388.22 189.84) rotate(61.54) scale(1.15)"
  />
  <use
    xlink:href="#l2"
    transform="translate(166.11 516.81) rotate(355.64) scale(1.12)"
  />
  <use
    xlink:href="#l2"
    transform="translate(87.76 439.06) rotate(81.82) scale(1)"
  />
  <use
    xlink:href="#l2"
    transform="translate(1064.04 399.49) rotate(233.83) scale(1.15)"
  />
  <use
    xlink:href="#l2"
    transform="translate(1076.14 727.31) rotate(313.16) scale(0.87)"
  />
  <use
    xlink:href="#l2"
    transform="translate(1020.81 232.77) rotate(278.55) scale(0.94)"
  />
  <use
    xlink:href="#l2"
    transform="translate(762.44 278.46) rotate(272.73) scale(0.9)"
  />
  <use
    xlink:href="#l2"
    transform="translate(652.04 82.24) rotate(268.6) scale(0.99)"
  />
  <use
    xlink:href="#l2"
    transform="translate(978.39 547.05) rotate(338.14) scale(1.18)"
  />
  <use
    xlink:href="#l2"
    transform="translate(1028.69 608.92) rotate(33.15) scale(0.95)"
  />
  <use
    xlink:href="#l2"
    transform="translate(786.48 783.95) rotate(151.61) scale(1)"
  />
  <use
    xlink:href="#l2"
    transform="translate(757.24 103.58) rotate(219.52) scale(0.84)"
  />
  <use
    xlink:href="#l2"
    transform="translate(767.38 515.71) rotate(357.53) scale(1.14)"
  />
  <use
    xlink:href="#l2"
    transform="translate(947.8 618.94) rotate(346.14) scale(1.17)"
  />,  <use
    xlink:href="#t3"
    transform="translate(695.58 648.17) rotate(336.62) scale(1.13)"
  />
  <use
    xlink:href="#t3"
    transform="translate(26.06 567.29) rotate(42.42) scale(0.81)"
  />
  <use
    xlink:href="#t3"
    transform="translate(767.01 678.74) rotate(331.59) scale(0.86)"
  />
  <use
    xlink:href="#t3"
    transform="translate(296.19 772.95) rotate(336.82) scale(0.82)"
  />
  <use
    xlink:href="#t3"
    transform="translate(609.9 545.05) rotate(2.24) scale(0.88)"
  />
  <use
    xlink:href="#t3"
    transform="translate(1075.32 38.92) rotate(346.08) scale(1.08)"
  />
  <use
    xlink:href="#t3"
    transform="translate(967.35 790.9) rotate(12.81) scale(1.1)"
  />
  <use
    xlink:href="#t3"
    transform="translate(821.97 533.6) rotate(52.06) scale(0.89)"
  />
  <use
    xlink:href="#t3"
    transform="translate(190.08 636.69) rotate(92.41) scale(1.15)"
  />
  <use
    xlink:href="#t3"
    transform="translate(608.58 189.49) rotate(132.24) scale(1.11)"
  />
  <use
    xlink:href="#t3"
    transform="translate(811.18 502.23) rotate(138.47) scale(1.19)"
  />
  <use
    xlink:href="#t3"
    transform="translate(699.02 510.59) rotate(165.28) scale(1.19)"
  />
  <use
    xlink:href="#t3"
    transform="translate(537.03 472.27) rotate(64.68) scale(0.87)"
  />
  <use
    xlink:href="#t3"
    transform="translate(604.77 739.9) rotate(322.06) scale(1.11)"
  />
  <use
    xlink:href="#t3"
    transform="translate(495.74 552.77) rotate(196.09) scale(1.16)"
  />
  <use
    xlink:href="#t3"
    transform="translate(313.76 125.11) rotate(246.16) scale(0.92)"
  />
  <use
    xlink:href="#t3"
    transform="translate(451.68 711.25) rotate(165.6) scale(0.86)"
  />
  <use
    xlink:href="#t3"
    transform="translate(38.62 585.33) rotate(46.1) scale(0.9)"
  />
  <use
    xlink:href="#t3"
    transform="translate(717.27 99.83) rotate(46.92) scale(0.88)"
  />
  <use
    xlink:href="#t3"
    transform="translate(495.37 785.73) rotate(221.12) scale(0.98)"
  />,  <use
    xlink:href="#c3"
    transform="translate(536.65 756.62) rotate(10.9) scale(0.9)"
  />
  <use
    xlink:href="#c3"
    transform="translate(749.2 8.12) rotate(105.66) scale(0.83)"
  />
  <use
    xlink:href="#c3"
    transform="translate(51.57 491.08) rotate(256.03) scale(1.09)"
  />
  <use
    xlink:href="#c3"
    transform="translate(329.66 752.11) rotate(25.14) scale(0.84)"
  />
  <use
    xlink:href="#c3"
    transform="translate(43.26 116.13) rotate(249.81) scale(1.17)"
  />
  <use
    xlink:href="#c3"
    transform="translate(938.09 536.04) rotate(301.96) scale(1.02)"
  />
  <use
    xlink:href="#c3"
    transform="translate(201.14 391.85) rotate(243.34) scale(1.13)"
  />
  <use
    xlink:href="#c3"
    transform="translate(743.53 1.91) rotate(77.07) scale(1.11)"
  />
  <use
    xlink:href="#c3"
    transform="translate(625.98 225.14) rotate(103.69) scale(0.8)"
  />
  <use
    xlink:href="#c3"
    transform="translate(895.71 611.69) rotate(185.31) scale(0.96)"
  />
  <use
    xlink:href="#c3"
    transform="translate(260.15 235.58) rotate(32.14) scale(1)"
  />
  <use
    xlink:href="#c3"
    transform="translate(917.35 343.61) rotate(123.44) scale(1.16)"
  />
  <use
    xlink:href="#c3"
    transform="translate(859.57 378.88) rotate(42.9) scale(1.16)"
  />
  <use
    xlink:href="#c3"
    transform="translate(1183.66 421.84) rotate(5.78) scale(1.12)"
  />
  <use
    xlink:href="#c3"
    transform="translate(299.92 308.96) rotate(240.06) scale(0.93)"
  />
  <use
    xlink:href="#c3"
    transform="translate(1129.43 518.63) rotate(137.64) scale(1)"
  />
  <use
    xlink:href="#c3"
    transform="translate(463.72 460.61) rotate(98.53) scale(1.05)"
  />
  <use
    xlink:href="#c3"
    transform="translate(357.83 264.47) rotate(269.45) scale(1.13)"
  />
  <use
    xlink:href="#c3"
    transform="translate(607.65 21.42) rotate(129.7) scale(0.89)"
  />
  <use
    xlink:href="#c3"
    transform="translate(557.04 601.96) rotate(44.87) scale(1.05)"
  />,  <use
    xlink:href="#l3"
    transform="translate(837.99 718.36) rotate(56.93) scale(0.87)"
  />
  <use
    xlink:href="#l3"
    transform="translate(393.28 493.38) rotate(146.62) scale(1.14)"
  />
  <use
    xlink:href="#l3"
    transform="translate(228.62 515.15) rotate(183.38) scale(1.01)"
  />
  <use
    xlink:href="#l3"
    transform="translate(824.97 47.14) rotate(305.01) scale(1.15)"
  />
  <use
    xlink:href="#l3"
    transform="translate(1024.14 554.16) rotate(148.72) scale(0.8)"
  />
  <use
    xlink:href="#l3"
    transform="translate(615.31 299.88) rotate(38.86) scale(1.19)"
  />
  <use
    xlink:href="#l3"
    transform="translate(790.72 710.66) rotate(169.9) scale(0.87)"
  />
  <use
    xlink:href="#l3"
    transform="translate(237.52 752.29) rotate(123.03) scale(0.98)"
  />
  <use
    xlink:href="#l3"
    transform="translate(345.87 361.55) rotate(82.16) scale(1.07)"
  />
  <use
    xlink:href="#l3"
    transform="translate(997.93 232.35) rotate(349.91) scale(0.83)"
  />
  <use
    xlink:href="#l3"
    transform="translate(384.26 281.69) rotate(231.48) scale(0.98)"
  />
  <use
    xlink:href="#l3"
    transform="translate(1058.81 431.24) rotate(274.13) scale(0.86)"
  />
  <use
    xlink:href="#l3"
    transform="translate(154.68 345.47) rotate(293.16) scale(1.07)"
  />
  <use
    xlink:href="#l3"
    transform="translate(809.39 14.54) rotate(46.2) scale(1.17)"
  />
  <use
    xlink:href="#l3"
    transform="translate(1158.46 497.09) rotate(231.55) scale(1.03)"
  />
  <use
    xlink:href="#l3"
    transform="translate(1016.5 468.43) rotate(314.06) scale(1.12)"
  />
  <use
    xlink:href="#l3"
    transform="translate(146.74 419.95) rotate(192.28) scale(0.88)"
  />
  <use
    xlink:href="#l3"
    transform="translate(70.84 410.69) rotate(190.96) scale(1.02)"
  />
  <use
    xlink:href="#l3"
    transform="translate(724.67 524.72) rotate(17.01) scale(1.03)"
  />
  <use
    xlink:href="#l3"
    transform="translate(698.41 345.94) rotate(236.47) scale(0.83)"
  />
  <text
    x="600"
    y="400"
    font-family="courier new, courier, monospace"
    font-weight="bold"
    font-size="120"
    fill="black"
    text-anchor="middle"
  >fe(3)</text>
</svg>
