<svg
  xmlns="http://www.w3.org/2000/svg"
  xmlns:xlink="http://www.w3.org/1999/xlink"
  viewBox="0 0 1200 800"
>
  <title>Tech Track</title>
  <style>
    :root { color: #feca2f; background-color: currentcolor; max-width: 100% }
    body { margin: 0 }
    path { fill: none; stroke: hsl(45, 99%, 67%); stroke-width: 5px; stroke-linecap: round }
    path:nth-child(odd) { stroke: hsl(45, 99%, 52%) }
  </style>
  <rect width="100%" height="100%" fill="currentcolor"/>
  <defs>
  <path id="t1" d="M7.76,10.89c-1.5,2.18-2.77,4.5-4.27,6.68-1.12,1.63-2.22,4-.86,5.41a4.34,4.34,0,0,0,2.25,1,130.06,130.06,0,0,0,24.85,3.36,2.65,2.65,0,0,0,2-.45,2.5,2.5,0,0,0,.51-2c-.43-7.43-5.32-13.76-10-19.55C21.15,4,20,2.67,18.4,2.18a5.71,5.71,0,0,0-5,1.19,16.87,16.87,0,0,0-3.43,4c-1.43,2.11-.79,1.36-2.23,3.47">
    <animate
      attributeName="opacity"
      repeatCount="indefinite"
      dur="20s"
      values="1;1;1;0;0;0;0;0;1"
    />
    <animateTransform
      attributeName="transform"
      type="rotate"
      repeatCount="indefinite"
      dur="80s"
      from="360 150 150"
      to="0 150 150"
    />
  </path>
  <path id="c1" d="M12.36,11.18a1.16,1.16,0,0,0-1.63-.11,3,3,0,0,0-.87,1.58c-.61,2.11-.78,4.58.55,6.32,1.71,2.23,5.36,2.21,7.57.46s3.15-4.69,3.26-7.5a13.18,13.18,0,0,0-1.89-7.67A9.12,9.12,0,0,0,12.85,0,9.93,9.93,0,0,0,4.51,3.82,20.08,20.08,0,0,0,.67,12.45c-.86,3.8-1.14,8,.63,11.44,2.31,4.55,7.64,6.85,12.72,7.3a13.12,13.12,0,0,0,7.81-1.32,15.12,15.12,0,0,0,5-5.68c2.11-3.59,3.87-7.56,3.88-11.73S28.64,3.9,24.84,2.21">
    <animate
      attributeName="opacity"
      repeatCount="indefinite"
      dur="20s"
      values="0;1;1;1;0;0;0;0;0"
    />
    <animateTransform
      attributeName="transform"
      type="rotate"
      repeatCount="indefinite"
      dur="80s"
      from="360 150 150"
      to="0 150 150"
    />
  </path>
  <path id="l1" d="M2.07,10.63a6,6,0,0,0,2.89,6A6,6,0,0,0,11.59,16c3.64-3.14,2.84-10.08,7.21-12.06,2.83-1.29,6.15.49,8.31,2.72s3.86,5,6.55,6.59a9.31,9.31,0,0,0,10.47-1A9.31,9.31,0,0,0,46.62,2">
    <animate
      attributeName="opacity"
      repeatCount="indefinite"
      dur="20s"
      values="0;0;1;1;1;0;0;0;0"
    />
    <animateTransform
      attributeName="transform"
      type="rotate"
      repeatCount="indefinite"
      dur="80s"
      from="360 150 150"
      to="0 150 150"
    />
  </path>
  <path id="t2" d="M23.42,19c-1.93-6-2.36-7.18-4.09-13.2-.54-1.88-1.82-4.21-3.71-3.74a3.78,3.78,0,0,0-1.45.88,120.75,120.75,0,0,0-9.68,9.15c-1.38,1.45-2.82,3.27-2.41,5.23a6.22,6.22,0,0,0,2.63,3.34,73,73,0,0,0,15.38,9.16c2,.87,4.64,1.5,6-.18s.26-4-1-5.75S24.06,21,23.42,19Z">
    <animate
      attributeName="opacity"
      repeatCount="indefinite"
      dur="20s"
      values="0;0;0;1;1;1;0;0;0"
    />
    <animateTransform
      attributeName="transform"
      type="rotate"
      repeatCount="indefinite"
      dur="80s"
      from="360 150 150"
      to="0 150 150"
    />
  </path>
  <path id="c2" d="M13.44,10.08a2.92,2.92,0,0,0-4.15-.66C7.93,10.56,8,12.75,8.79,14.32a6.86,6.86,0,0,0,8.38,3,7.23,7.23,0,0,0,4.17-8A11.85,11.85,0,0,0,18.15,4,11.42,11.42,0,0,0,12.33.14a9.79,9.79,0,0,0-7.4,2C1.72,4.41-.71,8.37.19,12.21a13.84,13.84,0,0,0,1.85,4,30.12,30.12,0,0,0,5,6.55A11.53,11.53,0,0,0,14.33,26,12.35,12.35,0,0,0,22,23.15c4.33-3.33,7.31-9,5.86-14.3">
    <animate
      attributeName="opacity"
      repeatCount="indefinite"
      dur="20s"
      values="0;0;0;0;1;1;1;0;0"
    />
    <animateTransform
      attributeName="transform"
      type="rotate"
      repeatCount="indefinite"
      dur="80s"
      from="360 150 150"
      to="0 150 150"
    />
  </path>
  <path id="l2" d="M85.7,8.9c.33-3.32-2.7-6.31-6-6.81s-6.62,1-9.21,3.12S65.89,10,63.64,12.49a9.41,9.41,0,0,1-4.58,3.19c-3.47.78-6.65-2.08-8.76-4.94s-4.2-6.21-7.64-7.11c-3.79-1-7.67,1.51-10.15,4.54s-4.16,6.7-6.93,9.47S18.31,22.12,15,20.06a12.07,12.07,0,0,1-3.69-4.46L7.93,9.85A7.14,7.14,0,0,0,5.39,6.91C4.22,6.3,2.5,6.56,2,7.78">
    <animate
      attributeName="opacity"
      repeatCount="indefinite"
      dur="20s"
      values="0;0;0;0;0;1;1;1;0"
    />
    <animateTransform
      attributeName="transform"
      type="rotate"
      repeatCount="indefinite"
      dur="80s"
      from="360 150 150"
      to="0 150 150"
    />
  </path>
  <path id="t3" d="M16.58,2.36A68.52,68.52,0,0,0,5.33,2.14,4.14,4.14,0,0,0,2.7,3C1.38,4.23,2.18,6.42,3,8l8.1,14.87c.65,1.2,1.43,2.5,2.75,2.87a4.89,4.89,0,0,0,3.37-.69A42.36,42.36,0,0,0,32.45,12.46a8.56,8.56,0,0,0,1.79-3.54,3.37,3.37,0,0,0-1.38-3.5A5,5,0,0,0,31,4.92C25.13,4.1,22.51,2.9,16.58,2.36Z">
    <animate
      attributeName="opacity"
      repeatCount="indefinite"
      dur="20s"
      values="1;0;0;0;0;0;1;1;1"
    />
    <animateTransform
      attributeName="transform"
      type="rotate"
      repeatCount="indefinite"
      dur="80s"
      from="360 150 150"
      to="0 150 150"
    />
  </path>
  <path id="c3" d="M16.66,19.31c0-2.1-2.84-3.38-4.68-2.35s-2.46,3.52-1.85,5.54c1.12,3.7,5.8,5.64,9.41,4.27s5.81-5.44,5.52-9.3a12.82,12.82,0,0,0-6-9.46A12.7,12.7,0,0,0,8,6.38,12.65,12.65,0,0,0,.54,15.12a20.73,20.73,0,0,0,.75,11.75,17.2,17.2,0,0,0,2.43,4.92c3.94,5.26,11.55,6.36,18,5a17.51,17.51,0,0,0,7.55-3.24,15.27,15.27,0,0,0,4.9-8.16A20.76,20.76,0,0,0,18.61,0">
    <animate
      attributeName="opacity"
      repeatCount="indefinite"
      dur="20s"
      values="1;0;0;0;0;0;0;1;1"
    />
    <animateTransform
      attributeName="transform"
      type="rotate"
      repeatCount="indefinite"
      dur="80s"
      from="360 150 150"
      to="0 150 150"
    />
  </path>
  <path id="l3" d="M2,19.86c2.37-3.51,2.92-9.08,7-10,2.51-.58,5,1.1,6.65,3.1s2.78,4.4,4.69,6.14a10.34,10.34,0,0,0,13.12.34c3.4-2.8,4.55-7.42,6.65-11.29S46.72.68,50.74,2.48c5.2,2.33,4.63,11.25,9.95,13.29a8.22,8.22,0,0,0,6.09-.56,18.15,18.15,0,0,0,9.57-9.86">
    <animate
      attributeName="opacity"
      repeatCount="indefinite"
      dur="20s"
      values="1;1;0;0;0;0;0;0;1"
    />
    <animateTransform
      attributeName="transform"
      type="rotate"
      repeatCount="indefinite"
      dur="80s"
      from="360 150 150"
      to="0 150 150"
    />
  </path>
  </defs>
  <use
    xlink:href="#t1"
    transform="translate(421.75 575.45) rotate(47.39) scale(0.85)"
  />
  <use
    xlink:href="#t1"
    transform="translate(651.17 632.08) rotate(343.39) scale(0.81)"
  />
  <use
    xlink:href="#t1"
    transform="translate(208.63 50.55) rotate(17.95) scale(1.18)"
  />
  <use
    xlink:href="#t1"
    transform="translate(711.95 611.06) rotate(255.93) scale(0.86)"
  />
  <use
    xlink:href="#t1"
    transform="translate(849.36 9.04) rotate(62.58) scale(1.12)"
  />
  <use
    xlink:href="#t1"
    transform="translate(627.83 353.07) rotate(309.23) scale(0.86)"
  />
  <use
    xlink:href="#t1"
    transform="translate(210.37 136.5) rotate(283.14) scale(0.8)"
  />
  <use
    xlink:href="#t1"
    transform="translate(564.21 399.49) rotate(176.97) scale(1.03)"
  />
  <use
    xlink:href="#t1"
    transform="translate(876.37 798.86) rotate(191.84) scale(1.14)"
  />
  <use
    xlink:href="#t1"
    transform="translate(273.28 652.26) rotate(138.89) scale(0.95)"
  />
  <use
    xlink:href="#t1"
    transform="translate(1033.09 31.65) rotate(131.54) scale(0.8)"
  />
  <use
    xlink:href="#t1"
    transform="translate(890.17 791.71) rotate(303.23) scale(0.91)"
  />
  <use
    xlink:href="#t1"
    transform="translate(472.92 219.31) rotate(6.86) scale(0.94)"
  />
  <use
    xlink:href="#t1"
    transform="translate(632.37 520.95) rotate(115.42) scale(1.16)"
  />
  <use
    xlink:href="#t1"
    transform="translate(799.58 337.16) rotate(162.36) scale(1.14)"
  />
  <use
    xlink:href="#t1"
    transform="translate(1147.85 566.51) rotate(99) scale(0.89)"
  />
  <use
    xlink:href="#t1"
    transform="translate(609.07 130.9) rotate(301.34) scale(0.98)"
  />
  <use
    xlink:href="#t1"
    transform="translate(1028.67 449.68) rotate(45.85) scale(0.9)"
  />
  <use
    xlink:href="#t1"
    transform="translate(671.89 200.65) rotate(319.92) scale(1.13)"
  />
  <use
    xlink:href="#t1"
    transform="translate(1121.5 627.14) rotate(311.55) scale(1.06)"
  />
  <use
    xlink:href="#c1"
    transform="translate(896.26 367.54) rotate(70.85) scale(0.89)"
  />
  <use
    xlink:href="#c1"
    transform="translate(1031.99 344.38) rotate(173.05) scale(0.86)"
  />
  <use
    xlink:href="#c1"
    transform="translate(713.85 666.65) rotate(240.93) scale(0.83)"
  />
  <use
    xlink:href="#c1"
    transform="translate(300.37 373.26) rotate(160.65) scale(1.15)"
  />
  <use
    xlink:href="#c1"
    transform="translate(211.53 115.42) rotate(153.09) scale(1.12)"
  />
  <use
    xlink:href="#c1"
    transform="translate(280.04 583.62) rotate(20.66) scale(1.07)"
  />
  <use
    xlink:href="#c1"
    transform="translate(418.05 719.11) rotate(227.83) scale(0.88)"
  />
  <use
    xlink:href="#c1"
    transform="translate(927.05 233.25) rotate(94.96) scale(0.81)"
  />
  <use
    xlink:href="#c1"
    transform="translate(513.3 537.86) rotate(201.03) scale(0.95)"
  />
  <use
    xlink:href="#c1"
    transform="translate(129.14 135.46) rotate(166.04) scale(0.96)"
  />
  <use
    xlink:href="#c1"
    transform="translate(370.18 585.26) rotate(314.61) scale(0.89)"
  />
  <use
    xlink:href="#c1"
    transform="translate(998.03 255.1) rotate(95.05) scale(1.03)"
  />
  <use
    xlink:href="#c1"
    transform="translate(851 699.84) rotate(120.74) scale(0.91)"
  />
  <use
    xlink:href="#c1"
    transform="translate(1174.73 106.26) rotate(228.85) scale(1.17)"
  />
  <use
    xlink:href="#c1"
    transform="translate(760.76 199.02) rotate(238.3) scale(1.12)"
  />
  <use
    xlink:href="#c1"
    transform="translate(82.02 405.32) rotate(159.05) scale(0.86)"
  />
  <use
    xlink:href="#c1"
    transform="translate(1136.41 443.13) rotate(320.81) scale(1.12)"
  />
  <use
    xlink:href="#c1"
    transform="translate(389.05 20.9) rotate(70.91) scale(1.15)"
  />
  <use
    xlink:href="#c1"
    transform="translate(928.64 500.09) rotate(21.27) scale(1.06)"
  />
  <use
    xlink:href="#c1"
    transform="translate(433.55 678.06) rotate(66.63) scale(1.13)"
  />
  <use
    xlink:href="#l1"
    transform="translate(14.71 4.67) rotate(306.48) scale(1.19)"
  />
  <use
    xlink:href="#l1"
    transform="translate(665.29 762.9) rotate(83.44) scale(0.97)"
  />
  <use
    xlink:href="#l1"
    transform="translate(900.47 76.22) rotate(7.15) scale(0.84)"
  />
  <use
    xlink:href="#l1"
    transform="translate(1056.58 8.37) rotate(271.94) scale(0.84)"
  />
  <use
    xlink:href="#l1"
    transform="translate(619.39 30.6) rotate(122.05) scale(1.15)"
  />
  <use
    xlink:href="#l1"
    transform="translate(693.74 753.92) rotate(158.75) scale(0.94)"
  />
  <use
    xlink:href="#l1"
    transform="translate(802.82 792.09) rotate(48.6) scale(0.94)"
  />
  <use
    xlink:href="#l1"
    transform="translate(1086.77 437) rotate(254.91) scale(1.17)"
  />
  <use
    xlink:href="#l1"
    transform="translate(320.69 328.98) rotate(61.52) scale(0.86)"
  />
  <use
    xlink:href="#l1"
    transform="translate(77.25 517.68) rotate(54.35) scale(0.9)"
  />
  <use
    xlink:href="#l1"
    transform="translate(1161.6 193.34) rotate(84.62) scale(0.87)"
  />
  <use
    xlink:href="#l1"
    transform="translate(856.04 289.67) rotate(229.2) scale(0.9)"
  />
  <use
    xlink:href="#l1"
    transform="translate(1052.39 196.73) rotate(113.99) scale(1.1)"
  />
  <use
    xlink:href="#l1"
    transform="translate(222.58 395.72) rotate(38.77) scale(1.05)"
  />
  <use
    xlink:href="#l1"
    transform="translate(118.59 474.81) rotate(45.57) scale(1.11)"
  />
  <use
    xlink:href="#l1"
    transform="translate(1126.35 722.7) rotate(99.48) scale(0.84)"
  />
  <use
    xlink:href="#l1"
    transform="translate(899.47 377.51) rotate(203.7) scale(0.95)"
  />
  <use
    xlink:href="#l1"
    transform="translate(837.74 239.62) rotate(131.71) scale(0.81)"
  />
  <use
    xlink:href="#l1"
    transform="translate(422.7 508.55) rotate(205.2) scale(1.12)"
  />
  <use
    xlink:href="#l1"
    transform="translate(1174.04 50.6) rotate(349.4) scale(0.83)"
  />
  <use
    xlink:href="#t2"
    transform="translate(1142.02 327.45) rotate(77.77) scale(0.83)"
  />
  <use
    xlink:href="#t2"
    transform="translate(351.3 312.35) rotate(204.19) scale(0.92)"
  />
  <use
    xlink:href="#t2"
    transform="translate(864.68 177.25) rotate(301.65) scale(1.04)"
  />
  <use
    xlink:href="#t2"
    transform="translate(270.11 432.87) rotate(346.61) scale(1.06)"
  />
  <use
    xlink:href="#t2"
    transform="translate(1161.94 119.93) rotate(339.1) scale(1.1)"
  />
  <use
    xlink:href="#t2"
    transform="translate(34.19 244.1) rotate(302.4) scale(1.05)"
  />
  <use
    xlink:href="#t2"
    transform="translate(699.82 696.09) rotate(68.76) scale(0.81)"
  />
  <use
    xlink:href="#t2"
    transform="translate(72.56 498.6) rotate(323.19) scale(0.84)"
  />
  <use
    xlink:href="#t2"
    transform="translate(240.59 519.62) rotate(317.55) scale(0.99)"
  />
  <use
    xlink:href="#t2"
    transform="translate(790.24 782.33) rotate(76.2) scale(1.06)"
  />
  <use
    xlink:href="#t2"
    transform="translate(755.59 758.4) rotate(255.64) scale(0.98)"
  />
  <use
    xlink:href="#t2"
    transform="translate(954.08 438.94) rotate(100.26) scale(0.83)"
  />
  <use
    xlink:href="#t2"
    transform="translate(1182.21 326.42) rotate(171.37) scale(0.82)"
  />
  <use
    xlink:href="#t2"
    transform="translate(377.47 745.46) rotate(55.47) scale(0.98)"
  />
  <use
    xlink:href="#t2"
    transform="translate(682.8 300.36) rotate(56.22) scale(0.99)"
  />
  <use
    xlink:href="#t2"
    transform="translate(549.59 754.17) rotate(338.92) scale(0.97)"
  />
  <use
    xlink:href="#t2"
    transform="translate(321.11 77.88) rotate(281.89) scale(1.02)"
  />
  <use
    xlink:href="#t2"
    transform="translate(678.88 401.55) rotate(193.7) scale(0.92)"
  />
  <use
    xlink:href="#t2"
    transform="translate(8.25 326.26) rotate(171.36) scale(1.17)"
  />
  <use
    xlink:href="#t2"
    transform="translate(311.23 364.56) rotate(326.24) scale(0.99)"
  />
  <use
    xlink:href="#c2"
    transform="translate(966.14 225.64) rotate(147.3) scale(1.18)"
  />
  <use
    xlink:href="#c2"
    transform="translate(867.29 596.65) rotate(161.34) scale(1.17)"
  />
  <use
    xlink:href="#c2"
    transform="translate(133.49 362.77) rotate(279.02) scale(0.86)"
  />
  <use
    xlink:href="#c2"
    transform="translate(995.77 152.1) rotate(141.19) scale(1.04)"
  />
  <use
    xlink:href="#c2"
    transform="translate(611.62 114.56) rotate(1.45) scale(1.03)"
  />
  <use
    xlink:href="#c2"
    transform="translate(247.34 613.44) rotate(310.41) scale(0.96)"
  />
  <use
    xlink:href="#c2"
    transform="translate(545.08 740.72) rotate(8.31) scale(1.19)"
  />
  <use
    xlink:href="#c2"
    transform="translate(223.41 609.77) rotate(189.79) scale(0.86)"
  />
  <use
    xlink:href="#c2"
    transform="translate(1184.14 225.96) rotate(118.94) scale(0.95)"
  />
  <use
    xlink:href="#c2"
    transform="translate(137.63 190.75) rotate(162.79) scale(0.91)"
  />
  <use
    xlink:href="#c2"
    transform="translate(447.75 764.98) rotate(36.49) scale(0.93)"
  />
  <use
    xlink:href="#c2"
    transform="translate(864.55 421.37) rotate(41.59) scale(0.98)"
  />
  <use
    xlink:href="#c2"
    transform="translate(566.87 105.28) rotate(154.27) scale(0.97)"
  />
  <use
    xlink:href="#c2"
    transform="translate(417.35 701.29) rotate(207.04) scale(1.02)"
  />
  <use
    xlink:href="#c2"
    transform="translate(581.86 644.87) rotate(351.21) scale(0.84)"
  />
  <use
    xlink:href="#c2"
    transform="translate(306.55 773.71) rotate(287.75) scale(0.87)"
  />
  <use
    xlink:href="#c2"
    transform="translate(405.74 568.54) rotate(258.64) scale(0.93)"
  />
  <use
    xlink:href="#c2"
    transform="translate(566.26 726.6) rotate(29.76) scale(0.86)"
  />
  <use
    xlink:href="#c2"
    transform="translate(1015 74.41) rotate(337.03) scale(0.95)"
  />
  <use
    xlink:href="#c2"
    transform="translate(181.32 671.7) rotate(136.72) scale(1.13)"
  />
  <use
    xlink:href="#l2"
    transform="translate(1050.53 46.63) rotate(315.74) scale(1.07)"
  />
  <use
    xlink:href="#l2"
    transform="translate(742.97 417.08) rotate(219.23) scale(0.95)"
  />
  <use
    xlink:href="#l2"
    transform="translate(919.32 771.25) rotate(68.49) scale(0.83)"
  />
  <use
    xlink:href="#l2"
    transform="translate(207.26 254.55) rotate(49.63) scale(0.9)"
  />
  <use
    xlink:href="#l2"
    transform="translate(485.72 67.33) rotate(116.71) scale(0.83)"
  />
  <use
    xlink:href="#l2"
    transform="translate(262.4 692.88) rotate(14.15) scale(1.13)"
  />
  <use
    xlink:href="#l2"
    transform="translate(1069.3 54.17) rotate(344.97) scale(1)"
  />
  <use
    xlink:href="#l2"
    transform="translate(225.13 691.88) rotate(177.08) scale(0.93)"
  />
  <use
    xlink:href="#l2"
    transform="translate(975.62 731.51) rotate(151.3) scale(1.03)"
  />
  <use
    xlink:href="#l2"
    transform="translate(670.64 62.65) rotate(240.18) scale(1.09)"
  />
  <use
    xlink:href="#l2"
    transform="translate(373.23 460.92) rotate(183.13) scale(1.07)"
  />
  <use
    xlink:href="#l2"
    transform="translate(119.42 328.26) rotate(353.18) scale(1)"
  />
  <use
    xlink:href="#l2"
    transform="translate(186.72 197.58) rotate(225.85) scale(1.19)"
  />
  <use
    xlink:href="#l2"
    transform="translate(552.11 583.84) rotate(340.12) scale(1.04)"
  />
  <use
    xlink:href="#l2"
    transform="translate(585.72 359.94) rotate(44.28) scale(1)"
  />
  <use
    xlink:href="#l2"
    transform="translate(858.26 550) rotate(248.13) scale(1.01)"
  />
  <use
    xlink:href="#l2"
    transform="translate(109.03 560.61) rotate(70.61) scale(0.9)"
  />
  <use
    xlink:href="#l2"
    transform="translate(1017.55 684.15) rotate(138.53) scale(1.05)"
  />
  <use
    xlink:href="#l2"
    transform="translate(23.96 105.58) rotate(27.71) scale(1.08)"
  />
  <use
    xlink:href="#l2"
    transform="translate(470.54 145.03) rotate(316.9) scale(1.12)"
  />
  <use
    xlink:href="#t3"
    transform="translate(93.2 191.16) rotate(128.43) scale(1.16)"
  />
  <use
    xlink:href="#t3"
    transform="translate(265.31 153.69) rotate(273.93) scale(1.14)"
  />
  <use
    xlink:href="#t3"
    transform="translate(694.4 335.43) rotate(306.14) scale(0.97)"
  />
  <use
    xlink:href="#t3"
    transform="translate(808.23 413.4) rotate(68.82) scale(0.98)"
  />
  <use
    xlink:href="#t3"
    transform="translate(40.21 100.34) rotate(285.24) scale(0.97)"
  />
  <use
    xlink:href="#t3"
    transform="translate(1002.1 171.48) rotate(310.33) scale(0.98)"
  />
  <use
    xlink:href="#t3"
    transform="translate(551.45 314.1) rotate(202.68) scale(1.17)"
  />
  <use
    xlink:href="#t3"
    transform="translate(920.57 586.04) rotate(162.07) scale(1.13)"
  />
  <use
    xlink:href="#t3"
    transform="translate(1064.93 303.42) rotate(101.13) scale(1.04)"
  />
  <use
    xlink:href="#t3"
    transform="translate(950.9 378.53) rotate(190.36) scale(1.05)"
  />
  <use
    xlink:href="#t3"
    transform="translate(615.27 778.83) rotate(244.31) scale(1.07)"
  />
  <use
    xlink:href="#t3"
    transform="translate(159.69 275.55) rotate(323.07) scale(1.16)"
  />
  <use
    xlink:href="#t3"
    transform="translate(566.55 616.14) rotate(122.31) scale(1.09)"
  />
  <use
    xlink:href="#t3"
    transform="translate(469.69 133.63) rotate(284.6) scale(1.18)"
  />
  <use
    xlink:href="#t3"
    transform="translate(1166.85 759.74) rotate(176.29) scale(0.81)"
  />
  <use
    xlink:href="#t3"
    transform="translate(1062.21 40.09) rotate(272.84) scale(0.92)"
  />
  <use
    xlink:href="#t3"
    transform="translate(803.82 158.44) rotate(38.45) scale(0.96)"
  />
  <use
    xlink:href="#t3"
    transform="translate(1153.35 248.17) rotate(185.03) scale(0.84)"
  />
  <use
    xlink:href="#t3"
    transform="translate(35.81 356.57) rotate(77.91) scale(1)"
  />
  <use
    xlink:href="#t3"
    transform="translate(837.78 768.2) rotate(286) scale(1.12)"
  />
  <use
    xlink:href="#c3"
    transform="translate(288.25 744.44) rotate(95.34) scale(0.98)"
  />
  <use
    xlink:href="#c3"
    transform="translate(1075.56 709.26) rotate(10.24) scale(0.99)"
  />
  <use
    xlink:href="#c3"
    transform="translate(133.19 729.59) rotate(15.72) scale(1.14)"
  />
  <use
    xlink:href="#c3"
    transform="translate(168.54 59.99) rotate(76.99) scale(0.93)"
  />
  <use
    xlink:href="#c3"
    transform="translate(201.48 306.5) rotate(198.09) scale(1.15)"
  />
  <use
    xlink:href="#c3"
    transform="translate(541.08 234.64) rotate(204.16) scale(1.06)"
  />
  <use
    xlink:href="#c3"
    transform="translate(734.98 763.5) rotate(338.15) scale(0.85)"
  />
  <use
    xlink:href="#c3"
    transform="translate(724.13 554.9) rotate(339.94) scale(0.82)"
  />
  <use
    xlink:href="#c3"
    transform="translate(518.44 728.62) rotate(128.2) scale(1.18)"
  />
  <use
    xlink:href="#c3"
    transform="translate(221.08 150.83) rotate(141.57) scale(0.89)"
  />
  <use
    xlink:href="#c3"
    transform="translate(1191.6 177.97) rotate(231.9) scale(0.9)"
  />
  <use
    xlink:href="#c3"
    transform="translate(332.65 709.71) rotate(315.6) scale(1.06)"
  />
  <use
    xlink:href="#c3"
    transform="translate(311.41 436.41) rotate(210.06) scale(0.95)"
  />
  <use
    xlink:href="#c3"
    transform="translate(888.87 161.05) rotate(181.42) scale(0.84)"
  />
  <use
    xlink:href="#c3"
    transform="translate(463.08 787.29) rotate(286.78) scale(0.81)"
  />
  <use
    xlink:href="#c3"
    transform="translate(295.29 778.26) rotate(156.4) scale(1.03)"
  />
  <use
    xlink:href="#c3"
    transform="translate(524.35 465.51) rotate(48.95) scale(0.9)"
  />
  <use
    xlink:href="#c3"
    transform="translate(582.62 183.97) rotate(301.2) scale(0.96)"
  />
  <use
    xlink:href="#c3"
    transform="translate(893.48 233.42) rotate(294.48) scale(0.95)"
  />
  <use
    xlink:href="#c3"
    transform="translate(411.18 179.35) rotate(40.54) scale(0.91)"
  />
  <use
    xlink:href="#l3"
    transform="translate(67.86 473.93) rotate(347.82) scale(1.18)"
  />
  <use
    xlink:href="#l3"
    transform="translate(345.6 20.28) rotate(345.7) scale(0.8)"
  />
  <use
    xlink:href="#l3"
    transform="translate(385.69 93.33) rotate(63.14) scale(1.18)"
  />
  <use
    xlink:href="#l3"
    transform="translate(834.37 644.07) rotate(208.87) scale(1.05)"
  />
  <use
    xlink:href="#l3"
    transform="translate(891.63 226.86) rotate(58.62) scale(0.83)"
  />
  <use
    xlink:href="#l3"
    transform="translate(584.87 359.57) rotate(35.78) scale(0.97)"
  />
  <use
    xlink:href="#l3"
    transform="translate(41.87 526.31) rotate(358.97) scale(0.89)"
  />
  <use
    xlink:href="#l3"
    transform="translate(368.02 200.79) rotate(250.52) scale(1.04)"
  />
  <use
    xlink:href="#l3"
    transform="translate(879.16 703.24) rotate(335.16) scale(1.01)"
  />
  <use
    xlink:href="#l3"
    transform="translate(200.39 84.58) rotate(282.83) scale(0.95)"
  />
  <use
    xlink:href="#l3"
    transform="translate(812.97 158.95) rotate(160.55) scale(1.04)"
  />
  <use
    xlink:href="#l3"
    transform="translate(11.44 462.59) rotate(238.66) scale(1.15)"
  />
  <use
    xlink:href="#l3"
    transform="translate(601 641.58) rotate(98.08) scale(1.16)"
  />
  <use
    xlink:href="#l3"
    transform="translate(103.92 692.76) rotate(104.69) scale(0.88)"
  />
  <use
    xlink:href="#l3"
    transform="translate(178.66 595.16) rotate(289.58) scale(1.04)"
  />
  <use
    xlink:href="#l3"
    transform="translate(947.04 498.7) rotate(262.03) scale(0.91)"
  />
  <use
    xlink:href="#l3"
    transform="translate(965.35 470.7) rotate(320.39) scale(0.86)"
  />
  <use
    xlink:href="#l3"
    transform="translate(212.95 205.68) rotate(131.14) scale(1.12)"
  />
  <use
    xlink:href="#l3"
    transform="translate(220.02 781.43) rotate(152.24) scale(0.83)"
  />
  <use
    xlink:href="#l3"
    transform="translate(393.29 93.14) rotate(271.26) scale(0.97)"
  />
  <text
    x="600"
    y="400"
    font-family="courier new, courier, monospace"
    font-weight="bold"
    font-size="120"
    fill="black"
    text-anchor="middle"
    alignment-baseline="middle"
  >tt()×3</text>
</svg>
