<svg
  xmlns="http://www.w3.org/2000/svg"
  xmlns:xlink="http://www.w3.org/1999/xlink"
  viewBox="0 0 1200 800"
>
  <title>Frontend 3: Assessment 3</title>
  <style>
    :root { color: #feca2f; background-color: currentcolor; max-width: 100% }
    body { margin: 0 }
    path { fill: none; stroke: hsl(45, 99%, 67%); stroke-width: 5px; stroke-linecap: round }
    path:nth-child(odd) { stroke: hsl(45, 99%, 52%) }
  </style>
  <rect width="100%" height="100%" fill="currentcolor"/>
  <defs>
  <path id="t1" d="M7.76,10.89c-1.5,2.18-2.77,4.5-4.27,6.68-1.12,1.63-2.22,4-.86,5.41a4.34,4.34,0,0,0,2.25,1,130.06,130.06,0,0,0,24.85,3.36,2.65,2.65,0,0,0,2-.45,2.5,2.5,0,0,0,.51-2c-.43-7.43-5.32-13.76-10-19.55C21.15,4,20,2.67,18.4,2.18a5.71,5.71,0,0,0-5,1.19,16.87,16.87,0,0,0-3.43,4c-1.43,2.11-.79,1.36-2.23,3.47">
    <animate
      attributeName="opacity"
      repeatCount="indefinite"
      dur="20s"
      values="1;1;1;0;0;0;0;0;1"
    />
    <animateTransform
      attributeName="transform"
      type="rotate"
      repeatCount="indefinite"
      dur="80s"
      from="360 150 150"
      to="0 150 150"
    />
  </path>
  <path id="c1" d="M12.36,11.18a1.16,1.16,0,0,0-1.63-.11,3,3,0,0,0-.87,1.58c-.61,2.11-.78,4.58.55,6.32,1.71,2.23,5.36,2.21,7.57.46s3.15-4.69,3.26-7.5a13.18,13.18,0,0,0-1.89-7.67A9.12,9.12,0,0,0,12.85,0,9.93,9.93,0,0,0,4.51,3.82,20.08,20.08,0,0,0,.67,12.45c-.86,3.8-1.14,8,.63,11.44,2.31,4.55,7.64,6.85,12.72,7.3a13.12,13.12,0,0,0,7.81-1.32,15.12,15.12,0,0,0,5-5.68c2.11-3.59,3.87-7.56,3.88-11.73S28.64,3.9,24.84,2.21">
    <animate
      attributeName="opacity"
      repeatCount="indefinite"
      dur="20s"
      values="0;1;1;1;0;0;0;0;0"
    />
    <animateTransform
      attributeName="transform"
      type="rotate"
      repeatCount="indefinite"
      dur="80s"
      from="360 150 150"
      to="0 150 150"
    />
  </path>
  <path id="l1" d="M2.07,10.63a6,6,0,0,0,2.89,6A6,6,0,0,0,11.59,16c3.64-3.14,2.84-10.08,7.21-12.06,2.83-1.29,6.15.49,8.31,2.72s3.86,5,6.55,6.59a9.31,9.31,0,0,0,10.47-1A9.31,9.31,0,0,0,46.62,2">
    <animate
      attributeName="opacity"
      repeatCount="indefinite"
      dur="20s"
      values="0;0;1;1;1;0;0;0;0"
    />
    <animateTransform
      attributeName="transform"
      type="rotate"
      repeatCount="indefinite"
      dur="80s"
      from="360 150 150"
      to="0 150 150"
    />
  </path>
  <path id="t2" d="M23.42,19c-1.93-6-2.36-7.18-4.09-13.2-.54-1.88-1.82-4.21-3.71-3.74a3.78,3.78,0,0,0-1.45.88,120.75,120.75,0,0,0-9.68,9.15c-1.38,1.45-2.82,3.27-2.41,5.23a6.22,6.22,0,0,0,2.63,3.34,73,73,0,0,0,15.38,9.16c2,.87,4.64,1.5,6-.18s.26-4-1-5.75S24.06,21,23.42,19Z">
    <animate
      attributeName="opacity"
      repeatCount="indefinite"
      dur="20s"
      values="0;0;0;1;1;1;0;0;0"
    />
    <animateTransform
      attributeName="transform"
      type="rotate"
      repeatCount="indefinite"
      dur="80s"
      from="360 150 150"
      to="0 150 150"
    />
  </path>
  <path id="c2" d="M13.44,10.08a2.92,2.92,0,0,0-4.15-.66C7.93,10.56,8,12.75,8.79,14.32a6.86,6.86,0,0,0,8.38,3,7.23,7.23,0,0,0,4.17-8A11.85,11.85,0,0,0,18.15,4,11.42,11.42,0,0,0,12.33.14a9.79,9.79,0,0,0-7.4,2C1.72,4.41-.71,8.37.19,12.21a13.84,13.84,0,0,0,1.85,4,30.12,30.12,0,0,0,5,6.55A11.53,11.53,0,0,0,14.33,26,12.35,12.35,0,0,0,22,23.15c4.33-3.33,7.31-9,5.86-14.3">
    <animate
      attributeName="opacity"
      repeatCount="indefinite"
      dur="20s"
      values="0;0;0;0;1;1;1;0;0"
    />
    <animateTransform
      attributeName="transform"
      type="rotate"
      repeatCount="indefinite"
      dur="80s"
      from="360 150 150"
      to="0 150 150"
    />
  </path>
  <path id="l2" d="M85.7,8.9c.33-3.32-2.7-6.31-6-6.81s-6.62,1-9.21,3.12S65.89,10,63.64,12.49a9.41,9.41,0,0,1-4.58,3.19c-3.47.78-6.65-2.08-8.76-4.94s-4.2-6.21-7.64-7.11c-3.79-1-7.67,1.51-10.15,4.54s-4.16,6.7-6.93,9.47S18.31,22.12,15,20.06a12.07,12.07,0,0,1-3.69-4.46L7.93,9.85A7.14,7.14,0,0,0,5.39,6.91C4.22,6.3,2.5,6.56,2,7.78">
    <animate
      attributeName="opacity"
      repeatCount="indefinite"
      dur="20s"
      values="0;0;0;0;0;1;1;1;0"
    />
    <animateTransform
      attributeName="transform"
      type="rotate"
      repeatCount="indefinite"
      dur="80s"
      from="360 150 150"
      to="0 150 150"
    />
  </path>
  <path id="t3" d="M16.58,2.36A68.52,68.52,0,0,0,5.33,2.14,4.14,4.14,0,0,0,2.7,3C1.38,4.23,2.18,6.42,3,8l8.1,14.87c.65,1.2,1.43,2.5,2.75,2.87a4.89,4.89,0,0,0,3.37-.69A42.36,42.36,0,0,0,32.45,12.46a8.56,8.56,0,0,0,1.79-3.54,3.37,3.37,0,0,0-1.38-3.5A5,5,0,0,0,31,4.92C25.13,4.1,22.51,2.9,16.58,2.36Z">
    <animate
      attributeName="opacity"
      repeatCount="indefinite"
      dur="20s"
      values="1;0;0;0;0;0;1;1;1"
    />
    <animateTransform
      attributeName="transform"
      type="rotate"
      repeatCount="indefinite"
      dur="80s"
      from="360 150 150"
      to="0 150 150"
    />
  </path>
  <path id="c3" d="M16.66,19.31c0-2.1-2.84-3.38-4.68-2.35s-2.46,3.52-1.85,5.54c1.12,3.7,5.8,5.64,9.41,4.27s5.81-5.44,5.52-9.3a12.82,12.82,0,0,0-6-9.46A12.7,12.7,0,0,0,8,6.38,12.65,12.65,0,0,0,.54,15.12a20.73,20.73,0,0,0,.75,11.75,17.2,17.2,0,0,0,2.43,4.92c3.94,5.26,11.55,6.36,18,5a17.51,17.51,0,0,0,7.55-3.24,15.27,15.27,0,0,0,4.9-8.16A20.76,20.76,0,0,0,18.61,0">
    <animate
      attributeName="opacity"
      repeatCount="indefinite"
      dur="20s"
      values="1;0;0;0;0;0;0;1;1"
    />
    <animateTransform
      attributeName="transform"
      type="rotate"
      repeatCount="indefinite"
      dur="80s"
      from="360 150 150"
      to="0 150 150"
    />
  </path>
  <path id="l3" d="M2,19.86c2.37-3.51,2.92-9.08,7-10,2.51-.58,5,1.1,6.65,3.1s2.78,4.4,4.69,6.14a10.34,10.34,0,0,0,13.12.34c3.4-2.8,4.55-7.42,6.65-11.29S46.72.68,50.74,2.48c5.2,2.33,4.63,11.25,9.95,13.29a8.22,8.22,0,0,0,6.09-.56,18.15,18.15,0,0,0,9.57-9.86">
    <animate
      attributeName="opacity"
      repeatCount="indefinite"
      dur="20s"
      values="1;1;0;0;0;0;0;0;1"
    />
    <animateTransform
      attributeName="transform"
      type="rotate"
      repeatCount="indefinite"
      dur="80s"
      from="360 150 150"
      to="0 150 150"
    />
  </path>
  </defs>
  <use
    xlink:href="#t1"
    transform="translate(481.23 288.91) rotate(260.94) scale(0.89)"
  />
  <use
    xlink:href="#t1"
    transform="translate(718.3 127.11) rotate(197.4) scale(1.13)"
  />
  <use
    xlink:href="#t1"
    transform="translate(592.95 778.66) rotate(273.37) scale(1.07)"
  />
  <use
    xlink:href="#t1"
    transform="translate(452.67 762.32) rotate(30.64) scale(1.17)"
  />
  <use
    xlink:href="#t1"
    transform="translate(0.39 145.13) rotate(110.31) scale(0.82)"
  />
  <use
    xlink:href="#t1"
    transform="translate(357.23 94.32) rotate(93.75) scale(1.07)"
  />
  <use
    xlink:href="#t1"
    transform="translate(478.58 349.41) rotate(170.31) scale(0.92)"
  />
  <use
    xlink:href="#t1"
    transform="translate(773.72 601.95) rotate(55.78) scale(1.13)"
  />
  <use
    xlink:href="#t1"
    transform="translate(795.91 394.23) rotate(139.56) scale(1.11)"
  />
  <use
    xlink:href="#t1"
    transform="translate(40.99 94.55) rotate(150.99) scale(0.85)"
  />
  <use
    xlink:href="#t1"
    transform="translate(1047.89 351.27) rotate(214.51) scale(0.89)"
  />
  <use
    xlink:href="#t1"
    transform="translate(1184.45 194.78) rotate(83.79) scale(1.14)"
  />
  <use
    xlink:href="#t1"
    transform="translate(206.17 216.37) rotate(169.09) scale(1.05)"
  />
  <use
    xlink:href="#t1"
    transform="translate(199.47 256.57) rotate(284.99) scale(1.04)"
  />
  <use
    xlink:href="#t1"
    transform="translate(259.08 71.73) rotate(93.56) scale(0.82)"
  />
  <use
    xlink:href="#t1"
    transform="translate(497.09 571.35) rotate(203.32) scale(0.97)"
  />
  <use
    xlink:href="#t1"
    transform="translate(1159.58 762.36) rotate(273.71) scale(0.85)"
  />
  <use
    xlink:href="#t1"
    transform="translate(576.54 271.35) rotate(62.47) scale(1.16)"
  />
  <use
    xlink:href="#t1"
    transform="translate(719.91 71.43) rotate(248.18) scale(0.86)"
  />
  <use
    xlink:href="#t1"
    transform="translate(560.99 404.24) rotate(208.95) scale(0.92)"
  />
  <use
    xlink:href="#c1"
    transform="translate(765.53 746.65) rotate(104.02) scale(1.16)"
  />
  <use
    xlink:href="#c1"
    transform="translate(616.03 230.55) rotate(243.59) scale(1.09)"
  />
  <use
    xlink:href="#c1"
    transform="translate(614.62 563.58) rotate(250.55) scale(0.83)"
  />
  <use
    xlink:href="#c1"
    transform="translate(873.54 108.06) rotate(322.61) scale(1.01)"
  />
  <use
    xlink:href="#c1"
    transform="translate(482.1 311.89) rotate(76.4) scale(0.83)"
  />
  <use
    xlink:href="#c1"
    transform="translate(278.14 624.67) rotate(300.81) scale(0.89)"
  />
  <use
    xlink:href="#c1"
    transform="translate(42.46 646.34) rotate(187) scale(0.99)"
  />
  <use
    xlink:href="#c1"
    transform="translate(1060.19 237.88) rotate(158) scale(0.92)"
  />
  <use
    xlink:href="#c1"
    transform="translate(997.08 767.5) rotate(292.03) scale(1.1)"
  />
  <use
    xlink:href="#c1"
    transform="translate(773.22 576.88) rotate(167.75) scale(1.18)"
  />
  <use
    xlink:href="#c1"
    transform="translate(274.68 576.96) rotate(234.31) scale(0.95)"
  />
  <use
    xlink:href="#c1"
    transform="translate(317.72 259.62) rotate(169.97) scale(0.93)"
  />
  <use
    xlink:href="#c1"
    transform="translate(1171.22 232.87) rotate(292.12) scale(0.95)"
  />
  <use
    xlink:href="#c1"
    transform="translate(46.86 766.84) rotate(252.53) scale(0.91)"
  />
  <use
    xlink:href="#c1"
    transform="translate(231.57 442.9) rotate(164.4) scale(1.1)"
  />
  <use
    xlink:href="#c1"
    transform="translate(98.69 121.48) rotate(54.96) scale(0.92)"
  />
  <use
    xlink:href="#c1"
    transform="translate(887.07 99.73) rotate(303.11) scale(0.87)"
  />
  <use
    xlink:href="#c1"
    transform="translate(753.79 395.78) rotate(318.18) scale(1.04)"
  />
  <use
    xlink:href="#c1"
    transform="translate(441.25 432.39) rotate(151.21) scale(0.92)"
  />
  <use
    xlink:href="#c1"
    transform="translate(1079.35 225.74) rotate(122.49) scale(0.84)"
  />
  <use
    xlink:href="#l1"
    transform="translate(321.32 195.22) rotate(143.88) scale(0.82)"
  />
  <use
    xlink:href="#l1"
    transform="translate(253.76 772.13) rotate(68.33) scale(0.82)"
  />
  <use
    xlink:href="#l1"
    transform="translate(913.85 85.22) rotate(1.58) scale(1.16)"
  />
  <use
    xlink:href="#l1"
    transform="translate(738.1 185.15) rotate(77.43) scale(0.81)"
  />
  <use
    xlink:href="#l1"
    transform="translate(403.36 575.53) rotate(158.7) scale(0.89)"
  />
  <use
    xlink:href="#l1"
    transform="translate(215.92 117.95) rotate(152.88) scale(1.01)"
  />
  <use
    xlink:href="#l1"
    transform="translate(268.41 705.2) rotate(2.58) scale(0.89)"
  />
  <use
    xlink:href="#l1"
    transform="translate(580.33 412.41) rotate(181.67) scale(1.11)"
  />
  <use
    xlink:href="#l1"
    transform="translate(487.01 734.87) rotate(348.06) scale(1.09)"
  />
  <use
    xlink:href="#l1"
    transform="translate(658.84 525.63) rotate(186.1) scale(1.14)"
  />
  <use
    xlink:href="#l1"
    transform="translate(775.5 65.1) rotate(278.58) scale(0.83)"
  />
  <use
    xlink:href="#l1"
    transform="translate(516.91 179.91) rotate(114.16) scale(0.9)"
  />
  <use
    xlink:href="#l1"
    transform="translate(1129.22 247.21) rotate(4.26) scale(0.84)"
  />
  <use
    xlink:href="#l1"
    transform="translate(899.01 178.42) rotate(156.8) scale(0.95)"
  />
  <use
    xlink:href="#l1"
    transform="translate(1195.86 762.86) rotate(102.44) scale(1.16)"
  />
  <use
    xlink:href="#l1"
    transform="translate(239.45 31.36) rotate(78.03) scale(0.96)"
  />
  <use
    xlink:href="#l1"
    transform="translate(554.39 604.75) rotate(324.89) scale(0.92)"
  />
  <use
    xlink:href="#l1"
    transform="translate(1107.7 438.36) rotate(24.73) scale(1.12)"
  />
  <use
    xlink:href="#l1"
    transform="translate(712.79 773.16) rotate(33.75) scale(0.97)"
  />
  <use
    xlink:href="#l1"
    transform="translate(753.84 558.78) rotate(331.33) scale(1.16)"
  />
  <use
    xlink:href="#t2"
    transform="translate(315.2 799.88) rotate(131.44) scale(1.07)"
  />
  <use
    xlink:href="#t2"
    transform="translate(1032.98 389.79) rotate(66.7) scale(0.98)"
  />
  <use
    xlink:href="#t2"
    transform="translate(946.45 71.59) rotate(189.88) scale(1.15)"
  />
  <use
    xlink:href="#t2"
    transform="translate(865.2 82.8) rotate(2.04) scale(0.88)"
  />
  <use
    xlink:href="#t2"
    transform="translate(599.99 739.08) rotate(104.9) scale(1.02)"
  />
  <use
    xlink:href="#t2"
    transform="translate(32.71 403.23) rotate(90.85) scale(1.11)"
  />
  <use
    xlink:href="#t2"
    transform="translate(598.73 567.86) rotate(170.71) scale(0.94)"
  />
  <use
    xlink:href="#t2"
    transform="translate(1084.9 236.19) rotate(354.75) scale(0.94)"
  />
  <use
    xlink:href="#t2"
    transform="translate(750.26 411.79) rotate(94.96) scale(0.86)"
  />
  <use
    xlink:href="#t2"
    transform="translate(966.36 233.44) rotate(353.3) scale(1.08)"
  />
  <use
    xlink:href="#t2"
    transform="translate(576.09 375.26) rotate(62.52) scale(1.01)"
  />
  <use
    xlink:href="#t2"
    transform="translate(980.06 489.8) rotate(355.39) scale(0.89)"
  />
  <use
    xlink:href="#t2"
    transform="translate(861.15 375.31) rotate(16.96) scale(1.06)"
  />
  <use
    xlink:href="#t2"
    transform="translate(43.37 632.51) rotate(319.57) scale(0.88)"
  />
  <use
    xlink:href="#t2"
    transform="translate(520.04 542.75) rotate(65.11) scale(0.99)"
  />
  <use
    xlink:href="#t2"
    transform="translate(734.25 387.18) rotate(82.86) scale(0.93)"
  />
  <use
    xlink:href="#t2"
    transform="translate(539.19 376.62) rotate(356.46) scale(1.17)"
  />
  <use
    xlink:href="#t2"
    transform="translate(1031.64 330.34) rotate(200.22) scale(1.07)"
  />
  <use
    xlink:href="#t2"
    transform="translate(511.38 667.03) rotate(326.47) scale(0.8)"
  />
  <use
    xlink:href="#t2"
    transform="translate(746.63 28.66) rotate(237.22) scale(1.15)"
  />
  <use
    xlink:href="#c2"
    transform="translate(741.87 271.77) rotate(248.11) scale(1.01)"
  />
  <use
    xlink:href="#c2"
    transform="translate(867.1 406.02) rotate(87.25) scale(1.11)"
  />
  <use
    xlink:href="#c2"
    transform="translate(991.17 615.58) rotate(199.11) scale(0.92)"
  />
  <use
    xlink:href="#c2"
    transform="translate(551.43 778.26) rotate(243.13) scale(1.16)"
  />
  <use
    xlink:href="#c2"
    transform="translate(975.18 271.96) rotate(241.86) scale(0.84)"
  />
  <use
    xlink:href="#c2"
    transform="translate(294.36 267.66) rotate(152.83) scale(0.86)"
  />
  <use
    xlink:href="#c2"
    transform="translate(463.94 648.22) rotate(300.37) scale(0.82)"
  />
  <use
    xlink:href="#c2"
    transform="translate(925.68 618.53) rotate(85.7) scale(1.17)"
  />
  <use
    xlink:href="#c2"
    transform="translate(436.47 571.36) rotate(311.58) scale(0.88)"
  />
  <use
    xlink:href="#c2"
    transform="translate(792.89 422.48) rotate(175.57) scale(0.94)"
  />
  <use
    xlink:href="#c2"
    transform="translate(367.48 143.6) rotate(261.66) scale(0.89)"
  />
  <use
    xlink:href="#c2"
    transform="translate(360.32 643.87) rotate(53.26) scale(1.17)"
  />
  <use
    xlink:href="#c2"
    transform="translate(528.85 760.33) rotate(258.04) scale(1.16)"
  />
  <use
    xlink:href="#c2"
    transform="translate(613.78 208.87) rotate(32.64) scale(1.07)"
  />
  <use
    xlink:href="#c2"
    transform="translate(1000.15 269.63) rotate(317.94) scale(0.85)"
  />
  <use
    xlink:href="#c2"
    transform="translate(684.38 499.96) rotate(36.75) scale(0.95)"
  />
  <use
    xlink:href="#c2"
    transform="translate(277.03 640.15) rotate(262.86) scale(0.83)"
  />
  <use
    xlink:href="#c2"
    transform="translate(975.18 795.77) rotate(214.43) scale(0.99)"
  />
  <use
    xlink:href="#c2"
    transform="translate(847.44 259.4) rotate(22.13) scale(1.07)"
  />
  <use
    xlink:href="#c2"
    transform="translate(385.83 543.99) rotate(44.78) scale(1.09)"
  />
  <use
    xlink:href="#l2"
    transform="translate(1054.45 107.31) rotate(204.16) scale(1.12)"
  />
  <use
    xlink:href="#l2"
    transform="translate(296.14 532.02) rotate(321.79) scale(0.85)"
  />
  <use
    xlink:href="#l2"
    transform="translate(141.05 149.03) rotate(53.73) scale(0.86)"
  />
  <use
    xlink:href="#l2"
    transform="translate(1068.63 405.96) rotate(139.6) scale(1.03)"
  />
  <use
    xlink:href="#l2"
    transform="translate(468.71 707.26) rotate(248.24) scale(0.8)"
  />
  <use
    xlink:href="#l2"
    transform="translate(634.65 584.64) rotate(259.61) scale(0.8)"
  />
  <use
    xlink:href="#l2"
    transform="translate(998.81 522.63) rotate(207.81) scale(0.89)"
  />
  <use
    xlink:href="#l2"
    transform="translate(259.46 66.84) rotate(182.28) scale(0.99)"
  />
  <use
    xlink:href="#l2"
    transform="translate(144.92 112.86) rotate(112.89) scale(0.94)"
  />
  <use
    xlink:href="#l2"
    transform="translate(884.23 356.56) rotate(290.17) scale(1.17)"
  />
  <use
    xlink:href="#l2"
    transform="translate(420.03 744.35) rotate(184.85) scale(1)"
  />
  <use
    xlink:href="#l2"
    transform="translate(1139.95 579.04) rotate(74.98) scale(0.87)"
  />
  <use
    xlink:href="#l2"
    transform="translate(765.96 668.76) rotate(236.62) scale(0.84)"
  />
  <use
    xlink:href="#l2"
    transform="translate(87.4 344.34) rotate(158.45) scale(1.15)"
  />
  <use
    xlink:href="#l2"
    transform="translate(703.1 139.73) rotate(180.14) scale(1.14)"
  />
  <use
    xlink:href="#l2"
    transform="translate(976.6 643.56) rotate(216.83) scale(1.08)"
  />
  <use
    xlink:href="#l2"
    transform="translate(1121.84 572.51) rotate(325.78) scale(1.05)"
  />
  <use
    xlink:href="#l2"
    transform="translate(949.05 145.24) rotate(67.25) scale(1.19)"
  />
  <use
    xlink:href="#l2"
    transform="translate(705.67 547.07) rotate(315) scale(0.99)"
  />
  <use
    xlink:href="#l2"
    transform="translate(163.24 715.6) rotate(168.85) scale(0.82)"
  />
  <use
    xlink:href="#t3"
    transform="translate(374.62 452.89) rotate(138.44) scale(1.08)"
  />
  <use
    xlink:href="#t3"
    transform="translate(464.34 576.25) rotate(325.77) scale(0.85)"
  />
  <use
    xlink:href="#t3"
    transform="translate(29.28 513) rotate(262.19) scale(0.89)"
  />
  <use
    xlink:href="#t3"
    transform="translate(830.9 60.03) rotate(77.96) scale(0.86)"
  />
  <use
    xlink:href="#t3"
    transform="translate(1055.47 11.3) rotate(28.1) scale(0.82)"
  />
  <use
    xlink:href="#t3"
    transform="translate(783.2 34.99) rotate(220.23) scale(1.18)"
  />
  <use
    xlink:href="#t3"
    transform="translate(357.83 675.32) rotate(53.66) scale(0.97)"
  />
  <use
    xlink:href="#t3"
    transform="translate(485.55 69.91) rotate(0.78) scale(0.86)"
  />
  <use
    xlink:href="#t3"
    transform="translate(577.12 173.43) rotate(46.75) scale(0.88)"
  />
  <use
    xlink:href="#t3"
    transform="translate(29.22 541.39) rotate(263.23) scale(0.88)"
  />
  <use
    xlink:href="#t3"
    transform="translate(369.65 51.39) rotate(339.98) scale(0.92)"
  />
  <use
    xlink:href="#t3"
    transform="translate(1053.95 790.44) rotate(88.69) scale(0.8)"
  />
  <use
    xlink:href="#t3"
    transform="translate(1165.63 344.36) rotate(174.51) scale(1.15)"
  />
  <use
    xlink:href="#t3"
    transform="translate(801.13 754.22) rotate(153.9) scale(0.81)"
  />
  <use
    xlink:href="#t3"
    transform="translate(40.39 259.38) rotate(77.7) scale(0.93)"
  />
  <use
    xlink:href="#t3"
    transform="translate(115.23 128.26) rotate(67.25) scale(0.97)"
  />
  <use
    xlink:href="#t3"
    transform="translate(866.32 559.36) rotate(129.59) scale(0.83)"
  />
  <use
    xlink:href="#t3"
    transform="translate(816.4 124.07) rotate(67.35) scale(0.81)"
  />
  <use
    xlink:href="#t3"
    transform="translate(1075.28 687.56) rotate(67.71) scale(1.12)"
  />
  <use
    xlink:href="#t3"
    transform="translate(530.33 448.27) rotate(18.47) scale(0.86)"
  />
  <use
    xlink:href="#c3"
    transform="translate(73.2 226.64) rotate(5.8) scale(0.95)"
  />
  <use
    xlink:href="#c3"
    transform="translate(361.09 329.9) rotate(169.49) scale(1.14)"
  />
  <use
    xlink:href="#c3"
    transform="translate(866.56 243.44) rotate(117.68) scale(0.99)"
  />
  <use
    xlink:href="#c3"
    transform="translate(796.36 287.72) rotate(23.4) scale(1.06)"
  />
  <use
    xlink:href="#c3"
    transform="translate(447.74 197.18) rotate(102.99) scale(1.15)"
  />
  <use
    xlink:href="#c3"
    transform="translate(306.43 333.21) rotate(251.91) scale(0.88)"
  />
  <use
    xlink:href="#c3"
    transform="translate(70.47 84.31) rotate(60.07) scale(1.17)"
  />
  <use
    xlink:href="#c3"
    transform="translate(402.55 1.19) rotate(185.17) scale(1.12)"
  />
  <use
    xlink:href="#c3"
    transform="translate(840.04 64.79) rotate(53.62) scale(0.82)"
  />
  <use
    xlink:href="#c3"
    transform="translate(1083.64 343.44) rotate(346.02) scale(1.05)"
  />
  <use
    xlink:href="#c3"
    transform="translate(1183.48 266.63) rotate(138.86) scale(0.92)"
  />
  <use
    xlink:href="#c3"
    transform="translate(133.73 536.72) rotate(261.4) scale(0.88)"
  />
  <use
    xlink:href="#c3"
    transform="translate(116.83 742.6) rotate(331.81) scale(0.95)"
  />
  <use
    xlink:href="#c3"
    transform="translate(605.4 756.17) rotate(167.01) scale(0.91)"
  />
  <use
    xlink:href="#c3"
    transform="translate(67.98 396.97) rotate(45.62) scale(1.01)"
  />
  <use
    xlink:href="#c3"
    transform="translate(344.67 471.68) rotate(38.37) scale(0.88)"
  />
  <use
    xlink:href="#c3"
    transform="translate(894 729.56) rotate(230.79) scale(1.13)"
  />
  <use
    xlink:href="#c3"
    transform="translate(411.3 84.79) rotate(233.51) scale(0.9)"
  />
  <use
    xlink:href="#c3"
    transform="translate(518.79 245.79) rotate(41.36) scale(1.04)"
  />
  <use
    xlink:href="#c3"
    transform="translate(483.29 32.44) rotate(172.97) scale(0.83)"
  />
  <use
    xlink:href="#l3"
    transform="translate(649.6 669.68) rotate(111.19) scale(0.95)"
  />
  <use
    xlink:href="#l3"
    transform="translate(64.84 674.1) rotate(280.54) scale(1.17)"
  />
  <use
    xlink:href="#l3"
    transform="translate(57.59 42.21) rotate(194.17) scale(1.08)"
  />
  <use
    xlink:href="#l3"
    transform="translate(1170.3 206.53) rotate(286.59) scale(1.11)"
  />
  <use
    xlink:href="#l3"
    transform="translate(91.82 280.86) rotate(277.5) scale(0.84)"
  />
  <use
    xlink:href="#l3"
    transform="translate(582.18 300.31) rotate(219.12) scale(0.85)"
  />
  <use
    xlink:href="#l3"
    transform="translate(9.05 566.51) rotate(247.82) scale(0.96)"
  />
  <use
    xlink:href="#l3"
    transform="translate(487.32 98.25) rotate(282.82) scale(0.98)"
  />
  <use
    xlink:href="#l3"
    transform="translate(1118.22 169.72) rotate(283.42) scale(1.1)"
  />
  <use
    xlink:href="#l3"
    transform="translate(772.95 564.74) rotate(43.65) scale(0.84)"
  />
  <use
    xlink:href="#l3"
    transform="translate(120.44 705.79) rotate(25.7) scale(1.09)"
  />
  <use
    xlink:href="#l3"
    transform="translate(292.52 766.83) rotate(311.52) scale(1.19)"
  />
  <use
    xlink:href="#l3"
    transform="translate(451.94 75.62) rotate(23.3) scale(0.99)"
  />
  <use
    xlink:href="#l3"
    transform="translate(845.08 589.66) rotate(12.6) scale(0.89)"
  />
  <use
    xlink:href="#l3"
    transform="translate(16.83 197.73) rotate(166.91) scale(0.93)"
  />
  <use
    xlink:href="#l3"
    transform="translate(1005.99 4.1) rotate(304.53) scale(0.87)"
  />
  <use
    xlink:href="#l3"
    transform="translate(1179.17 219.7) rotate(34.98) scale(0.91)"
  />
  <use
    xlink:href="#l3"
    transform="translate(305.49 566.71) rotate(276.52) scale(0.91)"
  />
  <use
    xlink:href="#l3"
    transform="translate(587.68 571.15) rotate(328.91) scale(0.83)"
  />
  <use
    xlink:href="#l3"
    transform="translate(916.01 203.5) rotate(281.23) scale(1.07)"
  />
  <text
    x="600"
    y="400"
    font-family="courier new, courier, monospace"
    font-weight="bold"
    font-size="120"
    fill="black"
    text-anchor="middle"
    alignment-baseline="middle"
  >fe(3)×3</text>
</svg>
