<svg
  xmlns="http://www.w3.org/2000/svg"
  xmlns:xlink="http://www.w3.org/1999/xlink"
  viewBox="0 0 1200 800"
>
  <title>Tech Track</title>
  <style>
    :root { color: #feca2f; background-color: currentcolor; max-width: 100% }
    body { margin: 0 }
    path { fill: none; stroke: hsl(45, 99%, 67%); stroke-width: 5px; stroke-linecap: round }
    path:nth-child(odd) { stroke: hsl(45, 99%, 52%) }
  </style>
  <rect width="100%" height="100%" fill="currentcolor"/>
  <defs>
  <path id="t1" d="M7.76,10.89c-1.5,2.18-2.77,4.5-4.27,6.68-1.12,1.63-2.22,4-.86,5.41a4.34,4.34,0,0,0,2.25,1,130.06,130.06,0,0,0,24.85,3.36,2.65,2.65,0,0,0,2-.45,2.5,2.5,0,0,0,.51-2c-.43-7.43-5.32-13.76-10-19.55C21.15,4,20,2.67,18.4,2.18a5.71,5.71,0,0,0-5,1.19,16.87,16.87,0,0,0-3.43,4c-1.43,2.11-.79,1.36-2.23,3.47">
    <animate
      attributeName="opacity"
      repeatCount="indefinite"
      dur="20s"
      values="1;1;1;0;0;0;0;0;1"
    />
    <animateTransform
      attributeName="transform"
      type="rotate"
      repeatCount="indefinite"
      dur="80s"
      from="360 150 150"
      to="0 150 150"
    />
  </path>
  <path id="c1" d="M12.36,11.18a1.16,1.16,0,0,0-1.63-.11,3,3,0,0,0-.87,1.58c-.61,2.11-.78,4.58.55,6.32,1.71,2.23,5.36,2.21,7.57.46s3.15-4.69,3.26-7.5a13.18,13.18,0,0,0-1.89-7.67A9.12,9.12,0,0,0,12.85,0,9.93,9.93,0,0,0,4.51,3.82,20.08,20.08,0,0,0,.67,12.45c-.86,3.8-1.14,8,.63,11.44,2.31,4.55,7.64,6.85,12.72,7.3a13.12,13.12,0,0,0,7.81-1.32,15.12,15.12,0,0,0,5-5.68c2.11-3.59,3.87-7.56,3.88-11.73S28.64,3.9,24.84,2.21">
    <animate
      attributeName="opacity"
      repeatCount="indefinite"
      dur="20s"
      values="0;1;1;1;0;0;0;0;0"
    />
    <animateTransform
      attributeName="transform"
      type="rotate"
      repeatCount="indefinite"
      dur="80s"
      from="360 150 150"
      to="0 150 150"
    />
  </path>
  <path id="l1" d="M2.07,10.63a6,6,0,0,0,2.89,6A6,6,0,0,0,11.59,16c3.64-3.14,2.84-10.08,7.21-12.06,2.83-1.29,6.15.49,8.31,2.72s3.86,5,6.55,6.59a9.31,9.31,0,0,0,10.47-1A9.31,9.31,0,0,0,46.62,2">
    <animate
      attributeName="opacity"
      repeatCount="indefinite"
      dur="20s"
      values="0;0;1;1;1;0;0;0;0"
    />
    <animateTransform
      attributeName="transform"
      type="rotate"
      repeatCount="indefinite"
      dur="80s"
      from="360 150 150"
      to="0 150 150"
    />
  </path>
  <path id="t2" d="M23.42,19c-1.93-6-2.36-7.18-4.09-13.2-.54-1.88-1.82-4.21-3.71-3.74a3.78,3.78,0,0,0-1.45.88,120.75,120.75,0,0,0-9.68,9.15c-1.38,1.45-2.82,3.27-2.41,5.23a6.22,6.22,0,0,0,2.63,3.34,73,73,0,0,0,15.38,9.16c2,.87,4.64,1.5,6-.18s.26-4-1-5.75S24.06,21,23.42,19Z">
    <animate
      attributeName="opacity"
      repeatCount="indefinite"
      dur="20s"
      values="0;0;0;1;1;1;0;0;0"
    />
    <animateTransform
      attributeName="transform"
      type="rotate"
      repeatCount="indefinite"
      dur="80s"
      from="360 150 150"
      to="0 150 150"
    />
  </path>
  <path id="c2" d="M13.44,10.08a2.92,2.92,0,0,0-4.15-.66C7.93,10.56,8,12.75,8.79,14.32a6.86,6.86,0,0,0,8.38,3,7.23,7.23,0,0,0,4.17-8A11.85,11.85,0,0,0,18.15,4,11.42,11.42,0,0,0,12.33.14a9.79,9.79,0,0,0-7.4,2C1.72,4.41-.71,8.37.19,12.21a13.84,13.84,0,0,0,1.85,4,30.12,30.12,0,0,0,5,6.55A11.53,11.53,0,0,0,14.33,26,12.35,12.35,0,0,0,22,23.15c4.33-3.33,7.31-9,5.86-14.3">
    <animate
      attributeName="opacity"
      repeatCount="indefinite"
      dur="20s"
      values="0;0;0;0;1;1;1;0;0"
    />
    <animateTransform
      attributeName="transform"
      type="rotate"
      repeatCount="indefinite"
      dur="80s"
      from="360 150 150"
      to="0 150 150"
    />
  </path>
  <path id="l2" d="M85.7,8.9c.33-3.32-2.7-6.31-6-6.81s-6.62,1-9.21,3.12S65.89,10,63.64,12.49a9.41,9.41,0,0,1-4.58,3.19c-3.47.78-6.65-2.08-8.76-4.94s-4.2-6.21-7.64-7.11c-3.79-1-7.67,1.51-10.15,4.54s-4.16,6.7-6.93,9.47S18.31,22.12,15,20.06a12.07,12.07,0,0,1-3.69-4.46L7.93,9.85A7.14,7.14,0,0,0,5.39,6.91C4.22,6.3,2.5,6.56,2,7.78">
    <animate
      attributeName="opacity"
      repeatCount="indefinite"
      dur="20s"
      values="0;0;0;0;0;1;1;1;0"
    />
    <animateTransform
      attributeName="transform"
      type="rotate"
      repeatCount="indefinite"
      dur="80s"
      from="360 150 150"
      to="0 150 150"
    />
  </path>
  <path id="t3" d="M16.58,2.36A68.52,68.52,0,0,0,5.33,2.14,4.14,4.14,0,0,0,2.7,3C1.38,4.23,2.18,6.42,3,8l8.1,14.87c.65,1.2,1.43,2.5,2.75,2.87a4.89,4.89,0,0,0,3.37-.69A42.36,42.36,0,0,0,32.45,12.46a8.56,8.56,0,0,0,1.79-3.54,3.37,3.37,0,0,0-1.38-3.5A5,5,0,0,0,31,4.92C25.13,4.1,22.51,2.9,16.58,2.36Z">
    <animate
      attributeName="opacity"
      repeatCount="indefinite"
      dur="20s"
      values="1;0;0;0;0;0;1;1;1"
    />
    <animateTransform
      attributeName="transform"
      type="rotate"
      repeatCount="indefinite"
      dur="80s"
      from="360 150 150"
      to="0 150 150"
    />
  </path>
  <path id="c3" d="M16.66,19.31c0-2.1-2.84-3.38-4.68-2.35s-2.46,3.52-1.85,5.54c1.12,3.7,5.8,5.64,9.41,4.27s5.81-5.44,5.52-9.3a12.82,12.82,0,0,0-6-9.46A12.7,12.7,0,0,0,8,6.38,12.65,12.65,0,0,0,.54,15.12a20.73,20.73,0,0,0,.75,11.75,17.2,17.2,0,0,0,2.43,4.92c3.94,5.26,11.55,6.36,18,5a17.51,17.51,0,0,0,7.55-3.24,15.27,15.27,0,0,0,4.9-8.16A20.76,20.76,0,0,0,18.61,0">
    <animate
      attributeName="opacity"
      repeatCount="indefinite"
      dur="20s"
      values="1;0;0;0;0;0;0;1;1"
    />
    <animateTransform
      attributeName="transform"
      type="rotate"
      repeatCount="indefinite"
      dur="80s"
      from="360 150 150"
      to="0 150 150"
    />
  </path>
  <path id="l3" d="M2,19.86c2.37-3.51,2.92-9.08,7-10,2.51-.58,5,1.1,6.65,3.1s2.78,4.4,4.69,6.14a10.34,10.34,0,0,0,13.12.34c3.4-2.8,4.55-7.42,6.65-11.29S46.72.68,50.74,2.48c5.2,2.33,4.63,11.25,9.95,13.29a8.22,8.22,0,0,0,6.09-.56,18.15,18.15,0,0,0,9.57-9.86">
    <animate
      attributeName="opacity"
      repeatCount="indefinite"
      dur="20s"
      values="1;1;0;0;0;0;0;0;1"
    />
    <animateTransform
      attributeName="transform"
      type="rotate"
      repeatCount="indefinite"
      dur="80s"
      from="360 150 150"
      to="0 150 150"
    />
  </path>
  </defs>
  <use
    xlink:href="#t1"
    transform="translate(667.87 397.16) rotate(335.84) scale(0.86)"
  />
  <use
    xlink:href="#t1"
    transform="translate(883.55 236.11) rotate(193.28) scale(1.18)"
  />
  <use
    xlink:href="#t1"
    transform="translate(76.63 722.45) rotate(225.67) scale(0.85)"
  />
  <use
    xlink:href="#t1"
    transform="translate(504.66 305.79) rotate(96.67) scale(0.85)"
  />
  <use
    xlink:href="#t1"
    transform="translate(1093.19 746.36) rotate(339.82) scale(0.95)"
  />
  <use
    xlink:href="#t1"
    transform="translate(1139.05 346.15) rotate(93.63) scale(0.91)"
  />
  <use
    xlink:href="#t1"
    transform="translate(1137.86 323.57) rotate(259.73) scale(0.93)"
  />
  <use
    xlink:href="#t1"
    transform="translate(552.97 327.94) rotate(40.85) scale(1.11)"
  />
  <use
    xlink:href="#t1"
    transform="translate(312.75 93.8) rotate(203.56) scale(0.88)"
  />
  <use
    xlink:href="#t1"
    transform="translate(36.9 537.65) rotate(10.35) scale(1.14)"
  />
  <use
    xlink:href="#t1"
    transform="translate(768.03 300.25) rotate(294.91) scale(0.84)"
  />
  <use
    xlink:href="#t1"
    transform="translate(711.01 52.94) rotate(154.21) scale(0.97)"
  />
  <use
    xlink:href="#t1"
    transform="translate(199.01 432.03) rotate(304.26) scale(0.8)"
  />
  <use
    xlink:href="#t1"
    transform="translate(1144.68 100.91) rotate(30.03) scale(1.12)"
  />
  <use
    xlink:href="#t1"
    transform="translate(646.13 211.14) rotate(101.67) scale(0.98)"
  />
  <use
    xlink:href="#t1"
    transform="translate(322.69 92.07) rotate(112.21) scale(1.14)"
  />
  <use
    xlink:href="#t1"
    transform="translate(994.18 463.72) rotate(302.36) scale(1.12)"
  />
  <use
    xlink:href="#t1"
    transform="translate(657.93 753.46) rotate(282.96) scale(1.19)"
  />
  <use
    xlink:href="#t1"
    transform="translate(726.5 477.16) rotate(193.99) scale(0.87)"
  />
  <use
    xlink:href="#t1"
    transform="translate(70.95 254.77) rotate(234.88) scale(0.94)"
  />
  <use
    xlink:href="#c1"
    transform="translate(1161.73 70.88) rotate(66.65) scale(1.06)"
  />
  <use
    xlink:href="#c1"
    transform="translate(185.67 292.65) rotate(43.25) scale(0.96)"
  />
  <use
    xlink:href="#c1"
    transform="translate(429.08 510.09) rotate(84.02) scale(0.81)"
  />
  <use
    xlink:href="#c1"
    transform="translate(941.12 675.17) rotate(223.56) scale(1.01)"
  />
  <use
    xlink:href="#c1"
    transform="translate(663.49 631.38) rotate(339.3) scale(1.15)"
  />
  <use
    xlink:href="#c1"
    transform="translate(190.93 302.55) rotate(13.81) scale(1)"
  />
  <use
    xlink:href="#c1"
    transform="translate(1154.9 201.77) rotate(89.43) scale(1.1)"
  />
  <use
    xlink:href="#c1"
    transform="translate(42.85 467.9) rotate(186.47) scale(0.82)"
  />
  <use
    xlink:href="#c1"
    transform="translate(820.26 60.47) rotate(231.76) scale(1.09)"
  />
  <use
    xlink:href="#c1"
    transform="translate(665.75 55.01) rotate(100.77) scale(0.92)"
  />
  <use
    xlink:href="#c1"
    transform="translate(393.62 143.68) rotate(58.73) scale(1.06)"
  />
  <use
    xlink:href="#c1"
    transform="translate(970.57 57.69) rotate(46.65) scale(0.89)"
  />
  <use
    xlink:href="#c1"
    transform="translate(91.43 362.31) rotate(328.81) scale(1.18)"
  />
  <use
    xlink:href="#c1"
    transform="translate(942.6 102.21) rotate(51.47) scale(0.85)"
  />
  <use
    xlink:href="#c1"
    transform="translate(622.62 28.53) rotate(330.12) scale(1.15)"
  />
  <use
    xlink:href="#c1"
    transform="translate(24.17 346.26) rotate(44.14) scale(0.87)"
  />
  <use
    xlink:href="#c1"
    transform="translate(479.57 408.04) rotate(101.05) scale(1.01)"
  />
  <use
    xlink:href="#c1"
    transform="translate(566.96 498.95) rotate(251.98) scale(1.16)"
  />
  <use
    xlink:href="#c1"
    transform="translate(129.91 45.51) rotate(192.08) scale(1)"
  />
  <use
    xlink:href="#c1"
    transform="translate(152.24 6.3) rotate(256.1) scale(0.98)"
  />
  <use
    xlink:href="#l1"
    transform="translate(1164.06 679.31) rotate(118.6) scale(1)"
  />
  <use
    xlink:href="#l1"
    transform="translate(401.19 145.65) rotate(210.97) scale(0.93)"
  />
  <use
    xlink:href="#l1"
    transform="translate(873.75 162.2) rotate(210.63) scale(0.91)"
  />
  <use
    xlink:href="#l1"
    transform="translate(936.73 369.09) rotate(335) scale(0.82)"
  />
  <use
    xlink:href="#l1"
    transform="translate(486.47 205.99) rotate(320.05) scale(0.8)"
  />
  <use
    xlink:href="#l1"
    transform="translate(938.68 431.71) rotate(313.14) scale(0.93)"
  />
  <use
    xlink:href="#l1"
    transform="translate(87.1 798.4) rotate(309.62) scale(1.19)"
  />
  <use
    xlink:href="#l1"
    transform="translate(486.67 628.01) rotate(15.15) scale(0.95)"
  />
  <use
    xlink:href="#l1"
    transform="translate(702.98 398.06) rotate(198.94) scale(1.08)"
  />
  <use
    xlink:href="#l1"
    transform="translate(586.11 568.71) rotate(287.09) scale(1.09)"
  />
  <use
    xlink:href="#l1"
    transform="translate(433.37 400.14) rotate(337.07) scale(0.8)"
  />
  <use
    xlink:href="#l1"
    transform="translate(488.54 159.84) rotate(16.29) scale(1.09)"
  />
  <use
    xlink:href="#l1"
    transform="translate(765.58 772.43) rotate(216.08) scale(0.99)"
  />
  <use
    xlink:href="#l1"
    transform="translate(1180.69 347.08) rotate(345.15) scale(1.19)"
  />
  <use
    xlink:href="#l1"
    transform="translate(496.16 146.3) rotate(278.47) scale(1.19)"
  />
  <use
    xlink:href="#l1"
    transform="translate(864.55 239.47) rotate(65.61) scale(1.02)"
  />
  <use
    xlink:href="#l1"
    transform="translate(406.08 125.55) rotate(60.7) scale(0.87)"
  />
  <use
    xlink:href="#l1"
    transform="translate(393.39 69.08) rotate(211.39) scale(1.06)"
  />
  <use
    xlink:href="#l1"
    transform="translate(477.39 665.17) rotate(105.91) scale(0.97)"
  />
  <use
    xlink:href="#l1"
    transform="translate(266.36 795.24) rotate(347.01) scale(0.87)"
  />
  <use
    xlink:href="#t2"
    transform="translate(514.59 615.27) rotate(19.87) scale(0.96)"
  />
  <use
    xlink:href="#t2"
    transform="translate(590.73 267.44) rotate(289.51) scale(0.84)"
  />
  <use
    xlink:href="#t2"
    transform="translate(771.69 515.32) rotate(116.32) scale(1.05)"
  />
  <use
    xlink:href="#t2"
    transform="translate(14.84 735.62) rotate(234.04) scale(0.82)"
  />
  <use
    xlink:href="#t2"
    transform="translate(751.48 686.31) rotate(206.6) scale(0.87)"
  />
  <use
    xlink:href="#t2"
    transform="translate(879.2 456.65) rotate(265.65) scale(0.85)"
  />
  <use
    xlink:href="#t2"
    transform="translate(0.09 505.29) rotate(345.91) scale(1.04)"
  />
  <use
    xlink:href="#t2"
    transform="translate(954.52 272.16) rotate(114.15) scale(0.95)"
  />
  <use
    xlink:href="#t2"
    transform="translate(495.76 746.92) rotate(93.65) scale(0.83)"
  />
  <use
    xlink:href="#t2"
    transform="translate(758.75 96.72) rotate(79.44) scale(0.91)"
  />
  <use
    xlink:href="#t2"
    transform="translate(917.4 348.62) rotate(151.27) scale(0.91)"
  />
  <use
    xlink:href="#t2"
    transform="translate(171.13 273.6) rotate(161.71) scale(1.19)"
  />
  <use
    xlink:href="#t2"
    transform="translate(932.5 426.24) rotate(289.44) scale(1.17)"
  />
  <use
    xlink:href="#t2"
    transform="translate(1105.02 293.84) rotate(87.13) scale(1.12)"
  />
  <use
    xlink:href="#t2"
    transform="translate(1189.8 553.78) rotate(182.07) scale(1.1)"
  />
  <use
    xlink:href="#t2"
    transform="translate(644.42 706.98) rotate(180.27) scale(1.07)"
  />
  <use
    xlink:href="#t2"
    transform="translate(283.87 39.13) rotate(341.48) scale(1.17)"
  />
  <use
    xlink:href="#t2"
    transform="translate(142.69 647.43) rotate(134.09) scale(1.04)"
  />
  <use
    xlink:href="#t2"
    transform="translate(402.58 701.95) rotate(238.16) scale(0.99)"
  />
  <use
    xlink:href="#t2"
    transform="translate(372.94 33.46) rotate(26.56) scale(1.17)"
  />
  <use
    xlink:href="#c2"
    transform="translate(1144.5 209.37) rotate(106.2) scale(0.92)"
  />
  <use
    xlink:href="#c2"
    transform="translate(113.66 740.42) rotate(8.83) scale(0.8)"
  />
  <use
    xlink:href="#c2"
    transform="translate(1088.01 384.78) rotate(330.39) scale(0.93)"
  />
  <use
    xlink:href="#c2"
    transform="translate(651.42 727.76) rotate(278.92) scale(0.94)"
  />
  <use
    xlink:href="#c2"
    transform="translate(860.16 93.55) rotate(258.55) scale(0.89)"
  />
  <use
    xlink:href="#c2"
    transform="translate(757.26 4.22) rotate(191.37) scale(1.04)"
  />
  <use
    xlink:href="#c2"
    transform="translate(970.21 110.88) rotate(171.65) scale(1.15)"
  />
  <use
    xlink:href="#c2"
    transform="translate(913.77 672.29) rotate(277.93) scale(1.1)"
  />
  <use
    xlink:href="#c2"
    transform="translate(415.55 101.53) rotate(28.12) scale(1.16)"
  />
  <use
    xlink:href="#c2"
    transform="translate(936.52 643.42) rotate(301.96) scale(0.89)"
  />
  <use
    xlink:href="#c2"
    transform="translate(70.64 14.43) rotate(233.61) scale(0.95)"
  />
  <use
    xlink:href="#c2"
    transform="translate(1017.93 730.93) rotate(22.15) scale(0.92)"
  />
  <use
    xlink:href="#c2"
    transform="translate(691.61 110.12) rotate(52.55) scale(1.01)"
  />
  <use
    xlink:href="#c2"
    transform="translate(577.22 615.67) rotate(314.46) scale(1.14)"
  />
  <use
    xlink:href="#c2"
    transform="translate(995.5 10.02) rotate(326.58) scale(0.92)"
  />
  <use
    xlink:href="#c2"
    transform="translate(493.92 523.86) rotate(292.05) scale(0.98)"
  />
  <use
    xlink:href="#c2"
    transform="translate(702.13 229.28) rotate(272.39) scale(1.19)"
  />
  <use
    xlink:href="#c2"
    transform="translate(156.71 540.63) rotate(87.91) scale(0.82)"
  />
  <use
    xlink:href="#c2"
    transform="translate(619.55 526.36) rotate(65.06) scale(0.85)"
  />
  <use
    xlink:href="#c2"
    transform="translate(706.44 111.98) rotate(316.8) scale(0.87)"
  />
  <use
    xlink:href="#l2"
    transform="translate(830.96 285.04) rotate(110.87) scale(1.19)"
  />
  <use
    xlink:href="#l2"
    transform="translate(684.56 127.48) rotate(183.88) scale(1.07)"
  />
  <use
    xlink:href="#l2"
    transform="translate(724.95 781.06) rotate(263.21) scale(1.16)"
  />
  <use
    xlink:href="#l2"
    transform="translate(41.57 798) rotate(126.88) scale(1.05)"
  />
  <use
    xlink:href="#l2"
    transform="translate(435.82 569.99) rotate(105.01) scale(0.81)"
  />
  <use
    xlink:href="#l2"
    transform="translate(843.27 448.1) rotate(93.27) scale(1.04)"
  />
  <use
    xlink:href="#l2"
    transform="translate(165.68 118.63) rotate(284.47) scale(0.82)"
  />
  <use
    xlink:href="#l2"
    transform="translate(802.83 425.33) rotate(86.9) scale(1)"
  />
  <use
    xlink:href="#l2"
    transform="translate(486.76 108.31) rotate(282.01) scale(1)"
  />
  <use
    xlink:href="#l2"
    transform="translate(159.85 170.96) rotate(50.42) scale(1.08)"
  />
  <use
    xlink:href="#l2"
    transform="translate(1072.59 226.81) rotate(100.15) scale(1.08)"
  />
  <use
    xlink:href="#l2"
    transform="translate(436.23 579.65) rotate(167.1) scale(0.98)"
  />
  <use
    xlink:href="#l2"
    transform="translate(1111.13 1.55) rotate(30.64) scale(0.97)"
  />
  <use
    xlink:href="#l2"
    transform="translate(775.54 378.02) rotate(335.44) scale(0.81)"
  />
  <use
    xlink:href="#l2"
    transform="translate(596.14 460.62) rotate(267.83) scale(0.82)"
  />
  <use
    xlink:href="#l2"
    transform="translate(42.01 30.57) rotate(198.25) scale(0.94)"
  />
  <use
    xlink:href="#l2"
    transform="translate(31.68 590.5) rotate(36.39) scale(0.99)"
  />
  <use
    xlink:href="#l2"
    transform="translate(828.2 445.47) rotate(36.94) scale(1.16)"
  />
  <use
    xlink:href="#l2"
    transform="translate(180.71 712.41) rotate(31.74) scale(1.15)"
  />
  <use
    xlink:href="#l2"
    transform="translate(110.63 164.35) rotate(171.45) scale(0.93)"
  />
  <use
    xlink:href="#t3"
    transform="translate(1095.73 360.72) rotate(193.74) scale(0.93)"
  />
  <use
    xlink:href="#t3"
    transform="translate(235.93 373.64) rotate(13.5) scale(1.15)"
  />
  <use
    xlink:href="#t3"
    transform="translate(1133.68 149.7) rotate(288.9) scale(0.84)"
  />
  <use
    xlink:href="#t3"
    transform="translate(105.58 726.5) rotate(333.94) scale(0.82)"
  />
  <use
    xlink:href="#t3"
    transform="translate(345.32 758.08) rotate(199.71) scale(1.05)"
  />
  <use
    xlink:href="#t3"
    transform="translate(1195.61 219.92) rotate(330.14) scale(1.11)"
  />
  <use
    xlink:href="#t3"
    transform="translate(991.86 448.01) rotate(342.1) scale(1.04)"
  />
  <use
    xlink:href="#t3"
    transform="translate(1170.64 636.55) rotate(141.28) scale(1.13)"
  />
  <use
    xlink:href="#t3"
    transform="translate(315.82 301.54) rotate(175.86) scale(1.07)"
  />
  <use
    xlink:href="#t3"
    transform="translate(982.33 562.04) rotate(299.02) scale(0.92)"
  />
  <use
    xlink:href="#t3"
    transform="translate(383.51 193.38) rotate(280.53) scale(0.81)"
  />
  <use
    xlink:href="#t3"
    transform="translate(345.28 8.56) rotate(244.59) scale(0.85)"
  />
  <use
    xlink:href="#t3"
    transform="translate(582.6 315.53) rotate(155.38) scale(0.83)"
  />
  <use
    xlink:href="#t3"
    transform="translate(1018.73 422.31) rotate(264.8) scale(0.93)"
  />
  <use
    xlink:href="#t3"
    transform="translate(1080.43 0.88) rotate(129.1) scale(1.05)"
  />
  <use
    xlink:href="#t3"
    transform="translate(1014.07 767.63) rotate(9.97) scale(0.81)"
  />
  <use
    xlink:href="#t3"
    transform="translate(103.1 208.22) rotate(68.1) scale(0.85)"
  />
  <use
    xlink:href="#t3"
    transform="translate(378.26 434.86) rotate(70.72) scale(1.13)"
  />
  <use
    xlink:href="#t3"
    transform="translate(421.19 33.42) rotate(257.57) scale(0.93)"
  />
  <use
    xlink:href="#t3"
    transform="translate(391.81 467.9) rotate(46.07) scale(1.16)"
  />
  <use
    xlink:href="#c3"
    transform="translate(965.17 794.11) rotate(63.14) scale(0.92)"
  />
  <use
    xlink:href="#c3"
    transform="translate(182.12 451.07) rotate(228.76) scale(1.02)"
  />
  <use
    xlink:href="#c3"
    transform="translate(573.21 14.66) rotate(86.32) scale(1.05)"
  />
  <use
    xlink:href="#c3"
    transform="translate(446.03 24.98) rotate(232.28) scale(1.08)"
  />
  <use
    xlink:href="#c3"
    transform="translate(258.37 554.03) rotate(165.78) scale(0.99)"
  />
  <use
    xlink:href="#c3"
    transform="translate(247.59 697.65) rotate(242.43) scale(0.96)"
  />
  <use
    xlink:href="#c3"
    transform="translate(270.16 88.67) rotate(83.04) scale(1.01)"
  />
  <use
    xlink:href="#c3"
    transform="translate(159.45 377.83) rotate(82.89) scale(0.9)"
  />
  <use
    xlink:href="#c3"
    transform="translate(573.06 101.2) rotate(42.05) scale(0.91)"
  />
  <use
    xlink:href="#c3"
    transform="translate(127.61 428.78) rotate(45.12) scale(0.96)"
  />
  <use
    xlink:href="#c3"
    transform="translate(800.02 208.36) rotate(334.22) scale(1.07)"
  />
  <use
    xlink:href="#c3"
    transform="translate(75.55 774.1) rotate(140.73) scale(1.08)"
  />
  <use
    xlink:href="#c3"
    transform="translate(412.48 322.09) rotate(294) scale(0.84)"
  />
  <use
    xlink:href="#c3"
    transform="translate(911.1 42.21) rotate(120.81) scale(0.96)"
  />
  <use
    xlink:href="#c3"
    transform="translate(121.41 217.55) rotate(159.74) scale(1.12)"
  />
  <use
    xlink:href="#c3"
    transform="translate(101.63 620.68) rotate(33.73) scale(0.88)"
  />
  <use
    xlink:href="#c3"
    transform="translate(576.9 457.47) rotate(250.67) scale(1.14)"
  />
  <use
    xlink:href="#c3"
    transform="translate(44.38 651.81) rotate(248.62) scale(1.18)"
  />
  <use
    xlink:href="#c3"
    transform="translate(804.08 138.35) rotate(227.41) scale(1.1)"
  />
  <use
    xlink:href="#c3"
    transform="translate(1.37 737.31) rotate(336.71) scale(0.91)"
  />
  <use
    xlink:href="#l3"
    transform="translate(712.55 298.71) rotate(70.02) scale(1.03)"
  />
  <use
    xlink:href="#l3"
    transform="translate(696.83 155.29) rotate(19.44) scale(0.83)"
  />
  <use
    xlink:href="#l3"
    transform="translate(380.52 682.64) rotate(77.42) scale(0.89)"
  />
  <use
    xlink:href="#l3"
    transform="translate(78.11 404.51) rotate(264.76) scale(1.19)"
  />
  <use
    xlink:href="#l3"
    transform="translate(1173.06 766.76) rotate(303.3) scale(1.06)"
  />
  <use
    xlink:href="#l3"
    transform="translate(822.85 631.77) rotate(180.13) scale(1.1)"
  />
  <use
    xlink:href="#l3"
    transform="translate(708.73 708.4) rotate(286.62) scale(1.1)"
  />
  <use
    xlink:href="#l3"
    transform="translate(898.09 571.17) rotate(323.93) scale(1.09)"
  />
  <use
    xlink:href="#l3"
    transform="translate(602.8 145.62) rotate(328.38) scale(0.85)"
  />
  <use
    xlink:href="#l3"
    transform="translate(978.94 226.24) rotate(117.1) scale(0.98)"
  />
  <use
    xlink:href="#l3"
    transform="translate(65.45 531.2) rotate(355.66) scale(0.95)"
  />
  <use
    xlink:href="#l3"
    transform="translate(979.63 323.8) rotate(343.33) scale(1.01)"
  />
  <use
    xlink:href="#l3"
    transform="translate(907.88 81.74) rotate(30.99) scale(1.14)"
  />
  <use
    xlink:href="#l3"
    transform="translate(521 267.17) rotate(253.87) scale(1.09)"
  />
  <use
    xlink:href="#l3"
    transform="translate(46.57 494.37) rotate(87.57) scale(0.96)"
  />
  <use
    xlink:href="#l3"
    transform="translate(90.55 308.28) rotate(243.47) scale(1.02)"
  />
  <use
    xlink:href="#l3"
    transform="translate(963.43 58.99) rotate(90.48) scale(1.06)"
  />
  <use
    xlink:href="#l3"
    transform="translate(1121.04 359.75) rotate(258.69) scale(1.14)"
  />
  <use
    xlink:href="#l3"
    transform="translate(1041.69 517.66) rotate(175.89) scale(1.1)"
  />
  <use
    xlink:href="#l3"
    transform="translate(493.96 229.26) rotate(307.1) scale(1.11)"
  />
  <text
    x="600"
    y="400"
    font-family="courier new, courier, monospace"
    font-weight="bold"
    font-size="120"
    fill="black"
    text-anchor="middle"
    alignment-baseline="middle"
  >tt()</text>
</svg>
