<svg
  xmlns="http://www.w3.org/2000/svg"
  xmlns:xlink="http://www.w3.org/1999/xlink"
  viewBox="0 0 1200 400"
>
  <title>Frontend Data</title>
  <style>
    :root { color: #feca2f; background-color: currentcolor; max-width: 100% }
    body { margin: 0 }
    path { fill: none; stroke: hsl(45, 99%, 67%); stroke-width: 5px; stroke-linecap: round }
    path:nth-child(odd) { stroke: hsl(45, 99%, 52%) }
  </style>
  <rect width="100%" height="100%" fill="currentcolor"/>
  <defs>
  <path id="t1" d="M7.76,10.89c-1.5,2.18-2.77,4.5-4.27,6.68-1.12,1.63-2.22,4-.86,5.41a4.34,4.34,0,0,0,2.25,1,130.06,130.06,0,0,0,24.85,3.36,2.65,2.65,0,0,0,2-.45,2.5,2.5,0,0,0,.51-2c-.43-7.43-5.32-13.76-10-19.55C21.15,4,20,2.67,18.4,2.18a5.71,5.71,0,0,0-5,1.19,16.87,16.87,0,0,0-3.43,4c-1.43,2.11-.79,1.36-2.23,3.47">
    <animate
      attributeName="opacity"
      repeatCount="indefinite"
      dur="20s"
      values="1;1;1;0;0;0;0;0;1"
    />
    <animateTransform
      attributeName="transform"
      type="rotate"
      repeatCount="indefinite"
      dur="80s"
      from="360 150 150"
      to="0 150 150"
    />
  </path>
  <path id="c1" d="M12.36,11.18a1.16,1.16,0,0,0-1.63-.11,3,3,0,0,0-.87,1.58c-.61,2.11-.78,4.58.55,6.32,1.71,2.23,5.36,2.21,7.57.46s3.15-4.69,3.26-7.5a13.18,13.18,0,0,0-1.89-7.67A9.12,9.12,0,0,0,12.85,0,9.93,9.93,0,0,0,4.51,3.82,20.08,20.08,0,0,0,.67,12.45c-.86,3.8-1.14,8,.63,11.44,2.31,4.55,7.64,6.85,12.72,7.3a13.12,13.12,0,0,0,7.81-1.32,15.12,15.12,0,0,0,5-5.68c2.11-3.59,3.87-7.56,3.88-11.73S28.64,3.9,24.84,2.21">
    <animate
      attributeName="opacity"
      repeatCount="indefinite"
      dur="20s"
      values="0;1;1;1;0;0;0;0;0"
    />
    <animateTransform
      attributeName="transform"
      type="rotate"
      repeatCount="indefinite"
      dur="80s"
      from="360 150 150"
      to="0 150 150"
    />
  </path>
  <path id="l1" d="M2.07,10.63a6,6,0,0,0,2.89,6A6,6,0,0,0,11.59,16c3.64-3.14,2.84-10.08,7.21-12.06,2.83-1.29,6.15.49,8.31,2.72s3.86,5,6.55,6.59a9.31,9.31,0,0,0,10.47-1A9.31,9.31,0,0,0,46.62,2">
    <animate
      attributeName="opacity"
      repeatCount="indefinite"
      dur="20s"
      values="0;0;1;1;1;0;0;0;0"
    />
    <animateTransform
      attributeName="transform"
      type="rotate"
      repeatCount="indefinite"
      dur="80s"
      from="360 150 150"
      to="0 150 150"
    />
  </path>
  <path id="t2" d="M23.42,19c-1.93-6-2.36-7.18-4.09-13.2-.54-1.88-1.82-4.21-3.71-3.74a3.78,3.78,0,0,0-1.45.88,120.75,120.75,0,0,0-9.68,9.15c-1.38,1.45-2.82,3.27-2.41,5.23a6.22,6.22,0,0,0,2.63,3.34,73,73,0,0,0,15.38,9.16c2,.87,4.64,1.5,6-.18s.26-4-1-5.75S24.06,21,23.42,19Z">
    <animate
      attributeName="opacity"
      repeatCount="indefinite"
      dur="20s"
      values="0;0;0;1;1;1;0;0;0"
    />
    <animateTransform
      attributeName="transform"
      type="rotate"
      repeatCount="indefinite"
      dur="80s"
      from="360 150 150"
      to="0 150 150"
    />
  </path>
  <path id="c2" d="M13.44,10.08a2.92,2.92,0,0,0-4.15-.66C7.93,10.56,8,12.75,8.79,14.32a6.86,6.86,0,0,0,8.38,3,7.23,7.23,0,0,0,4.17-8A11.85,11.85,0,0,0,18.15,4,11.42,11.42,0,0,0,12.33.14a9.79,9.79,0,0,0-7.4,2C1.72,4.41-.71,8.37.19,12.21a13.84,13.84,0,0,0,1.85,4,30.12,30.12,0,0,0,5,6.55A11.53,11.53,0,0,0,14.33,26,12.35,12.35,0,0,0,22,23.15c4.33-3.33,7.31-9,5.86-14.3">
    <animate
      attributeName="opacity"
      repeatCount="indefinite"
      dur="20s"
      values="0;0;0;0;1;1;1;0;0"
    />
    <animateTransform
      attributeName="transform"
      type="rotate"
      repeatCount="indefinite"
      dur="80s"
      from="360 150 150"
      to="0 150 150"
    />
  </path>
  <path id="l2" d="M85.7,8.9c.33-3.32-2.7-6.31-6-6.81s-6.62,1-9.21,3.12S65.89,10,63.64,12.49a9.41,9.41,0,0,1-4.58,3.19c-3.47.78-6.65-2.08-8.76-4.94s-4.2-6.21-7.64-7.11c-3.79-1-7.67,1.51-10.15,4.54s-4.16,6.7-6.93,9.47S18.31,22.12,15,20.06a12.07,12.07,0,0,1-3.69-4.46L7.93,9.85A7.14,7.14,0,0,0,5.39,6.91C4.22,6.3,2.5,6.56,2,7.78">
    <animate
      attributeName="opacity"
      repeatCount="indefinite"
      dur="20s"
      values="0;0;0;0;0;1;1;1;0"
    />
    <animateTransform
      attributeName="transform"
      type="rotate"
      repeatCount="indefinite"
      dur="80s"
      from="360 150 150"
      to="0 150 150"
    />
  </path>
  <path id="t3" d="M16.58,2.36A68.52,68.52,0,0,0,5.33,2.14,4.14,4.14,0,0,0,2.7,3C1.38,4.23,2.18,6.42,3,8l8.1,14.87c.65,1.2,1.43,2.5,2.75,2.87a4.89,4.89,0,0,0,3.37-.69A42.36,42.36,0,0,0,32.45,12.46a8.56,8.56,0,0,0,1.79-3.54,3.37,3.37,0,0,0-1.38-3.5A5,5,0,0,0,31,4.92C25.13,4.1,22.51,2.9,16.58,2.36Z">
    <animate
      attributeName="opacity"
      repeatCount="indefinite"
      dur="20s"
      values="1;0;0;0;0;0;1;1;1"
    />
    <animateTransform
      attributeName="transform"
      type="rotate"
      repeatCount="indefinite"
      dur="80s"
      from="360 150 150"
      to="0 150 150"
    />
  </path>
  <path id="c3" d="M16.66,19.31c0-2.1-2.84-3.38-4.68-2.35s-2.46,3.52-1.85,5.54c1.12,3.7,5.8,5.64,9.41,4.27s5.81-5.44,5.52-9.3a12.82,12.82,0,0,0-6-9.46A12.7,12.7,0,0,0,8,6.38,12.65,12.65,0,0,0,.54,15.12a20.73,20.73,0,0,0,.75,11.75,17.2,17.2,0,0,0,2.43,4.92c3.94,5.26,11.55,6.36,18,5a17.51,17.51,0,0,0,7.55-3.24,15.27,15.27,0,0,0,4.9-8.16A20.76,20.76,0,0,0,18.61,0">
    <animate
      attributeName="opacity"
      repeatCount="indefinite"
      dur="20s"
      values="1;0;0;0;0;0;0;1;1"
    />
    <animateTransform
      attributeName="transform"
      type="rotate"
      repeatCount="indefinite"
      dur="80s"
      from="360 150 150"
      to="0 150 150"
    />
  </path>
  <path id="l3" d="M2,19.86c2.37-3.51,2.92-9.08,7-10,2.51-.58,5,1.1,6.65,3.1s2.78,4.4,4.69,6.14a10.34,10.34,0,0,0,13.12.34c3.4-2.8,4.55-7.42,6.65-11.29S46.72.68,50.74,2.48c5.2,2.33,4.63,11.25,9.95,13.29a8.22,8.22,0,0,0,6.09-.56,18.15,18.15,0,0,0,9.57-9.86">
    <animate
      attributeName="opacity"
      repeatCount="indefinite"
      dur="20s"
      values="1;1;0;0;0;0;0;0;1"
    />
    <animateTransform
      attributeName="transform"
      type="rotate"
      repeatCount="indefinite"
      dur="80s"
      from="360 150 150"
      to="0 150 150"
    />
  </path>
  </defs>
  <use
    xlink:href="#t1"
    transform="translate(656.68 140.03) rotate(124.6) scale(0.86)"
  />
  <use
    xlink:href="#t1"
    transform="translate(680.37 267.75) rotate(31.42) scale(0.98)"
  />
  <use
    xlink:href="#t1"
    transform="translate(442.7 176.95) rotate(268.11) scale(1.17)"
  />
  <use
    xlink:href="#t1"
    transform="translate(1011.94 92.22) rotate(132.11) scale(0.85)"
  />
  <use
    xlink:href="#t1"
    transform="translate(1045.75 63.05) rotate(139.05) scale(0.96)"
  />
  <use
    xlink:href="#t1"
    transform="translate(1178.64 20.79) rotate(9.22) scale(0.99)"
  />
  <use
    xlink:href="#t1"
    transform="translate(1016.24 157.56) rotate(68.86) scale(1)"
  />
  <use
    xlink:href="#t1"
    transform="translate(409.98 295.8) rotate(225.38) scale(0.83)"
  />
  <use
    xlink:href="#t1"
    transform="translate(233.42 227.47) rotate(25.5) scale(0.85)"
  />
  <use
    xlink:href="#t1"
    transform="translate(611.01 241.86) rotate(67.67) scale(1.1)"
  />
  <use
    xlink:href="#t1"
    transform="translate(568.45 203.17) rotate(134.85) scale(1.06)"
  />
  <use
    xlink:href="#t1"
    transform="translate(53.78 53.94) rotate(210.78) scale(0.98)"
  />
  <use
    xlink:href="#t1"
    transform="translate(186.97 94.49) rotate(143.77) scale(0.97)"
  />
  <use
    xlink:href="#t1"
    transform="translate(945.99 12.58) rotate(176.02) scale(0.93)"
  />
  <use
    xlink:href="#t1"
    transform="translate(1088.64 352.14) rotate(215.76) scale(0.96)"
  />
  <use
    xlink:href="#t1"
    transform="translate(338.47 1.42) rotate(6.24) scale(1.08)"
  />
  <use
    xlink:href="#t1"
    transform="translate(6.41 241.05) rotate(335.86) scale(0.95)"
  />
  <use
    xlink:href="#t1"
    transform="translate(81.08 198.49) rotate(21.73) scale(1.1)"
  />
  <use
    xlink:href="#t1"
    transform="translate(478.13 302.74) rotate(210.5) scale(1.08)"
  />
  <use
    xlink:href="#t1"
    transform="translate(912.56 395.73) rotate(101.99) scale(0.92)"
  />
  <use
    xlink:href="#c1"
    transform="translate(333.3 262.91) rotate(178.57) scale(0.93)"
  />
  <use
    xlink:href="#c1"
    transform="translate(393.67 284.51) rotate(201.76) scale(0.83)"
  />
  <use
    xlink:href="#c1"
    transform="translate(418.23 194.93) rotate(204.18) scale(1.11)"
  />
  <use
    xlink:href="#c1"
    transform="translate(864.41 374.58) rotate(19.08) scale(0.95)"
  />
  <use
    xlink:href="#c1"
    transform="translate(818.52 274.99) rotate(343.8) scale(1.17)"
  />
  <use
    xlink:href="#c1"
    transform="translate(390.28 315.17) rotate(52.49) scale(0.81)"
  />
  <use
    xlink:href="#c1"
    transform="translate(477.07 89.78) rotate(320.3) scale(0.94)"
  />
  <use
    xlink:href="#c1"
    transform="translate(773.88 146.99) rotate(246.67) scale(1.18)"
  />
  <use
    xlink:href="#c1"
    transform="translate(1007.79 160.36) rotate(18.76) scale(0.94)"
  />
  <use
    xlink:href="#c1"
    transform="translate(619.31 177.53) rotate(147.7) scale(1.13)"
  />
  <use
    xlink:href="#c1"
    transform="translate(1186.09 246.58) rotate(119.41) scale(0.88)"
  />
  <use
    xlink:href="#c1"
    transform="translate(1072.68 393.16) rotate(98.76) scale(0.98)"
  />
  <use
    xlink:href="#c1"
    transform="translate(555.14 64.67) rotate(225.54) scale(1.13)"
  />
  <use
    xlink:href="#c1"
    transform="translate(164.36 67.87) rotate(243.4) scale(0.8)"
  />
  <use
    xlink:href="#c1"
    transform="translate(939.94 78.81) rotate(306.29) scale(0.9)"
  />
  <use
    xlink:href="#c1"
    transform="translate(685.48 75.91) rotate(310.75) scale(1.18)"
  />
  <use
    xlink:href="#c1"
    transform="translate(14.72 353.84) rotate(269.73) scale(1)"
  />
  <use
    xlink:href="#c1"
    transform="translate(409.13 125.35) rotate(38.86) scale(1.1)"
  />
  <use
    xlink:href="#c1"
    transform="translate(714.98 19.42) rotate(35.79) scale(1.07)"
  />
  <use
    xlink:href="#c1"
    transform="translate(979.47 206.79) rotate(196.48) scale(0.96)"
  />
  <use
    xlink:href="#l1"
    transform="translate(921.45 237.09) rotate(15.71) scale(0.86)"
  />
  <use
    xlink:href="#l1"
    transform="translate(1101.33 55.53) rotate(299.41) scale(1.15)"
  />
  <use
    xlink:href="#l1"
    transform="translate(249.67 172.95) rotate(47.44) scale(1.17)"
  />
  <use
    xlink:href="#l1"
    transform="translate(264.45 118.36) rotate(174.98) scale(0.95)"
  />
  <use
    xlink:href="#l1"
    transform="translate(708.59 158.26) rotate(175.86) scale(0.96)"
  />
  <use
    xlink:href="#l1"
    transform="translate(1093.72 155.7) rotate(301.82) scale(1)"
  />
  <use
    xlink:href="#l1"
    transform="translate(1023.22 285.69) rotate(75.33) scale(1.13)"
  />
  <use
    xlink:href="#l1"
    transform="translate(742.85 44.64) rotate(4.92) scale(1.03)"
  />
  <use
    xlink:href="#l1"
    transform="translate(659.2 305.47) rotate(343.09) scale(0.83)"
  />
  <use
    xlink:href="#l1"
    transform="translate(154.15 118.22) rotate(331.74) scale(0.97)"
  />
  <use
    xlink:href="#l1"
    transform="translate(766.3 208.74) rotate(105.4) scale(0.88)"
  />
  <use
    xlink:href="#l1"
    transform="translate(942.87 39.64) rotate(353.85) scale(1.14)"
  />
  <use
    xlink:href="#l1"
    transform="translate(1011.59 84.67) rotate(307.33) scale(1.16)"
  />
  <use
    xlink:href="#l1"
    transform="translate(266.59 200.25) rotate(210.27) scale(1.04)"
  />
  <use
    xlink:href="#l1"
    transform="translate(353.76 222.17) rotate(117.74) scale(1.02)"
  />
  <use
    xlink:href="#l1"
    transform="translate(467.53 350.04) rotate(181.43) scale(1.12)"
  />
  <use
    xlink:href="#l1"
    transform="translate(826.27 229.68) rotate(44.01) scale(0.8)"
  />
  <use
    xlink:href="#l1"
    transform="translate(800.6 70.33) rotate(134.48) scale(0.93)"
  />
  <use
    xlink:href="#l1"
    transform="translate(825.47 16.63) rotate(87.43) scale(1.18)"
  />
  <use
    xlink:href="#l1"
    transform="translate(777.09 34.05) rotate(341.27) scale(1.19)"
  />
  <use
    xlink:href="#t2"
    transform="translate(384.51 378.5) rotate(67.51) scale(1.01)"
  />
  <use
    xlink:href="#t2"
    transform="translate(682.6 245.04) rotate(77.69) scale(0.83)"
  />
  <use
    xlink:href="#t2"
    transform="translate(270.12 57.59) rotate(298.61) scale(1.08)"
  />
  <use
    xlink:href="#t2"
    transform="translate(1009.23 179.64) rotate(212.1) scale(0.86)"
  />
  <use
    xlink:href="#t2"
    transform="translate(1075.72 318.31) rotate(50.52) scale(0.95)"
  />
  <use
    xlink:href="#t2"
    transform="translate(512.39 118.79) rotate(166.79) scale(1.11)"
  />
  <use
    xlink:href="#t2"
    transform="translate(603.35 247.5) rotate(333.05) scale(0.85)"
  />
  <use
    xlink:href="#t2"
    transform="translate(877.16 42.86) rotate(259.7) scale(1)"
  />
  <use
    xlink:href="#t2"
    transform="translate(289.41 346.95) rotate(137.36) scale(1)"
  />
  <use
    xlink:href="#t2"
    transform="translate(332.24 161.13) rotate(294.54) scale(1.06)"
  />
  <use
    xlink:href="#t2"
    transform="translate(70.36 5.68) rotate(162.49) scale(1.14)"
  />
  <use
    xlink:href="#t2"
    transform="translate(271.05 10.86) rotate(173.69) scale(1.12)"
  />
  <use
    xlink:href="#t2"
    transform="translate(530.03 233.11) rotate(332.72) scale(1.13)"
  />
  <use
    xlink:href="#t2"
    transform="translate(1163.97 23.5) rotate(181.1) scale(1.17)"
  />
  <use
    xlink:href="#t2"
    transform="translate(669.21 302) rotate(330.11) scale(0.99)"
  />
  <use
    xlink:href="#t2"
    transform="translate(125.08 273.26) rotate(220.91) scale(0.9)"
  />
  <use
    xlink:href="#t2"
    transform="translate(47.83 342.58) rotate(238.06) scale(1.05)"
  />
  <use
    xlink:href="#t2"
    transform="translate(156.8 59.63) rotate(132.3) scale(1.13)"
  />
  <use
    xlink:href="#t2"
    transform="translate(705 240.38) rotate(321.59) scale(0.86)"
  />
  <use
    xlink:href="#t2"
    transform="translate(792.87 390.55) rotate(135.08) scale(1.02)"
  />
  <use
    xlink:href="#c2"
    transform="translate(119.93 152.79) rotate(85.16) scale(1.08)"
  />
  <use
    xlink:href="#c2"
    transform="translate(339.75 175.73) rotate(239.57) scale(1.18)"
  />
  <use
    xlink:href="#c2"
    transform="translate(1104.46 282.6) rotate(269.73) scale(0.89)"
  />
  <use
    xlink:href="#c2"
    transform="translate(726.43 263.07) rotate(285) scale(0.82)"
  />
  <use
    xlink:href="#c2"
    transform="translate(431.99 302.25) rotate(236.88) scale(0.98)"
  />
  <use
    xlink:href="#c2"
    transform="translate(452.49 323.62) rotate(175.06) scale(0.98)"
  />
  <use
    xlink:href="#c2"
    transform="translate(444.32 82.72) rotate(241.23) scale(1.18)"
  />
  <use
    xlink:href="#c2"
    transform="translate(1017.1 242.38) rotate(336.99) scale(0.8)"
  />
  <use
    xlink:href="#c2"
    transform="translate(285.62 181.98) rotate(29.77) scale(1.13)"
  />
  <use
    xlink:href="#c2"
    transform="translate(266.98 350.51) rotate(207.07) scale(0.88)"
  />
  <use
    xlink:href="#c2"
    transform="translate(973.13 379.58) rotate(136.15) scale(0.95)"
  />
  <use
    xlink:href="#c2"
    transform="translate(904.1 272.28) rotate(196.74) scale(1.14)"
  />
  <use
    xlink:href="#c2"
    transform="translate(850.15 84.98) rotate(188.09) scale(1.13)"
  />
  <use
    xlink:href="#c2"
    transform="translate(1194.68 286.88) rotate(171.94) scale(1.04)"
  />
  <use
    xlink:href="#c2"
    transform="translate(775.22 319.39) rotate(85.67) scale(0.84)"
  />
  <use
    xlink:href="#c2"
    transform="translate(1106.25 258.59) rotate(33.84) scale(1.09)"
  />
  <use
    xlink:href="#c2"
    transform="translate(1122.6 167.81) rotate(37.04) scale(1.06)"
  />
  <use
    xlink:href="#c2"
    transform="translate(595.85 270.84) rotate(191.32) scale(1.19)"
  />
  <use
    xlink:href="#c2"
    transform="translate(1095.93 232.97) rotate(274.88) scale(0.93)"
  />
  <use
    xlink:href="#c2"
    transform="translate(334.99 258.18) rotate(193.52) scale(0.94)"
  />
  <use
    xlink:href="#l2"
    transform="translate(945.56 217.84) rotate(121.29) scale(1.19)"
  />
  <use
    xlink:href="#l2"
    transform="translate(739.09 152.88) rotate(211.73) scale(0.99)"
  />
  <use
    xlink:href="#l2"
    transform="translate(904.68 41.73) rotate(351.82) scale(1.13)"
  />
  <use
    xlink:href="#l2"
    transform="translate(265.51 219.79) rotate(10.14) scale(1.09)"
  />
  <use
    xlink:href="#l2"
    transform="translate(826.76 357.18) rotate(166.29) scale(1.1)"
  />
  <use
    xlink:href="#l2"
    transform="translate(421.65 199.53) rotate(63.85) scale(0.87)"
  />
  <use
    xlink:href="#l2"
    transform="translate(436.28 326.86) rotate(53.98) scale(1.09)"
  />
  <use
    xlink:href="#l2"
    transform="translate(9.3 396.09) rotate(118.55) scale(0.88)"
  />
  <use
    xlink:href="#l2"
    transform="translate(726.22 10.02) rotate(157.61) scale(1.06)"
  />
  <use
    xlink:href="#l2"
    transform="translate(1103.85 237.26) rotate(85.22) scale(1.14)"
  />
  <use
    xlink:href="#l2"
    transform="translate(970.46 244.93) rotate(236.36) scale(1)"
  />
  <use
    xlink:href="#l2"
    transform="translate(139.77 200.48) rotate(229.38) scale(1.05)"
  />
  <use
    xlink:href="#l2"
    transform="translate(662.94 97.98) rotate(7.35) scale(1.08)"
  />
  <use
    xlink:href="#l2"
    transform="translate(954.48 37.52) rotate(178.99) scale(1.06)"
  />
  <use
    xlink:href="#l2"
    transform="translate(830.62 323.86) rotate(126.36) scale(0.91)"
  />
  <use
    xlink:href="#l2"
    transform="translate(6.4 232.85) rotate(180.25) scale(1)"
  />
  <use
    xlink:href="#l2"
    transform="translate(150.19 111.06) rotate(23.24) scale(0.82)"
  />
  <use
    xlink:href="#l2"
    transform="translate(79.89 165) rotate(265.8) scale(0.81)"
  />
  <use
    xlink:href="#l2"
    transform="translate(1050.15 9.01) rotate(33.56) scale(1.09)"
  />
  <use
    xlink:href="#l2"
    transform="translate(653.05 113.44) rotate(25.37) scale(1)"
  />
  <use
    xlink:href="#t3"
    transform="translate(990.13 318.28) rotate(37.99) scale(1.15)"
  />
  <use
    xlink:href="#t3"
    transform="translate(619.32 377.14) rotate(139.03) scale(0.86)"
  />
  <use
    xlink:href="#t3"
    transform="translate(310.79 238.44) rotate(228.97) scale(1.16)"
  />
  <use
    xlink:href="#t3"
    transform="translate(904.78 154.68) rotate(146.31) scale(1.15)"
  />
  <use
    xlink:href="#t3"
    transform="translate(1075.73 248.18) rotate(148.17) scale(1.16)"
  />
  <use
    xlink:href="#t3"
    transform="translate(1158.56 161.97) rotate(307.5) scale(1.14)"
  />
  <use
    xlink:href="#t3"
    transform="translate(969.93 257.84) rotate(171.66) scale(1.18)"
  />
  <use
    xlink:href="#t3"
    transform="translate(628.39 187.79) rotate(21.47) scale(0.81)"
  />
  <use
    xlink:href="#t3"
    transform="translate(506.42 265.61) rotate(348.62) scale(0.88)"
  />
  <use
    xlink:href="#t3"
    transform="translate(1166.22 2.38) rotate(40.59) scale(1.08)"
  />
  <use
    xlink:href="#t3"
    transform="translate(1037 397.45) rotate(72.99) scale(0.96)"
  />
  <use
    xlink:href="#t3"
    transform="translate(678.16 47.16) rotate(340.15) scale(0.83)"
  />
  <use
    xlink:href="#t3"
    transform="translate(207.69 377.17) rotate(113.01) scale(1.18)"
  />
  <use
    xlink:href="#t3"
    transform="translate(181.8 188.83) rotate(224.79) scale(0.92)"
  />
  <use
    xlink:href="#t3"
    transform="translate(581.68 70.7) rotate(104.01) scale(0.94)"
  />
  <use
    xlink:href="#t3"
    transform="translate(535.27 341.96) rotate(212.85) scale(0.89)"
  />
  <use
    xlink:href="#t3"
    transform="translate(534.57 319.02) rotate(85.14) scale(0.82)"
  />
  <use
    xlink:href="#t3"
    transform="translate(1099.69 132.35) rotate(324.41) scale(1.01)"
  />
  <use
    xlink:href="#t3"
    transform="translate(1171.92 118.62) rotate(266.14) scale(0.98)"
  />
  <use
    xlink:href="#t3"
    transform="translate(1072.2 174.02) rotate(320.15) scale(1.02)"
  />
  <use
    xlink:href="#c3"
    transform="translate(1127.93 0.82) rotate(236.33) scale(0.81)"
  />
  <use
    xlink:href="#c3"
    transform="translate(205.19 309.97) rotate(118.49) scale(1.04)"
  />
  <use
    xlink:href="#c3"
    transform="translate(764.51 241.46) rotate(132.93) scale(0.89)"
  />
  <use
    xlink:href="#c3"
    transform="translate(61.92 132.05) rotate(351) scale(1.07)"
  />
  <use
    xlink:href="#c3"
    transform="translate(506.79 92.17) rotate(272.98) scale(0.84)"
  />
  <use
    xlink:href="#c3"
    transform="translate(1008.53 34.41) rotate(275.39) scale(1.17)"
  />
  <use
    xlink:href="#c3"
    transform="translate(720.89 131.49) rotate(208.47) scale(1.16)"
  />
  <use
    xlink:href="#c3"
    transform="translate(745.65 370.81) rotate(192.62) scale(0.93)"
  />
  <use
    xlink:href="#c3"
    transform="translate(450.47 189.1) rotate(13.79) scale(1.01)"
  />
  <use
    xlink:href="#c3"
    transform="translate(185.85 318.45) rotate(83.51) scale(0.94)"
  />
  <use
    xlink:href="#c3"
    transform="translate(764.3 19.73) rotate(125.11) scale(0.95)"
  />
  <use
    xlink:href="#c3"
    transform="translate(497.68 362.13) rotate(266.04) scale(1.12)"
  />
  <use
    xlink:href="#c3"
    transform="translate(1007.53 317.8) rotate(30.3) scale(0.85)"
  />
  <use
    xlink:href="#c3"
    transform="translate(1083.24 365.21) rotate(217.81) scale(0.93)"
  />
  <use
    xlink:href="#c3"
    transform="translate(799.23 78.61) rotate(83.23) scale(1)"
  />
  <use
    xlink:href="#c3"
    transform="translate(1060.73 52.22) rotate(327.11) scale(1.13)"
  />
  <use
    xlink:href="#c3"
    transform="translate(1116.86 213.2) rotate(279.58) scale(1.1)"
  />
  <use
    xlink:href="#c3"
    transform="translate(1076.62 44.55) rotate(90.3) scale(1.01)"
  />
  <use
    xlink:href="#c3"
    transform="translate(522.06 102.94) rotate(12.23) scale(1)"
  />
  <use
    xlink:href="#c3"
    transform="translate(635.46 378.79) rotate(270.78) scale(1.01)"
  />
  <use
    xlink:href="#l3"
    transform="translate(254.58 327.4) rotate(228.52) scale(1.05)"
  />
  <use
    xlink:href="#l3"
    transform="translate(681 373.3) rotate(164.86) scale(1.06)"
  />
  <use
    xlink:href="#l3"
    transform="translate(1126.41 393.51) rotate(251.4) scale(0.84)"
  />
  <use
    xlink:href="#l3"
    transform="translate(1180.89 5.21) rotate(183.44) scale(0.89)"
  />
  <use
    xlink:href="#l3"
    transform="translate(972.42 20.12) rotate(216.29) scale(0.86)"
  />
  <use
    xlink:href="#l3"
    transform="translate(889.96 316.7) rotate(323.79) scale(0.93)"
  />
  <use
    xlink:href="#l3"
    transform="translate(412.47 389.03) rotate(80.72) scale(1.02)"
  />
  <use
    xlink:href="#l3"
    transform="translate(1155.38 213.69) rotate(284.19) scale(0.92)"
  />
  <use
    xlink:href="#l3"
    transform="translate(465.35 156.23) rotate(145.46) scale(1.09)"
  />
  <use
    xlink:href="#l3"
    transform="translate(1035.95 123.81) rotate(139.95) scale(0.84)"
  />
  <use
    xlink:href="#l3"
    transform="translate(942.32 32.61) rotate(171.32) scale(0.93)"
  />
  <use
    xlink:href="#l3"
    transform="translate(889.47 276.15) rotate(88.94) scale(0.93)"
  />
  <use
    xlink:href="#l3"
    transform="translate(327.76 8.99) rotate(194.62) scale(0.98)"
  />
  <use
    xlink:href="#l3"
    transform="translate(122.08 241.92) rotate(198.34) scale(1.08)"
  />
  <use
    xlink:href="#l3"
    transform="translate(394.79 274.14) rotate(288.4) scale(1.19)"
  />
  <use
    xlink:href="#l3"
    transform="translate(193.99 5) rotate(281.97) scale(1.04)"
  />
  <use
    xlink:href="#l3"
    transform="translate(881.2 12.12) rotate(67.41) scale(0.84)"
  />
  <use
    xlink:href="#l3"
    transform="translate(1188.61 189.27) rotate(223.7) scale(1.03)"
  />
  <use
    xlink:href="#l3"
    transform="translate(120.47 162.77) rotate(67.72) scale(0.88)"
  />
  <use
    xlink:href="#l3"
    transform="translate(558.64 296.95) rotate(271.63) scale(1.07)"
  />
  <text
    x="600"
    y="200"
    font-family="courier new, courier, monospace"
    font-weight="bold"
    font-size="120"
    fill="black"
    text-anchor="middle"
    alignment-baseline="middle"
  >fd()</text>
</svg>
